<svg width="1024" height="1024" viewBox="0 0 1024 1024" fill="none" xmlns="http://www.w3.org/2000/svg">
<path fill-rule="evenodd" clip-rule="evenodd" d="M677.614 436.533C676.036 436.595 674.466 436.656 672.92 436.68C670.77 437.259 668.99 437.848 667.75 439.823C666.975 441.057 666.66 442.355 666.565 443.796C665.894 453.728 666.089 465.137 666.276 476.129C666.365 481.36 666.453 486.496 666.445 491.333C666.279 506.063 666.231 520.794 666.3 535.525C666.307 537.686 666.252 539.94 666.196 542.24C666.011 549.793 665.814 557.837 667.765 564.675C669.55 570.94 673.29 576.52 679.075 579.72C687.845 584.565 700.32 583.815 709.69 581.285C709.939 581.218 710.188 581.156 710.434 581.095C712.163 580.661 713.769 580.259 714.785 578.595C716.91 575.115 717.254 569.436 717.53 564.875C717.582 564.016 717.631 563.197 717.69 562.44C717.343 562.169 716.998 561.894 716.652 561.619C715.462 560.672 714.266 559.72 712.995 558.895C712.148 558.931 711.201 559.02 710.201 559.114C706.162 559.494 701.264 559.954 698.615 557.305C697.053 555.738 696.81 553.097 696.617 550.988L696.61 550.915C696.015 544.342 696.157 537.505 696.298 530.749C696.358 527.853 696.418 524.973 696.42 522.135L696.3 468.401C696.294 467.085 696.334 465.365 696.38 463.411C696.565 455.549 696.839 443.894 694.54 439.48C693.235 436.977 689.865 436.627 687.34 436.471C684.158 436.275 680.869 436.405 677.614 436.533ZM439.167 471.158C438.25 471.183 437.355 471.208 436.496 471.216C436.304 471.224 436.109 471.23 435.913 471.237C432.515 471.354 428.615 471.488 426.074 474.013C425.169 474.913 424.477 475.931 424.564 477.259C424.861 481.825 435.764 506.755 442.793 522.829C445.123 528.158 447.028 532.513 447.979 534.83C449.923 539.565 451.777 544.385 453.634 549.215C457.025 558.032 460.428 566.882 464.418 575.31C465.363 577.31 466.475 579.24 468.258 580.605C472.367 583.745 480.844 583.345 485.693 582.42C488.86 581.82 491.267 580.53 493.046 577.805C496.488 572.535 499.133 565.798 501.644 559.403C502.602 556.964 503.54 554.574 504.495 552.335C507.068 546.306 509.705 540.305 512.343 534.304C515.414 527.316 518.485 520.327 521.455 513.295C522.064 511.893 523.041 509.761 524.211 507.206C528.803 497.183 536.375 480.653 536.435 476.152C535.62 474.274 534.83 473.007 532.86 472.197C528.555 470.423 513.19 470.838 509.095 472.879C507.275 473.788 505.795 475.308 504.785 477.066C503.072 480.052 501.937 483.599 500.825 487.075C500.264 488.825 499.71 490.556 499.091 492.189C496.227 499.741 493.252 507.258 490.279 514.771C489.516 516.699 488.753 518.627 487.991 520.555C487.431 521.975 486.881 523.416 486.328 524.864C484.534 529.561 482.711 534.336 480.41 538.72C476.91 530.062 473.773 521.223 470.638 512.386C468.37 505.995 466.102 499.604 463.698 493.283C463.163 491.878 462.653 490.433 462.139 488.976C460.67 484.812 459.168 480.553 456.954 476.859C455.673 474.719 454.413 473.344 452.067 472.414C448.259 470.906 443.469 471.039 439.167 471.158ZM631.73 481.269C620.955 472.814 607.705 469.718 594.245 469.722C577.97 470.825 562.43 476.438 551.405 488.983C541.545 500.205 537.22 515.825 538.285 530.575C539.325 544.97 545.33 559.27 556.465 568.73C570.095 580.315 590.02 583.475 607.325 581.9C620.37 580.715 632.165 576.215 640.695 565.95C641.45 565.035 642.145 564.115 642.795 563.13C640.43 559.625 637.54 556.525 634.625 553.465C633.966 552.796 633.311 552.113 632.653 551.428C631.021 549.726 629.376 548.012 627.63 546.465L627.572 546.511C616.823 555.097 610.808 559.902 596.06 558.285C588.065 557.405 580.66 554.065 575.565 547.66C572.79 544.165 571.04 540.255 570.04 535.93C584.789 535.091 599.89 535.354 614.77 535.613C617.54 535.661 620.303 535.709 623.055 535.75C625.292 535.782 627.543 535.85 629.799 535.919C634.829 536.071 639.882 536.223 644.86 535.985C646.595 535.9 648.21 535.805 649.735 534.895C652.662 531.121 651.86 524.556 651.291 519.892C651.265 519.681 651.24 519.473 651.215 519.27C649.505 505.15 643.135 490.222 631.73 481.269ZM608.58 496.508C604.292 493.827 599.299 492.492 594.245 492.677C586.785 493.574 580.265 496.039 575.53 502.215C572.435 506.255 570.645 511.105 569.28 515.96L597.625 515.87L620.905 515.885C619.145 507.965 615.72 500.98 608.58 496.508Z" fill="#262941"/>
<path fill-rule="evenodd" clip-rule="evenodd" d="M358.388 469.183C358.355 469.189 358.322 469.194 358.288 469.198C343.23 470.653 329.985 476.415 320.25 488.253C309.918 500.815 306.128 516.29 307.723 532.34C309.159 546.795 315.639 561.23 327.125 570.435C341.554 582.005 360.673 584.51 378.549 582.3C389.02 581.005 403.306 575.62 409.901 566.965C411.111 565.375 412.004 563.41 411.717 561.37C411.235 557.926 406.551 554.147 403.154 551.406C402.423 550.816 401.751 550.275 401.194 549.795C400.926 549.572 400.659 549.347 400.392 549.123C399.084 548.025 397.776 546.927 396.37 545.96C388.181 553.92 378.937 558.415 367.307 558.27C358.876 558.16 350.751 555.03 344.914 548.845C341.308 545.02 339.256 540.525 337.856 535.535L386.055 535.515C388.778 535.524 391.527 535.581 394.285 535.638C400.539 535.768 406.84 535.898 412.991 535.475C413.138 535.465 413.29 535.455 413.447 535.445C415.032 535.343 417.035 535.215 418.237 534.2C420.922 531.934 420.571 526.25 420.361 522.845C420.351 522.688 420.342 522.536 420.333 522.39C419.418 507.115 414.893 493.739 403.224 483.378C390.996 472.521 374.823 467.703 358.593 469.155C358.525 469.162 358.456 469.173 358.388 469.183ZM378.547 496.708C373.8 493.781 368.106 492.907 362.609 493.19C355.191 493.964 348.187 496.001 343.331 502.13C340.06 506.26 338.594 511.055 337.371 516.085L365.75 515.985C368.034 515.981 370.322 515.99 372.61 515.999C378.537 516.022 384.472 516.046 390.382 515.84C388.535 508.145 385.64 501.08 378.547 496.708Z" fill="#262941"/>
<path fill-rule="evenodd" clip-rule="evenodd" d="M814.325 483.468C803.32 473.823 788.94 469.088 774.46 468.708C756.79 469.854 742.205 475.356 730.305 488.856C719.925 500.64 715.94 515.16 717.01 530.665C718.005 545.185 724.19 558.98 735.33 568.49C746.88 578.35 760.15 582.385 775.175 582.295C792.125 581.225 807.09 576.05 818.6 563.015C828.735 551.53 833.45 536.035 832.47 520.83C831.587 506.47 825.065 493.041 814.325 483.468ZM789.055 499.591C782.975 495.612 777.085 495.202 770.1 495.62C762.455 497.123 756.345 500.395 751.87 506.98C746.76 514.51 745.29 524.275 747.055 533.125C748.625 540.985 753.155 548.42 759.945 552.81C765.855 556.635 771.945 557.155 778.74 556.445C786.835 554.8 792.855 551.045 797.405 544.12C802.18 536.865 803.625 527.27 801.84 518.82C800.22 511.17 795.635 503.895 789.055 499.591Z" fill="#262941"/>
<path fill-rule="evenodd" clip-rule="evenodd" d="M211.685 435.359C206.245 435.305 200.78 435.252 195.387 435.545C195.338 435.571 195.291 435.596 195.243 435.622C193.369 436.613 191.807 437.439 190.974 439.515C190.52 440.647 190.61 556.835 190.994 568.18C191.004 568.467 191.012 568.777 191.02 569.103C191.09 571.762 191.189 575.532 192.451 577.505C193.809 579.635 196.226 580.77 198.642 581.185C203.935 582.105 215.664 582.405 219.856 579.08C221.671 577.635 222.56 575.45 222.775 573.195C223.11 569.675 223.048 566.019 222.988 562.413C222.964 560.999 222.94 559.592 222.941 558.205C222.941 555.048 222.927 551.889 222.912 548.729C222.878 541.104 222.843 533.474 223.018 525.86C223.977 525.827 224.94 525.777 225.901 525.726C232.166 525.395 238.378 525.067 243.309 529.805C248.591 534.88 257.52 550.949 263.393 561.517C264.735 563.933 265.918 566.061 266.861 567.705C267.299 568.469 267.731 569.247 268.165 570.029C270.131 573.573 272.145 577.203 275.052 580C276.453 580.73 277.8 581.35 279.37 581.625C283.337 582.31 301.424 582.675 304.858 581.57C306.151 581.155 306.527 580.74 307.129 579.565C306.02 571.095 276.199 525.75 269.273 518.5C280.454 512.33 290.278 504.63 293.965 491.883C297.142 480.901 295.627 468.074 289.964 458.147C283.964 447.63 272.784 441.102 261.341 438.011C250.059 434.962 238.007 435.143 226.242 435.319C223.644 435.358 221.059 435.396 218.499 435.4C216.236 435.403 213.963 435.381 211.685 435.359ZM235.856 460.769C232.22 460.719 228.582 460.712 224.945 460.746L223.619 461.004C222.223 463.521 222.702 486.335 222.925 496.967C222.967 498.983 223.001 500.561 223.01 501.48C224.642 501.5 226.321 501.555 228.027 501.61C237.62 501.922 248.087 502.263 256.024 496.713C260.348 492.65 262.688 488.331 262.956 482.276C263.189 476.998 261.931 471.614 258.275 467.647C252.548 461.432 243.741 460.894 235.856 460.769Z" fill="#262941"/>
<path d="M668.14 612.1C669.295 612.16 670.465 612.32 671.45 612.965C673.155 614.075 674.03 615.865 674.34 617.83C675.67 626.285 671.25 638.28 666.425 645.095C667.12 649.41 669.12 652.975 670.12 657.14C671.485 662.81 666.695 660.65 664.735 663.895C665.09 664.6 665.255 665.06 665.45 665.85C662.16 668.245 663.59 673.38 659.825 675.535C656.79 677.275 652.99 676.17 649.77 675.565C648.41 688.545 654.24 692 655.32 703.1C656.93 719.64 654.32 736.285 654.55 752.85C657.035 754.35 659.19 756.18 661.405 758.04C669.63 752.635 678.275 747.685 686.66 742.53C693.32 738.435 700.45 733.21 707.71 730.325C712.01 734.265 733.645 768.325 735.28 773.88C734.69 775.65 732.445 777.065 730.915 778.16C725.675 781.905 719.905 784.985 714.425 788.385L683.13 808.06C674.535 813.415 665.62 818.615 657.43 824.565C659.17 830.745 662.175 836.74 664.32 842.815C668.34 854.18 671.31 866.47 673.06 878.4C676.545 902.17 672.86 936.49 681.125 958.195L685.445 960.225C686.14 962.595 687.005 965.065 687.375 967.51C687.685 969.545 687.46 970.865 686.255 972.55C685.59 973.485 685.18 974.115 684.9 975.26C687.345 985.35 706.51 981.55 713.215 987.345C714.535 988.485 715.395 989.98 715.49 991.745C715.605 994.06 714.68 996.505 713.11 998.2C707.725 1004.03 674.015 1010.78 665.425 1010.64C662.715 1010.59 660.08 1009.82 658.225 1007.75C653.395 1002.38 654.96 990.225 655.09 983.42C653.815 982.735 652.015 981.96 651.095 980.825C648.71 977.86 648.875 969.57 649.265 965.925C649.43 964.395 650.04 964.28 651.18 963.395C650.535 953.47 648.145 943.375 646.83 933.495C645.125 920.675 644.74 907.055 641.37 894.56C640.15 890.04 637.78 885.975 635.44 881.965C629.74 872.995 624.115 864.135 619.325 854.64C608.44 869.39 599.115 885.45 588.68 900.55C583.315 908.305 577.485 915.685 571.92 923.29C564.071 934.155 556.372 945.128 548.825 956.205C549.345 956.47 550.235 956.85 550.69 957.255C551.345 957.845 551.695 958.285 551.78 959.155C552.275 964.145 546.045 970.275 543.075 973.925C540.93 973.975 538.595 973.785 536.605 974.675C536.075 975.235 535.62 975.73 535.38 976.49C532.22 986.64 548.92 988.875 552.14 995.785C552.73 997.05 552.69 998.37 552.18 999.655C551.115 1002.33 548.525 1004.55 545.85 1005.52C535.505 1009.26 520.45 999.755 511.325 995.15C507.405 993.17 496.465 988.705 495.694 984.01C494.838 978.795 505.63 966.035 508.68 962.005C508.573 961.331 508.499 960.652 508.46 959.97C508.205 955.565 511.37 946.095 514.285 942.84C515.105 942.65 516.34 942.46 517.04 941.995C518.775 940.835 526.745 926.395 528.41 923.64C536.255 910.615 545.03 897.225 550.285 882.88C552.78 876.055 557.02 852.82 557.44 845.275C557.64 841.66 556.795 838.11 557.16 834.48C558.175 824.445 560.435 814.36 561.98 804.38C561.2 803.375 560.315 802.335 559.94 801.09C559.515 799.71 560.105 797.45 560.385 796.03C562.48 785.38 565.29 774.85 567.47 764.21C569.805 752.815 571.5 741.295 574.005 729.935C575.875 721.44 577.83 712.855 580.41 704.54C583.155 695.7 587.15 686.825 591.86 678.86C596.735 670.615 604.925 663.505 614.325 661.135C613.345 658.4 612.36 655.66 611.655 652.845C609.475 644.075 610.225 634.935 615.08 627.155C620.065 619.155 629.355 614.24 638.75 614.2C643.85 614.18 648.965 615.035 654.065 614.86C658.865 614.69 663.47 613.1 668.14 612.1Z" fill="#262941"/>
<path d="M658.84 765.95C659.465 766.645 660.325 767.49 660.54 768.425C660.815 769.625 660.155 771.195 659.485 772.185C657.395 775.265 654.05 776.605 650.57 777.305C649.965 777.175 649.51 776.94 648.955 776.68C649.61 774.76 656.85 768.57 658.84 765.95ZM676.78 965.08C677.64 965.105 678.055 964.875 678.67 965.57C679.805 966.86 680.025 968.565 679.995 970.225C678.75 971.515 676.94 971.965 675.245 972.385C672.11 973.155 661.42 975.825 658.915 974.315L660.615 973.655C662.8 973.02 665.195 972.2 667.02 970.81C667.825 970.2 667.655 970.545 667.77 969.775C665.745 968.8 661.65 969.17 659.23 968.655L658.59 968.51C664.705 967.53 670.755 966.525 676.78 965.08ZM519.655 950.68C527.11 953.64 533.92 957.82 541.565 960.435C540.575 962.21 539.335 963.87 538.185 965.55C530.325 964.725 523.465 961.205 516.425 957.89C517.29 955.385 518.485 953.055 519.655 950.68ZM665.54 617.58L665.905 617.89L665.885 618.68C657.515 627.035 645.795 624.24 635.225 624.655C631.51 624.8 628.195 625.47 624.605 626.42C624.705 626.18 624.795 625.935 624.9 625.7C629.585 615.06 646.78 619.935 655.595 619.69C659.225 619.585 662.17 618.83 665.54 617.58ZM672.825 772.515C676.615 773.975 691.605 779.71 692.965 782.525L692.29 783.015C689.405 783.205 687.355 781.3 684.77 780.315C683.54 779.845 682.87 779.82 681.695 780.34C681.445 782.32 689.38 786.645 690.815 788.9C689.13 788.885 687.535 788.545 685.82 788.61L685.395 789.29C685.8 789.965 686.235 790.585 686.69 791.225C685.48 792.21 682.48 791.095 680.74 791.02C680.08 792.145 682.035 792.73 682.005 794.22C680.84 794.595 680.485 794.61 679.305 794.205C675.41 792.865 670.03 786.24 668.28 782.59C669.93 779.285 671.385 775.915 672.825 772.515ZM570.73 806.165C578.48 807.44 585.645 809.52 593.585 809.505C588.96 813.935 583.455 817.705 578.365 821.58C574.28 824.86 570.64 828.705 566.27 831.615C567.23 823.495 568.23 813.945 570.73 806.165ZM671.72 982.6C680.105 982.135 683.945 986.77 691.345 988.81C695.705 990.01 700.43 990.305 704.89 991.135C700.655 993.185 696.42 994.34 691.875 995.47C684.05 996.92 672.17 1000.08 664.595 996.8C663.46 996.31 662.34 995.51 661.96 994.27C661.45 992.63 662.12 990.905 662.88 989.46C665.005 985.415 667.45 983.955 671.72 982.6ZM515.28 968.855C519.56 969.855 524.03 972.95 527.835 975.155C527.976 976.108 528.126 977.06 528.285 978.01C529.83 987.21 536.275 990.715 543.275 995.735C539.91 995.705 536.63 995.645 533.37 994.735C528.25 993.015 506.87 983.28 504.58 979.195C505.52 975.345 512.06 970.97 515.28 968.855ZM654.615 781.33C655.76 781.355 656.07 781.425 657.005 782.23C664.48 788.66 668.765 797.77 678.115 802.245C674.27 804.54 670.55 807.065 666.795 809.5L656.56 816.39C656.61 805.255 653.43 794.495 650.425 783.88L654.615 781.33ZM665.555 634.615L665.9 635.23C664.94 638.195 663.31 640.92 661.855 643.665C662.425 648.845 663.575 653.455 665.2 658.415C663.575 658.68 661.99 659.025 660.385 659.395C660.435 659.605 660.45 659.82 660.525 660.02C661.035 661.315 661.425 661.775 661.43 663.24C660.72 663.995 660.135 664.715 659.57 665.58C659.65 668.345 659.385 669.81 657.91 672.165C647.465 671.44 648.285 668.295 640.365 665.925C637.485 665.065 635.085 666.825 631.935 665.76C630.01 665.04 628.11 664.625 626.745 662.99L626.995 661.88C628.93 660.205 631.625 659.58 633.985 658.665C644.805 654.46 637.015 651.815 640.95 644.39C641.6 643.16 642.25 642.92 643.505 642.45C647.43 643.01 647.945 647.335 651.33 649.13C652.27 649.63 652.32 649.39 653.27 649.11C654.61 646.01 653.905 642.64 653.345 639.44C657.765 638.385 661.565 636.77 665.555 634.615ZM704.97 739.88C706.89 740.915 723.77 768.31 726.615 772.63C722.52 774.74 713.02 781.65 709.19 782.585C709.015 781.43 708.82 780.86 708.13 779.91C705.7 778.86 702.335 779.61 699.72 779.855L695.285 777.235C690.295 774.18 684.605 772.215 679.315 769.75C674.92 767.7 670.815 765.21 666.625 762.78C679.69 757.06 692.795 747.505 704.97 739.88ZM602.9 813.015C606.765 812.57 611.025 813.765 614.8 814.505C612.6 815.26 610.05 815.95 608.105 817.23C599.575 822.85 591.485 836.275 587.02 845.34C596.605 839.75 604.025 830.35 612.115 822.84C615.28 819.9 618.8 817.37 622.295 814.835C618.27 823.78 612.14 831.565 607.265 840.04C599.23 854 592.2 868.455 583.61 882.1C576.88 892.79 568.9 902.64 561.5 912.87C556.555 920.165 551.12 927.155 545.875 934.24C541.605 940.005 537.51 946.22 532.555 951.425C529.64 950.415 526.85 949.185 524.035 947.93C533.93 930.8 544.775 914.445 553.515 896.66C555.805 892.005 558.43 887.255 559.865 882.25C562.42 873.345 563.53 863.08 564.86 853.905C565.485 849.575 565.655 844.32 567.355 840.31C571.355 830.865 593.495 816.63 602.9 813.015Z" fill="#FEFEFE"/>
<path d="M578.295 869.43C578.895 874.57 551.505 911.275 546.6 918.09C546.31 904.97 569.115 879.24 578.295 869.43Z" fill="#262941"/>
<path d="M623.32 671.215C624.365 671.105 625.54 671.13 626.58 671.28C628.865 671.61 630.955 673.155 632.205 675.055C640.145 687.13 631.845 718.59 628.615 732.38C628.195 718.46 628.845 703.725 625.385 690.185C623.11 704.785 623.365 715.17 625.215 729.725C619.6 728.24 615.145 727.8 609.335 728.125C626.265 733.41 641.855 749.005 653.545 762.01C650.96 766.235 648.025 769.35 644.335 772.63C634.435 766.06 612.475 749.785 605.545 740.975C603.68 738.61 601.845 735.79 601.52 732.725C600.76 725.6 603.215 717.15 604.03 710.005C605.25 699.315 605.95 688.55 607.15 677.845C601.45 684.41 598.97 690.59 597.505 699.115C595.785 708.61 593.82 719.105 593.48 728.72C593.035 741.255 602.23 749.09 610.125 757.455C603.725 767.16 595.545 774.835 588.085 783.615C596.175 780.78 602.59 775.835 608.205 769.4C610.055 767.28 611.835 764.645 613.885 762.75C614.765 761.935 615.02 761.99 616.12 762.07L616.795 763.215C617.34 768.455 613.93 776.17 611.785 780.83C607.4 790.35 600.73 798.88 590.62 802.555C583.26 801.105 575.911 799.595 568.575 798.025C577.255 766.35 583.74 703.025 603.29 679.605C608.59 673.26 615.51 671.91 623.32 671.215Z" fill="#FEFEFE"/>
<path d="M580.67 34.6825C585.31 34.5045 590.125 35.0145 594.555 36.444C603.67 39.3855 611.27 46.419 615.495 54.9405C621.37 66.7735 620.135 78.181 616.03 90.301C625.92 98.621 636.805 105.937 647.315 113.457C657.7 120.889 667.89 128.602 678.23 136.103C680.255 134.328 682.1 132.779 684.74 131.975C694.61 128.966 698.08 144.85 703.205 150.397C705.975 153.396 710.29 155.037 713.86 156.945C722.415 155.772 730.85 153.699 739.41 152.449C741.89 149.715 744.84 147.315 746.535 143.964C750.875 135.397 750.715 111.211 747.855 102.049C733.7 108.041 737.525 99.7885 728.705 98.9245C727.285 98.7855 726.025 98.6545 725.15 97.367C723.955 95.608 723.67 92.688 722.925 90.653C721.695 87.2855 718.205 79.7715 715.27 77.8115C715.685 79.645 716.925 81.4715 716.95 83.326C716.96 84.1175 716.615 84.1725 716.085 84.6615C715.475 84.698 715.435 84.7305 714.73 84.598C713.145 84.2985 711.33 83.056 710.05 82.1345C702.64 76.8 709.255 72.3795 707.185 68.36C706.78 67.5755 704.42 67.367 703.55 66.0195L703.78 65.0275C711.705 56.802 715.53 45.625 725.635 39.4655C732.285 35.413 740.75 34.2485 748.28 36.188C753.21 37.458 757.005 39.6845 759.555 44.1385C761.545 47.611 764.745 49.1975 766.295 52.853C769.94 61.474 767.515 70.5045 773.91 78.1685L774.38 78.726C779.64 77.7235 784.705 76.895 790.075 77.3225C797.52 77.9155 805.545 80.0485 811.19 85.16C819.1 92.323 826.465 107.996 832.335 117.403C837.602 125.703 843.483 133.597 849.93 141.018C854.615 146.326 859.73 151.37 865.47 155.543C869.815 158.704 880.665 164.266 883.36 167.702C884.24 168.825 884.53 170.032 884.355 171.44C883.135 181.295 864.44 198.463 856.615 204.322C857.68 206.696 858.565 208.901 859.015 211.485C860.23 218.484 859.695 226.107 859.625 233.2L859.25 266.597C859.145 276.548 858.775 287.143 860.34 296.986C861.28 302.888 863.515 308.38 865.315 314.052C867.546 321.156 869.618 328.309 871.53 335.506C873.98 344.794 876.242 354.13 878.315 363.51C879.725 370.046 880.78 376.767 882.57 383.209C884.015 388.416 888.425 391.679 889.27 397.327C889.91 401.598 889.435 404.215 887.195 407.764C887.035 408.021 886.775 408.253 886.745 408.555C886.73 408.71 888.74 411.306 888.965 411.6C891.56 414.965 893.25 417.927 893.945 422.233C894.295 424.381 894.695 430.77 893.125 432.4C889.915 435.731 873.635 435.364 868.635 435.462C874.09 451.23 880.315 466.749 886.215 482.353C892.035 497.758 897.57 513.325 903.865 528.545C909.835 529.18 915.16 530.175 920.1 533.83C922.675 535.745 924.834 538.162 926.447 540.935C928.06 543.709 929.094 546.781 929.485 549.965C930.365 556.765 928.7 563.83 924.315 569.175C919.1 575.53 912.055 577.7 904.205 578.455C897.25 605.165 891.305 632.16 884.375 658.89C887.674 660.18 890.664 662.151 893.15 664.675C895.374 666.92 897.122 669.591 898.29 672.527C899.458 675.464 900.02 678.606 899.945 681.765C899.845 688.66 897.17 695.125 892.045 699.8C886.235 705.095 879.38 706.48 871.78 706.165C865.475 729.82 858.555 753.365 851.985 776.955C846.82 795.53 842.155 814.185 836.165 832.52C844.77 837.69 852.02 845.595 854.64 855.46C857.185 865.04 855.87 875.835 850.82 884.38C845.825 892.85 837.07 899.41 827.53 901.805C818.104 904.154 808.13 902.677 799.79 897.695C789.085 891.205 784.385 881.85 781.43 870.08C763.475 870.26 745.535 869.985 727.58 870.08C718.835 870.125 705.84 871.16 697.78 869.91C696.465 869.705 696.45 869.615 695.695 868.59C695.7 867.12 695.62 867.05 696.535 865.925C698.035 865.285 699.34 865.06 700.965 864.96C709.015 864.45 717.61 865.165 725.71 865.16L781.36 864.885C781.76 862.485 782.155 860.07 782.665 857.69C784.74 848.08 790.975 839.525 799.28 834.315C809.8 827.715 819.715 827.85 831.45 830.485C835.475 818.515 838.48 805.96 841.86 793.785C850.075 764.185 857.78 734.395 866.56 704.965C863.835 703.38 861.1 701.67 858.825 699.465C856.419 697.163 854.501 694.4 853.185 691.341C851.869 688.282 851.182 684.99 851.165 681.66C851.165 678.414 851.817 675.202 853.082 672.213C854.347 669.224 856.2 666.52 858.53 664.26C864.46 658.45 871.14 657.25 879.085 657.485C884.865 630.695 893.765 604.48 898.76 577.5C897.115 576.9 895.485 576.185 893.91 575.43C888.35 572.755 884.055 567.565 882.115 561.755C879.955 555.29 880.565 547.705 883.76 541.68C886.82 535.92 891.72 532.045 897.925 530.175C895.54 519.835 887.96 502.52 883.985 492.016C876.99 473.547 870.615 454.616 863.02 436.398C856.21 436.64 845.54 438.236 839.45 435.013C837.73 434.102 836.325 432.686 835.885 430.741C835.17 427.552 836.655 424.276 838.28 421.635C825.96 414.707 813.135 408.361 800.54 401.922C790.81 396.947 781.065 391.619 771.105 387.137C764.935 384.363 758.29 384.133 751.97 382.004C743.835 379.268 729.915 369.542 722.42 364.506C721.22 357.18 721.165 349.34 720.745 341.914L718.54 302.709L711.305 186.703C706.435 186.788 703.075 186.023 699.26 182.801C691.83 184.197 684.615 187.466 677.585 190.182L649.57 201.022C610.09 216.3 570.815 232.426 531.04 246.886C531.515 249.217 531.865 251.636 531.975 254.016C532.143 257.233 531.673 260.451 530.591 263.484C529.51 266.518 527.839 269.308 525.675 271.693C523.393 274.165 520.627 276.141 517.548 277.498C514.469 278.854 511.144 279.562 507.78 279.577C498.904 279.672 492.361 275.546 486.275 269.576C474.297 275.766 461.13 280.358 448.74 285.713C423.66 296.735 398.45 307.457 373.115 317.877C370.105 328.202 365.733 338.454 362.236 348.659C358.107 360.707 353.63 372.616 349.423 384.633C345.601 395.551 342.105 406.641 337.953 417.43C337.438 418.769 336.746 419.553 335.544 420.338C334.252 420.3 334.494 420.221 333.641 419.382C332.87 417.173 332.982 415.517 333.569 413.253C334.283 410.502 335.623 407.961 336.621 405.308C338.195 401.123 339.598 396.851 341.009 392.608C349.746 367.061 358.72 341.596 367.928 316.215C357.016 305.414 346.851 293.55 336.486 282.216L284.562 225.262C270.737 209.9 255.314 195.537 242.196 179.595C236.469 181.889 231.628 182.344 225.525 181.972C213.649 212.102 202.983 242.824 191.699 273.192L119.662 465.31C111.447 486.854 103.755 508.565 95.037 529.92C97.146 530.975 99.351 532.065 101.228 533.5C103.883 535.523 106.092 538.072 107.715 540.989C109.338 543.906 110.34 547.127 110.659 550.45C111.417 558.19 108.73 564.59 103.866 570.415C102.058 572.115 100.11 573.455 98.0625 574.84C106.601 599.255 113.978 624.215 121.893 648.845L165.617 784.19C172.573 783.68 177.788 784.29 184.383 786.585C187.526 776.285 191.314 766.13 194.751 755.92C203.963 728.284 213.418 700.73 223.114 673.26C226.653 662.953 230.134 652.626 233.557 642.28C235.126 637.57 236.463 631.59 238.814 627.26C239.49 626.02 239.989 625.805 241.309 625.435C242.065 625.71 242.7 625.705 243.098 626.47C243.975 628.145 243.359 630.325 242.877 632.04C241.98 635.225 240.562 638.275 239.516 641.42C235.904 652.28 231.858 662.965 228.232 673.81L189.283 788.01C192.372 790.175 195.405 792.335 198.294 794.765C204.043 788.69 211.542 783.485 218.195 778.455C225.13 773.212 231.997 767.882 238.796 762.465C267.378 739.651 296.191 717.128 325.231 694.9C324.984 693.433 324.824 691.952 324.753 690.465C324.382 682.145 327.737 675.885 333.185 669.885C327.976 665.01 323.355 659.375 318.578 654.075C312.277 647.09 305.764 640.2 299.681 633.025C298.053 631.105 296.858 629.93 297.078 627.28C297.983 626.185 298.202 626.06 299.537 625.56C302.768 626.58 330.653 660.595 337.569 666.53C337.737 666.675 337.909 666.815 338.078 666.955C342.382 665.275 346.449 664.12 351.149 664.425C354.333 664.619 357.448 665.44 360.315 666.84C363.181 668.241 365.744 670.193 367.854 672.585C370.009 675.115 371.627 678.056 372.61 681.23C373.594 684.404 373.922 687.745 373.576 691.05C372.779 698.965 368.656 704.125 362.846 709.055C365.097 716.65 368.379 723.905 371.305 731.255C376.495 744.395 381.772 757.5 387.135 770.57L435.141 888.305C457.7 886.56 480.458 883.03 502.91 880.12C511.595 878.995 521.56 876.86 530.245 876.69C531.63 876.665 532.115 877.08 533.13 877.95C533.56 879.355 533.655 879.42 533.145 880.78C530.41 883.25 503.795 885.53 498.629 886.16L457.514 891.345C449.721 892.345 440.786 894.43 432.999 893.725C426.076 893.105 418.612 890.315 411.899 888.48L372.909 877.82C326.059 864.892 279.141 852.214 232.156 839.785C226.637 838.365 210.405 832.68 206.173 833.09C205.508 834.31 205.12 834.605 205.354 836.005C214.763 844.265 226.123 850.925 236.27 858.31C250.003 868.304 263.84 878.153 277.78 887.855C285.292 893.1 292.746 898.825 300.694 903.36C302.278 902.47 303.873 901.55 305.529 900.8C312.022 897.865 319.332 897.225 326.055 899.895C332.128 902.305 336.515 907.285 338.862 913.295C341.187 919.255 340.717 925.79 338.082 931.565C335.402 937.44 330.659 942.185 324.523 944.345C321.5 945.407 318.295 945.853 315.097 945.657C311.899 945.461 308.772 944.628 305.901 943.205C303.054 941.837 300.518 939.9 298.448 937.515C296.378 935.13 294.817 932.346 293.863 929.335C291.419 921.55 293.324 914.705 297.051 907.825C291.63 903.605 285.582 899.945 279.934 896.015L243.934 870.805C229.995 861.11 216.649 850.4 202.32 841.295C198.326 847.685 191.836 852.755 184.842 855.47C175.272 859.073 164.672 858.786 155.311 854.67C146.469 850.75 139.833 843.86 136.373 834.815C132.845 825.585 133.098 814.735 137.224 805.74C141.928 795.485 150.253 789.33 160.623 785.57C137.616 715.982 115.111 646.228 93.111 576.315C91.4145 576.63 89.676 576.99 87.951 577.095C81.447 577.48 74.5885 575.3 69.777 570.865C64.992 566.45 62.34 560.275 62.138 553.795C62.0413 550.411 62.6288 547.043 63.8652 543.891C65.1016 540.74 66.9616 537.87 69.3335 535.455C75.0795 529.65 82.036 528.53 89.7875 528.475C98.4955 507.92 105.828 486.789 113.749 465.927L159.817 343.426L202.115 229.712C208.095 213.367 214.598 197.129 219.998 180.586C216.388 178.982 213.283 177.424 210.355 174.684C205.081 169.751 202.284 162.964 202.141 155.792C201.996 148.478 204.593 141.278 209.766 136.03C215.147 130.661 222.414 127.611 230.014 127.531C233.67 127.479 237.298 128.175 240.676 129.575C244.053 130.976 247.109 133.051 249.655 135.675C255.582 141.821 257.522 149.444 257.378 157.709C270.599 158.752 283.829 160.424 297.01 161.919C303.27 162.629 313.78 164.916 319.581 163.941C327.497 162.611 342.18 155.517 350.417 152.298L436.118 118.36C464.479 107.537 492.762 96.5124 520.965 85.2875C529.14 82.023 540.35 79.1275 547.605 74.3645C540.445 74.033 533.075 74.8415 525.92 75.299C514.588 76.0468 503.251 76.728 491.911 77.3425L373.487 83.552C373.524 87.2525 373.242 90.684 372.091 94.234C370.927 97.8104 369.057 101.117 366.592 103.958C364.127 106.798 361.117 109.115 357.74 110.772C350.763 114.264 342.794 114.973 335.357 112.484C331.766 111.257 328.453 109.333 325.607 106.822C322.762 104.311 320.44 101.263 318.776 97.852C315.523 91.0635 315.44 83.392 317.98 76.3635C320.297 69.952 325.649 63.0605 331.953 60.2855C339.668 56.8895 348.105 56.118 356.02 59.3965C364.764 63.018 369.342 69.6225 372.811 78.0475C394.047 77.5335 415.398 75.787 436.625 74.6615C472.803 72.9522 508.964 70.8738 545.1 68.4265C546.685 60.8625 549.09 53.9575 554.03 47.901C560.98 39.38 569.93 35.7285 580.67 34.6825Z" fill="#262941"/>
<path d="M685.07 137.665C685.48 137.742 685.915 137.804 686.3 137.98C687.515 138.531 687.85 138.895 688.4 140.018C687.87 141.675 687.365 141.829 686.015 142.861C685.22 142.95 684.8 142.974 684.025 142.698C683.235 142.416 683.33 142.213 682.98 141.513C683.275 139.764 683.92 138.986 685.07 137.665ZM756.02 354.333C758.38 355.274 760.49 356.668 763 357.234C764.555 357.585 766.12 357.353 767.67 357.717L767.325 358.534C766.84 358.811 766.35 359.086 765.845 359.327C764.185 360.117 762.18 360.23 760.46 359.53C758.105 358.572 756.98 356.546 756.02 354.333ZM689.615 145.048C690.025 145.176 690.545 145.296 690.92 145.542C692.99 146.906 699.395 156.323 699.69 158.724L697.95 160.345C697.705 160.284 697.04 160.135 696.795 160.009C694.555 158.851 688.85 149.463 687.66 146.789L689.615 145.048ZM876.675 393.012L877.57 393.205L877.67 393.877C876.545 394.597 875.355 395.295 874.365 396.191C873.51 396.966 873.34 396.959 873.27 398.156C875.92 399.523 878.83 397.062 881.44 397.026C881.61 397.023 881.78 397.054 881.95 397.068C877.05 400.227 872.77 401.484 867.13 402.874L864.835 403.468C863.26 401.357 861.695 401.79 859.33 401.3C859.525 400.975 859.735 400.656 859.91 400.318C860.145 399.862 860.33 399.38 860.595 398.94C862.435 395.856 873.11 393.977 876.675 393.012ZM706.205 161.469C707.265 161.443 708.09 161.5 709.12 161.762C711.12 164.536 710.035 171.829 710.05 175.286C707.84 175.57 705.74 176.044 703.74 174.808C703.555 173.283 704.19 172.767 704.975 171.481L704.515 171.192L702.165 172.081L701.61 172.273C700.735 171.305 700.69 171.372 700.695 170.079C702.27 168.115 704.775 167.371 706.7 165.797C706.92 165.617 707.135 165.43 707.355 165.247C705.99 165.76 704.705 166.489 703.315 166.952C702.205 167.323 701.015 167.496 699.945 166.952L700.045 165.943C701.63 163.699 703.845 162.727 706.205 161.469ZM757.91 331.899C763.045 337.026 771.42 337.763 773.82 341.331C773.78 343.085 773.07 343.596 772.04 344.978C766.95 347.442 763.96 347.502 758.55 346.316C758.05 341.48 757.935 336.753 757.91 331.899ZM737.14 41.133C742.235 40.8465 746.64 41.943 751.49 43.33C738.345 43.941 728.645 50.0975 719.025 58.6665C716.22 60.996 713.37 63.0525 710.305 65.031C712.1 61.7025 714.19 58.4865 716.355 55.3885C721.61 47.861 727.865 42.7385 737.14 41.133ZM732.99 358.72C738.315 357.928 744.935 358.153 750.205 359.363C759.335 361.458 762.035 365.049 771.485 360.999C770.455 362.743 769.295 364.38 768.13 366.034C766.68 367.981 765 369.728 763.355 371.511C755.85 370.029 737.945 364.514 732.99 358.72ZM880.33 413.243C880.815 413.151 881.515 413.351 882.01 413.427C883.11 414.325 883.61 415.094 884.315 416.292C884.25 417.718 884.13 418.405 883.19 419.524C877.495 426.299 859.185 428.652 850.9 428.875C847.37 428.97 844.49 429.147 841.79 426.597C842.665 425.197 843.305 424.352 844.89 423.814C846.01 424.144 846.975 424.385 848.145 424.484C849.895 422.995 851.49 421.955 853.58 420.998C854.115 421.513 854.655 422.066 855.23 422.535C856.17 423.296 856.475 423.591 857.74 423.453C858.41 421.791 856.375 421.156 856.795 419.28C858.255 418.67 859.44 418.296 861.035 418.212C862.04 418.158 862.625 418.177 863.51 417.633C863.935 416.754 864.4 415.48 865.025 414.746C866.24 413.318 877.69 413.567 880.33 413.243ZM719.785 73.028C722.865 74.564 725.935 76.092 729.2 77.1945C731.45 77.9535 739.645 80.38 741.14 78.041C741.96 76.752 741.7 75.3675 743.19 74.629C744.525 76.496 745.875 78.677 747.51 80.302C750.185 82.968 759.51 84.41 763.185 83.877C764.74 83.651 765.61 82.514 767.205 82.538C768.245 83.4405 768.305 83.5665 768.675 84.899C765.925 88.0905 761.385 90.1115 758.23 93.081L757.725 93.562C756.205 95.4905 754.435 97.2525 752.755 99.0485C753.02 97.4035 753.315 95.73 753.31 94.06C753.305 92.0515 753.285 89.538 751.805 88.094C751.785 88.18 751.755 88.264 751.74 88.351C751.735 88.3835 751.745 88.417 751.75 88.4495C750.355 89.2365 749.285 92.6845 748.325 94.2415C746.74 96.816 744.165 99.697 741.015 100.241C736.92 100.946 736.77 97.445 734.04 95.5565C732.005 94.148 730.075 94.7775 727.805 95.151C727.62 92.5725 727.615 89.968 727.545 87.3835C724.195 82.922 720.91 78.6245 719.785 73.028ZM316.177 903.165C319.958 903.08 323.523 903.965 326.723 906.01C330.793 908.62 333.581 912.965 334.548 917.67C335.048 920.08 335.063 922.566 334.594 924.982C334.124 927.398 333.179 929.697 331.814 931.745C328.411 936.905 323.89 938.97 318.07 940.155C313.532 940.12 309.596 939.515 305.777 936.82C303.808 935.403 302.144 933.605 300.883 931.532C299.622 929.46 298.79 927.155 298.436 924.755C298.047 922.168 298.199 919.528 298.884 917.003C299.568 914.477 300.769 912.122 302.411 910.085C306.015 905.645 310.681 903.845 316.177 903.165ZM874.53 662.68C879.145 662.74 883.51 663.73 887.21 666.645C891.365 669.92 893.905 674.905 894.425 680.14C894.915 685.085 893.52 689.97 890.345 693.81C886.74 698.165 882.035 700.15 876.535 700.76C872.545 700.925 868.21 699.92 864.87 697.69C860.49 694.77 857.74 689.865 856.96 684.72C856.578 682.123 856.732 679.475 857.411 676.939C858.09 674.404 859.281 672.034 860.91 669.975C864.455 665.46 868.975 663.43 874.53 662.68ZM348.174 669.63C351.739 669.5 355.52 670.305 358.656 672.03C360.903 673.285 362.865 674.992 364.418 677.044C365.971 679.095 367.081 681.447 367.679 683.95C368.307 686.533 368.404 689.217 367.965 691.839C367.526 694.461 366.56 696.967 365.125 699.205C362.01 704.055 357.475 706.61 351.936 707.735C347.067 707.65 342.924 707.105 338.728 704.33C334.642 701.63 331.619 697.425 330.661 692.595C330.164 690.029 330.186 687.39 330.727 684.834C331.267 682.277 332.316 679.855 333.809 677.71C337.369 672.69 342.329 670.62 348.174 669.63ZM82.7975 534.11C86.231 533.785 89.3545 533.945 92.636 535.125C97.65 536.93 101.804 540.61 103.93 545.525C104.956 547.942 105.474 550.544 105.449 553.17C105.425 555.795 104.86 558.388 103.789 560.785C100.981 567.08 96.151 569.69 89.9985 571.915C86.0355 572.405 82.4625 572.125 78.772 570.48C76.3452 569.397 74.1696 567.821 72.3829 565.854C70.5961 563.886 69.237 561.57 68.3915 559.05C67.5836 556.589 67.2804 553.991 67.5 551.41C67.7196 548.829 68.4575 546.319 69.6695 544.03C72.5625 538.605 77.1355 535.895 82.7975 534.11ZM902.395 534.03C906.04 533.815 909.74 534.38 913.075 535.905C915.449 536.974 917.574 538.526 919.315 540.462C921.056 542.398 922.374 544.676 923.185 547.15C924.003 549.695 924.303 552.379 924.067 555.042C923.831 557.705 923.063 560.294 921.81 562.655C918.87 568.145 914.255 570.9 908.46 572.535C904.56 572.71 901.135 572.48 897.475 570.915C895.066 569.9 892.893 568.397 891.095 566.499C889.297 564.601 887.913 562.351 887.03 559.89C886.153 557.401 885.8 554.757 885.994 552.125C886.187 549.493 886.923 546.929 888.155 544.595C891.14 538.89 896.435 535.83 902.395 534.03ZM504.855 235.605C509.34 235.189 513.505 235.811 517.45 238.091C519.564 239.298 521.418 240.913 522.903 242.841C524.389 244.77 525.477 246.974 526.105 249.326C526.813 252.054 526.952 254.899 526.512 257.683C526.073 260.467 525.064 263.131 523.55 265.508C520.37 270.503 515.825 273.229 510.12 274.449C506.405 274.615 503.25 274.431 499.777 272.957C497.321 271.898 495.108 270.346 493.274 268.399C491.441 266.451 490.026 264.148 489.116 261.633C488.235 259.194 487.872 256.597 488.05 254.01C488.228 251.423 488.944 248.901 490.151 246.606C493.292 240.498 498.52 237.514 504.855 235.605ZM226.564 133.098C231.332 132.488 236.179 133.242 240.436 135.519C245.692 138.33 249.43 143.254 251.001 148.98C251.802 151.808 252.034 154.768 251.683 157.687C251.332 160.606 250.405 163.427 248.955 165.984C245.481 172.035 240.434 175.023 233.934 176.909C228.141 177.696 222.979 177.158 217.93 173.915C215.394 172.304 213.204 170.207 211.486 167.743C209.767 165.28 208.555 162.5 207.92 159.564C206.693 153.698 207.838 147.586 211.105 142.562C214.819 136.947 220.221 134.499 226.564 133.098ZM342.155 62.647C347.04 62.4985 351.624 63.123 355.986 65.509C358.736 67.0189 361.15 69.0721 363.082 71.5438C365.015 74.0155 366.424 76.8542 367.226 79.8875C368.755 85.812 367.797 92.578 364.585 97.8005C360.763 104.014 354.908 106.966 348.021 108.487C342.282 108.645 337.441 108.246 332.41 105.096C329.791 103.44 327.537 101.266 325.786 98.7072C324.036 96.1488 322.827 93.2601 322.232 90.218C321.633 87.0931 321.681 83.8786 322.373 80.773C323.065 77.6674 324.386 74.7365 326.255 72.1615C330.253 66.5845 335.55 63.8265 342.155 62.647ZM783.575 224.967C787.16 225.466 793.17 225.563 795.83 228.124C798.51 230.698 798.125 235.204 798.285 238.617C793.36 239.709 788.45 240.306 783.595 241.781C788.62 244.122 794.335 243.028 799.14 245.282C799.5 246.588 799.35 247.6 798.59 248.76C796.455 252.043 792.965 255 790.205 257.785C784.685 263.349 780.65 268.656 776.91 275.553C774.235 276.95 771.475 278.216 768.76 279.531C767.89 278.03 766.985 276.127 765.69 274.941C764.71 274.045 763.89 273.235 762.55 273.22C763.73 276.329 765.31 279.382 767.1 282.182C769.05 285.236 774.935 291.464 775.335 294.484L774.465 295.01C770.665 294.329 763.685 279.678 760.85 276.189L759.6 276.129C760.09 280.656 761.91 285.286 763.18 289.66C765.65 298.164 771.495 317.861 768.675 325.794C768.085 327.446 767.02 328.837 765.4 329.58C762.81 330.769 760.055 329.613 757.565 328.75C757.225 318.539 753.24 275.356 754.925 269.722C757.575 260.883 777.445 234.04 783.575 224.967ZM776.3 91.1205C778.34 90.9105 780.455 90.815 782.46 91.321C792.59 93.877 800.35 106.082 806.375 113.818C810.005 118.48 813.84 123.074 816.975 128.089C811.305 122.417 805.7 116.797 799.115 112.168C792.615 107.594 776.8 97.7685 768.265 99.7925C766.93 100.109 765.375 100.608 764.57 101.771C767.24 104.267 771.375 104.262 774.71 105.29C782.335 107.637 787.685 116.618 791.065 123.348C785.265 118.07 778.045 113.132 771.035 109.579C773.135 113.695 776.45 117.082 778.19 121.432C780.995 128.463 775.48 137.673 772.78 144.124C769.255 152.208 765.895 160.454 761.64 168.188C756.69 169.767 723.335 175.527 719.81 174.306C718.91 173.993 717.895 171.385 717.575 170.482C716.935 168.685 716.825 167.032 717.76 165.298C718.855 163.271 721.55 162.346 723.63 161.855C732.215 159.831 742.595 159.037 750.34 163.92C751.33 164.544 751.995 164.975 753.17 165.211C754.905 161.839 747.82 155.905 748.975 152.376C751.75 153.092 754.065 156.615 755.845 158.724C754.78 154.773 752.885 149.819 753.15 145.732C753.225 144.566 753.125 144.306 754.02 143.491C756.46 144.681 759.05 147.552 761.28 149.242C759.765 145.149 757.105 141.667 755.57 137.562C757.08 128.595 754.85 115.294 758.745 108.043C762.865 100.38 767.67 93.6775 776.3 91.1205ZM801.415 226.899C809.57 226.388 817.005 225.384 824.86 223.076C828.595 232.533 834.655 239.803 839.15 248.718C842.98 256.31 844.14 264.305 845.305 272.628C845.84 276.457 847.16 280.689 846.805 284.503C841.49 275.351 835.42 266.629 829.44 257.908C825.645 252.382 821.935 246.297 817.315 241.439C822.035 254.632 834.2 271.925 843.265 282.655C850.805 292.629 850.025 299.412 855.795 309.544C849.68 304.706 840.055 294.316 832.87 292.254L832.235 292.71C834.475 301.451 863.48 328.63 860.48 337.381C858.425 336.453 840.26 311.674 836.495 307.707L836.74 308.381C838.88 314.195 842.795 319.69 846.12 324.887C860.855 347.91 870.555 361.22 864.97 390.206C859.115 380.316 854.915 368.837 850.18 358.326C841.435 338.926 833.5 319.295 825.56 299.563C819.055 283.383 811.74 266.834 806.755 250.117C804.475 242.468 802.945 234.722 801.415 226.899ZM816.395 834.19C823.545 833.72 830.135 835.055 836.225 839.005C843.075 843.45 848.225 851.025 849.865 859.015C850.75 863.155 850.802 867.43 850.017 871.59C849.233 875.75 847.627 879.712 845.295 883.245C839.905 891.31 831.685 895.6 822.385 897.495C813.87 897.855 806.685 896.335 799.76 891.195C796.462 888.783 793.68 885.736 791.576 882.234C789.473 878.732 788.09 874.844 787.51 870.8C786.245 862.185 788.8 853.285 794.075 846.4C799.805 838.925 807.205 835.425 816.395 834.19ZM166.756 789.58C174.249 789.015 181.007 789.965 187.568 793.845C194.702 798.065 200.296 805.155 202.277 813.245C203.296 817.35 203.478 821.619 202.811 825.796C202.143 829.973 200.641 833.972 198.393 837.555C193.04 846.055 185.728 850.06 176.133 852.305C168.197 853.155 160.018 851.81 153.188 847.525C149.849 845.388 146.968 842.609 144.712 839.35C142.455 836.091 140.868 832.417 140.042 828.54C138.266 820.25 139.57 811.245 144.23 804.1C149.516 795.995 157.493 791.605 166.756 789.58ZM580.37 40.203C587.125 40.0475 593.26 41.121 599.09 44.714C602.725 46.9913 605.867 49.9748 608.328 53.4879C610.789 57.0009 612.521 60.9722 613.42 65.1665C615.295 73.5945 613.95 82.697 609.18 89.9555C603.69 98.3165 595.92 102.527 586.315 104.47C577.875 104.942 570.285 103.187 563.495 97.966C556.65 92.7035 552.255 84.4105 551.265 75.872C550.27 67.327 552.62 58.032 558.07 51.304C563.735 44.309 571.6 41.105 580.37 40.203Z" fill="#FEFEFE"/>
</svg>
