<svg xmlns="http://www.w3.org/2000/svg" width="1024" height="1024" style="display:block" viewBox="0 0 2048 2048">
    <path fill="#FEFEFE" d="M0 0h2048v2048H0z"/>
    <path fill="#262941" d="M1345.84 873.361c9.47-.148 19.39-1.001 28.84-.418 5.05.311 11.79 1.011 14.4 6.018 5.74 11.021 3.46 44.618 3.52 57.841l.24 107.468c-.01 18.92-1.32 38.78.38 57.56.39 4.24.85 9.61 4.01 12.78 6.61 6.61 20.22 3.54 28.76 3.18 3.28 2.13 6.31 4.68 9.39 7.09-.74 9.56-.76 24.04-5.81 32.31-2.32 3.8-6.18 4.31-10.19 5.38-18.74 5.06-43.69 6.56-61.23-3.13-11.57-6.4-19.05-17.56-22.62-30.09-5.09-17.84-2.87-39.79-2.93-58.3a5532 5532 0 0 1 .29-88.384c.05-30.002-1.74-65.758.24-95.074.19-2.882.82-5.478 2.37-7.945 2.48-3.95 6.04-5.128 10.34-6.286M872.992 942.433c9.771-.093 21.903-1.265 31.142 2.396 4.693 1.86 7.212 4.609 9.775 8.889 5.975 9.972 9.36 22.005 13.486 32.849 11.461 30.123 21.361 61.033 33.426 90.873 6.019-11.47 10.405-24.28 15.162-36.33 7.452-18.88 15.002-37.75 22.199-56.732 3.698-9.751 6.238-21.268 11.388-30.246 2.02-3.516 4.98-6.556 8.62-8.373 8.19-4.082 38.92-4.912 47.53-1.365 3.94 1.621 5.52 4.154 7.15 7.91-.15 11.297-23.96 60.476-29.96 74.286-11.04 26.14-22.78 51.98-33.92 78.08-6.92 16.22-13.388 36.38-22.898 50.94-3.558 5.45-8.373 8.03-14.707 9.23-9.697 1.85-26.651 2.65-34.87-3.63-3.566-2.73-5.789-6.59-7.68-10.59-12.349-26.09-21.891-54.2-32.877-80.96-7.641-18.61-46.038-102.982-46.831-115.142-.174-2.655 1.211-4.692 3.022-6.492 5.375-5.341 13.79-5.333 20.843-5.593M1188.49 939.445c26.92-.008 53.42 6.183 74.97 23.094 22.81 17.905 35.55 47.761 38.97 76.001 1.13 9.37 3.16 23.36-2.96 31.25-3.05 1.82-6.28 2.01-9.75 2.18-14.42.69-29.16-.26-43.61-.47-35.06-.52-71.04-1.63-106.03.36 2 8.65 5.5 16.47 11.05 23.46 10.19 12.81 25 19.49 40.99 21.25 29.55 3.24 41.57-6.41 63.14-23.64 4.9 4.34 9.4 9.34 13.99 14 5.83 6.12 11.61 12.32 16.34 19.33-1.3 1.97-2.69 3.81-4.2 5.64-17.06 20.53-40.65 29.53-66.74 31.9-34.61 3.15-74.46-3.17-101.72-26.34-22.27-18.92-34.28-47.52-36.36-76.31-2.13-29.5 6.52-60.74 26.24-83.184 22.05-25.089 53.13-36.316 85.68-38.521"/>
    <path fill="#FEFEFE" d="M1188.49 985.354a50.6 50.6 0 0 1 28.67 7.661c14.28 8.945 21.13 22.915 24.65 38.755l-46.56-.03-56.69.18c2.73-9.71 6.31-19.41 12.5-27.49 9.47-12.352 22.51-17.282 37.43-19.076"/>
    <path fill="#262941" d="M716.577 938.397c.204-.029.406-.067.61-.086 32.459-2.905 64.806 6.732 89.261 28.445 23.339 20.723 32.389 47.474 34.218 78.024.399 6.66 1.426 18.88-4.191 23.62-2.642 2.23-7.216 2.32-10.493 2.55-17.726 1.22-36.075.14-53.872.08l-96.398.04c2.8 9.98 6.904 18.97 14.116 26.62 11.674 12.37 27.924 18.63 44.786 18.85 23.26.29 41.749-8.7 58.126-24.62 3.386 2.33 6.49 5.04 9.649 7.67 6.292 5.42 19.873 14.78 21.046 23.15.573 4.08-1.213 8.01-3.633 11.19-13.19 17.31-41.761 28.08-62.704 30.67-35.752 4.42-73.989-.59-102.848-23.73-22.971-18.41-35.931-47.28-38.804-76.19-3.19-32.1 4.39-63.05 25.054-88.175 19.47-23.675 45.961-35.198 76.077-38.108"/>
    <path fill="#FEFEFE" d="M725.219 986.38c10.994-.567 22.382 1.181 31.875 7.036 14.186 8.744 19.976 22.874 23.669 38.264-16.383.57-32.867.26-49.263.29l-56.758.2c2.445-10.06 5.377-19.65 11.919-27.91 9.712-12.258 23.721-16.333 38.558-17.88"/>
    <path fill="#262941" d="M1548.92 937.417c28.96.76 57.72 10.23 79.73 29.519a109.07 109.07 0 0 1 36.29 74.724c1.96 30.41-7.47 61.4-27.74 84.37-23.02 26.07-52.95 36.42-86.85 38.56-30.05.18-56.59-7.89-79.69-27.61-22.28-19.02-34.65-46.61-36.64-75.65-2.14-31.01 5.83-60.05 26.59-83.618 23.8-27 52.97-38.004 88.31-40.295"/>
    <path fill="#FEFEFE" d="M1540.2 991.239c13.97-.836 25.75-.016 37.91 7.943 13.16 8.608 22.33 23.158 25.57 38.458 3.57 16.9.68 36.09-8.87 50.6-9.1 13.85-21.14 21.36-37.33 24.65-13.59 1.42-25.77.38-37.59-7.27-13.58-8.78-22.64-23.65-25.78-39.37-3.53-17.7-.59-37.23 9.63-52.29 8.95-13.17 21.17-19.715 36.46-22.721"/>
    <path fill="#262941" d="M390.773 871.091c15.304-.834 30.891-.269 46.225-.291 28.293-.04 58.135-2.222 85.684 5.222 22.886 6.183 45.246 19.237 57.245 40.271 11.326 19.855 14.356 45.509 8.002 67.473-7.374 25.494-27.022 40.894-49.383 53.234 13.852 14.5 73.494 105.19 75.711 122.13-1.204 2.35-1.955 3.18-4.542 4.01-6.867 2.21-43.042 1.48-50.975.11-3.14-.55-5.835-1.79-8.636-3.25-7.097-6.83-11.533-16.14-16.383-24.59-10.135-17.67-34.124-63.33-47.104-75.8-11.373-10.93-26.159-8.38-40.581-7.89-.494 21.54-.151 43.14-.155 64.69-.003 9.85.601 20.18-.331 29.98-.43 4.51-2.208 8.88-5.839 11.77-8.383 6.65-31.842 6.05-42.427 4.21-4.832-.83-9.666-3.1-12.383-7.36-2.832-4.43-2.734-13.39-2.913-18.65-.768-22.69-.949-255.066-.04-257.329 1.709-4.258 4.949-5.887 8.825-7.94"/>
    <path fill="#FEFEFE" d="M449.89 921.492a946 946 0 0 1 21.823.046c15.769.251 33.383 1.326 44.838 13.757 7.31 7.933 9.827 18.701 9.361 29.257-.536 12.11-5.216 20.748-13.863 28.875-18.7 13.073-44.416 9.803-66.029 9.533-.118-11.524-2.104-74.963 1.218-80.952z"/>
    <path fill="#262941" d="M1336.28 1224.2c2.31.12 4.65.44 6.62 1.73 3.41 2.22 5.16 5.8 5.78 9.73 2.66 16.91-6.18 40.9-15.83 54.53 1.39 8.63 5.39 15.76 7.39 24.09 2.73 11.34-6.85 7.02-10.77 13.51.71 1.41 1.04 2.33 1.43 3.91-6.58 4.79-3.72 15.06-11.25 19.37-6.07 3.48-13.67 1.27-20.11.06-2.72 25.96 8.94 32.87 11.1 55.07 3.22 33.08-2 66.37-1.54 99.5 4.97 3 9.28 6.66 13.71 10.38 16.45-10.81 33.74-20.71 50.51-31.02 13.32-8.19 27.58-18.64 42.1-24.41 8.6 7.88 51.87 76 55.14 87.11-1.18 3.54-5.67 6.37-8.73 8.56-10.48 7.49-22.02 13.65-32.98 20.45l-62.59 39.35c-17.19 10.71-35.02 21.11-51.4 33.01 3.48 12.36 9.49 24.35 13.78 36.5 8.04 22.73 13.98 47.31 17.48 71.17 6.97 47.54-.4 116.18 16.13 159.59l8.64 4.06c1.39 4.74 3.12 9.68 3.86 14.57.62 4.07.17 6.71-2.24 10.08-1.33 1.87-2.15 3.13-2.71 5.42 4.89 20.18 43.22 12.58 56.63 24.17 2.64 2.28 4.36 5.27 4.55 8.8.23 4.63-1.62 9.52-4.76 12.91-10.77 11.66-78.19 25.16-95.37 24.87-5.42-.09-10.69-1.64-14.4-5.77-9.66-10.75-6.53-35.05-6.27-48.66-2.55-1.37-6.15-2.92-7.99-5.19-4.77-5.93-4.44-22.51-3.66-29.8.33-3.06 1.55-3.29 3.83-5.06-1.29-19.85-6.07-40.04-8.7-59.8-3.41-25.64-4.18-52.88-10.92-77.87-2.44-9.04-7.18-17.17-11.86-25.19-11.4-17.94-22.65-35.66-32.23-54.65-21.77 29.5-40.42 61.62-61.29 91.82-10.73 15.51-22.39 30.27-33.52 45.48a2922 2922 0 0 0-46.19 65.83c1.04.53 2.82 1.29 3.73 2.1 1.31 1.18 2.01 2.06 2.18 3.8.99 9.98-11.47 22.24-17.41 29.54-4.29.1-8.96-.28-12.94 1.5-1.06 1.12-1.97 2.11-2.45 3.63-6.32 20.3 27.08 24.77 33.52 38.59 1.18 2.53 1.1 5.17.08 7.74-2.13 5.34-7.31 9.79-12.66 11.72-20.69 7.48-50.8-11.52-69.05-20.73-7.84-3.96-29.72-12.89-31.262-22.28-1.712-10.43 19.872-35.95 25.972-44.01a41 41 0 0 1-.44-4.07c-.51-8.81 5.82-27.75 11.65-34.26 1.64-.38 4.11-.76 5.51-1.69 3.47-2.32 19.41-31.2 22.74-36.71 15.69-26.05 33.24-52.83 43.75-81.52 4.99-13.65 13.47-60.12 14.31-75.21.4-7.23-1.29-14.33-.56-21.59 2.03-20.07 6.55-40.24 9.64-60.2-1.56-2.01-3.33-4.09-4.08-6.58-.85-2.76.33-7.28.89-10.12 4.19-21.3 9.81-42.36 14.17-63.64 4.67-22.79 8.06-45.83 13.07-68.55 3.74-16.99 7.65-34.16 12.81-50.79 5.49-17.68 13.48-35.43 22.9-51.36 9.75-16.49 26.13-30.71 44.93-35.45-1.96-5.47-3.93-10.95-5.34-16.58-4.36-17.54-2.86-35.82 6.85-51.38 9.97-16 28.55-25.83 47.34-25.91 10.2-.04 20.43 1.67 30.63 1.32 9.6-.34 18.81-3.52 28.15-5.52"/>
    <path fill="#FEFEFE" d="M1317.68 1531.9c1.25 1.39 2.97 3.08 3.4 4.95.55 2.4-.77 5.54-2.11 7.52-4.18 6.16-10.87 8.84-17.83 10.24-1.21-.26-2.12-.73-3.23-1.25 1.31-3.84 15.79-16.22 19.77-21.46M1353.56 1930.16c1.72.05 2.55-.41 3.78.98 2.27 2.58 2.71 5.99 2.65 9.31-2.49 2.58-6.11 3.48-9.5 4.32-6.27 1.54-27.65 6.88-32.66 3.86l3.4-1.32c4.37-1.27 9.16-2.91 12.81-5.69 1.61-1.22 1.27-.53 1.5-2.07-4.05-1.95-12.24-1.21-17.08-2.24l-1.28-.29c12.23-1.96 24.33-3.97 36.38-6.86M1039.31 1901.36c14.91 5.92 28.53 14.28 43.82 19.51-1.98 3.55-4.46 6.87-6.76 10.23-15.72-1.65-29.44-8.69-43.52-15.32 1.73-5.01 4.12-9.67 6.46-14.42M1331.08 1235.16l.73.62-.04 1.58c-16.74 16.71-40.18 11.12-61.32 11.95-7.43.29-14.06 1.63-21.24 3.53.2-.48.38-.97.59-1.44 9.37-21.28 43.76-11.53 61.39-12.02 7.26-.21 13.15-1.72 19.89-4.22M1345.65 1545.03c7.58 2.92 37.56 14.39 40.28 20.02l-1.35.98c-5.77.38-9.87-3.43-15.04-5.4-2.46-.94-3.8-.99-6.15.05-.5 3.96 15.37 12.61 18.24 17.12-3.37-.03-6.56-.71-9.99-.58l-.85 1.36c.81 1.35 1.68 2.59 2.59 3.87-2.42 1.97-8.42-.26-11.9-.41-1.32 2.25 2.59 3.42 2.53 6.4-2.33.75-3.04.78-5.4-.03-7.79-2.68-18.55-15.93-22.05-23.23 3.3-6.61 6.21-13.35 9.09-20.15M1141.46 1612.33c15.5 2.55 29.83 6.71 45.71 6.68-9.25 8.86-20.26 16.4-30.44 24.15-8.17 6.56-15.45 14.25-24.19 20.07 1.92-16.24 3.92-35.34 8.92-50.9M1343.44 1965.2c16.77-.93 24.45 8.34 39.25 12.42 8.72 2.4 18.17 2.99 27.09 4.65-8.47 4.1-16.94 6.41-26.03 8.67-15.65 2.9-39.41 9.22-54.56 2.66-2.27-.98-4.51-2.58-5.27-5.06-1.02-3.28.32-6.73 1.84-9.62 4.25-8.09 9.14-11.01 17.68-13.72M1030.56 1937.71c8.56 2 17.5 8.19 25.11 12.6a296 296 0 0 0 .9 5.71c3.09 18.4 15.98 25.41 29.98 35.45-6.73-.06-13.29-.18-19.81-2-10.24-3.44-53-22.91-57.58-31.08 1.88-7.7 14.96-16.45 21.4-20.68M1309.23 1562.66c2.29.05 2.91.19 4.78 1.8 14.95 12.86 23.52 31.08 42.22 40.03-7.69 4.59-15.13 9.64-22.64 14.51l-20.47 13.78c.1-22.27-6.26-43.79-12.27-65.02zM1331.11 1269.23l.69 1.23c-1.92 5.93-5.18 11.38-8.09 16.87 1.14 10.36 3.44 19.58 6.69 29.5-3.25.53-6.42 1.22-9.63 1.96.1.42.13.85.28 1.25 1.02 2.59 1.8 3.51 1.81 6.44-1.42 1.51-2.59 2.95-3.72 4.68.16 5.53-.37 8.46-3.32 13.17-20.89-1.45-19.25-7.74-35.09-12.48-5.76-1.72-10.56 1.8-16.86-.33-3.85-1.44-7.65-2.27-10.38-5.54l.5-2.22c3.87-3.35 9.26-4.6 13.98-6.43 21.64-8.41 6.06-13.7 13.93-28.55 1.3-2.46 2.6-2.94 5.11-3.88 7.85 1.12 8.88 9.77 15.65 13.36 1.88 1 1.98.52 3.88-.04 2.68-6.2 1.27-12.94.15-19.34 8.84-2.11 16.44-5.34 24.42-9.65M1409.94 1479.76c3.84 2.07 37.6 56.86 43.29 65.5-8.19 4.22-27.19 18.04-34.85 19.91-.35-2.31-.74-3.45-2.12-5.35-4.86-2.1-11.59-.6-16.82-.11l-8.87-5.24c-9.98-6.11-21.36-10.04-31.94-14.97-8.79-4.1-17-9.08-25.38-13.94 26.13-11.44 52.34-30.55 76.69-45.8M1205.8 1626.03c7.73-.89 16.25 1.5 23.8 2.98-4.4 1.51-9.5 2.89-13.39 5.45-17.06 11.24-33.24 38.09-42.17 56.22 19.17-11.18 34.01-29.98 50.19-45 6.33-5.88 13.37-10.94 20.36-16.01-8.05 17.89-20.31 33.46-30.06 50.41-16.07 27.92-30.13 56.83-47.31 84.12-13.46 21.38-29.42 41.08-44.22 61.54-9.89 14.59-20.76 28.57-31.25 42.74-8.54 11.53-16.73 23.96-26.64 34.37-5.83-2.02-11.41-4.48-17.04-6.99 19.79-34.26 41.48-66.97 58.96-102.54 4.58-9.31 9.83-18.81 12.7-28.82 5.11-17.81 7.33-38.34 9.99-56.69 1.25-8.66 1.59-19.17 4.99-27.19 8-18.89 52.28-47.36 71.09-54.59"/>
    <path fill="#262941" d="M1156.59 1738.86c1.2 10.28-53.58 83.69-63.39 97.32-.58-26.24 45.03-77.7 63.39-97.32"/>
    <path fill="#FEFEFE" d="M1246.64 1342.43c2.09-.22 4.44-.17 6.52.13 4.57.66 8.75 3.75 11.25 7.55 15.88 24.15-.72 87.07-7.18 114.65-.84-27.84.46-57.31-6.46-84.39-4.55 29.2-4.04 49.97-.34 79.08-11.23-2.97-20.14-3.85-31.76-3.2 33.86 10.57 65.04 41.76 88.42 67.77-5.17 8.45-11.04 14.68-18.42 21.24-19.8-13.14-63.72-45.69-77.58-63.31-3.73-4.73-7.4-10.37-8.05-16.5-1.52-14.25 3.39-31.15 5.02-45.44 2.44-21.38 3.84-42.91 6.24-64.32-11.4 13.13-16.36 25.49-19.29 42.54-3.44 18.99-7.37 39.98-8.05 59.21-.89 25.07 17.5 40.74 33.29 57.47-12.8 19.41-29.16 34.76-44.08 52.32 16.18-5.67 29.01-15.56 40.24-28.43 3.7-4.24 7.26-9.51 11.36-13.3 1.76-1.63 2.27-1.52 4.47-1.36l1.35 2.29c1.09 10.48-5.73 25.91-10.02 35.23-8.77 19.04-22.11 36.1-42.33 43.45a2771 2771 0 0 1-44.09-9.06c17.36-63.35 30.33-190 69.43-236.84 10.6-12.69 24.44-15.39 40.06-16.78"/>
    <path fill="#262941" d="M1161.34 69.365c9.28-.356 18.91.664 27.77 3.523 18.23 5.883 33.43 19.95 41.88 36.993 11.75 23.666 9.28 46.481 1.07 70.721 19.78 16.64 41.55 31.271 62.57 46.312 20.77 14.864 41.15 30.29 61.83 45.292 4.05-3.549 7.74-6.648 13.02-8.257 19.74-6.018 26.68 25.75 36.93 36.845 5.54 5.997 14.17 9.279 21.31 13.096 17.11-2.346 33.98-6.493 51.1-8.993 4.96-5.468 10.86-10.266 14.25-16.968 8.68-17.134 8.36-65.507 2.64-83.832-28.31 11.985-20.66-4.52-38.3-6.248-2.84-.278-5.36-.54-7.11-3.115-2.39-3.518-2.96-9.358-4.45-13.428-2.46-6.735-9.44-21.763-15.31-25.683.83 3.667 3.31 7.32 3.36 11.029.02 1.583-.67 1.693-1.73 2.671-1.22.073-1.3.138-2.71-.127-3.17-.599-6.8-3.084-9.36-4.927-14.82-10.669-1.59-19.51-5.73-27.549-.81-1.569-5.53-1.986-7.27-4.681l.46-1.984c15.85-16.451 23.5-38.805 43.71-51.124 13.3-8.105 30.23-10.434 45.29-6.555 9.86 2.54 17.45 6.993 22.55 15.901 3.98 6.945 10.38 10.118 13.48 17.429 7.29 17.242 2.44 35.303 15.23 50.631l.94 1.115c10.52-2.005 20.65-3.662 31.39-2.807 14.89 1.186 30.94 5.452 42.23 15.675 15.82 14.326 30.55 45.672 42.29 64.486a393.5 393.5 0 0 0 35.19 47.23c9.37 10.615 19.6 20.705 31.08 29.05 8.69 6.322 30.39 17.447 35.78 24.319 1.76 2.246 2.34 4.659 1.99 7.476-2.44 19.71-39.83 54.045-55.48 65.764 2.13 4.747 3.9 9.157 4.8 14.326 2.43 13.997 1.36 29.243 1.22 43.43l-.75 66.794c-.21 19.901-.95 41.091 2.18 60.777 1.88 11.804 6.35 22.788 9.95 34.131a1002 1002 0 0 1 12.43 42.908 1427 1427 0 0 1 13.57 56.009c2.82 13.072 4.93 26.513 8.51 39.397 2.89 10.415 11.71 16.941 13.4 28.236 1.28 8.543.33 13.777-4.15 20.875-.32.513-.84.978-.9 1.581-.03.31 3.99 5.502 4.44 6.091 5.19 6.729 8.57 12.654 9.96 21.267.7 4.296 1.5 17.072-1.64 20.333-6.42 6.661-38.98 5.927-48.98 6.124 10.91 31.535 23.36 62.573 35.16 93.782 11.64 30.809 22.71 61.944 35.3 92.384 11.94 1.27 22.59 3.26 32.47 10.57a47.42 47.42 0 0 1 18.77 32.27c1.76 13.6-1.57 27.73-10.34 38.42-10.43 12.71-24.52 17.05-40.22 18.56-13.91 53.42-25.8 107.41-39.66 160.87a50.4 50.4 0 0 1 17.55 11.57 46.97 46.97 0 0 1 13.59 34.18c-.2 13.79-5.55 26.72-15.8 36.07-11.62 10.59-25.33 13.36-40.53 12.73-12.61 47.31-26.45 94.4-39.59 141.58-10.33 37.15-19.66 74.46-31.64 111.13 17.21 10.34 31.71 26.15 36.95 45.88 5.09 19.16 2.46 40.75-7.64 57.84-9.99 16.94-27.5 30.06-46.58 34.85a73.52 73.52 0 0 1-55.48-8.22c-21.41-12.98-30.81-31.69-36.72-55.23-35.91.36-71.79-.19-107.7 0-17.49.09-43.48 2.16-59.6-.34-2.63-.41-2.66-.59-4.17-2.64.01-2.94-.15-3.08 1.68-5.33 3-1.28 5.61-1.73 8.86-1.93 16.1-1.02 33.29.41 49.49.4l111.3-.55c.8-4.8 1.59-9.63 2.61-14.39 4.15-19.22 16.62-36.33 33.23-46.75 21.04-13.2 40.87-12.93 64.34-7.66 8.05-23.94 14.06-49.05 20.82-73.4 16.43-59.2 31.84-118.78 49.4-177.64-5.45-3.17-10.92-6.59-15.47-11a49.64 49.64 0 0 1-15.32-35.61 48.48 48.48 0 0 1 14.73-34.8c11.86-11.62 25.22-14.02 41.11-13.55 11.56-53.58 29.36-106.01 39.35-159.97-3.29-1.2-6.55-2.63-9.7-4.14-11.12-5.35-19.71-15.73-23.59-27.35-4.32-12.93-3.1-28.1 3.29-40.15 6.12-11.52 15.92-19.27 28.33-23.01-4.77-20.68-19.93-55.31-27.88-76.319-13.99-36.937-26.74-74.799-41.93-111.235-13.62.483-34.96 3.675-47.14-2.771-3.44-1.821-6.25-4.652-7.13-8.542-1.43-6.379 1.54-12.932 4.79-18.213-24.64-13.856-50.29-26.548-75.48-39.425-19.46-9.95-38.95-20.607-58.87-29.571-12.34-5.549-25.63-6.009-38.27-10.266-16.27-5.473-44.11-24.924-59.1-34.996-2.4-14.653-2.51-30.333-3.35-45.184l-4.41-78.41-14.47-232.011c-9.74.17-16.46-1.361-24.09-7.804-14.86 2.791-29.29 9.329-43.35 14.762l-56.03 21.679c-78.96 30.556-157.51 62.809-237.06 91.728.95 4.663 1.65 9.501 1.87 14.261a48.82 48.82 0 0 1-12.6 35.353 49 49 0 0 1-35.79 15.768c-17.752.191-30.839-8.062-43.011-20.001-23.955 12.379-50.289 21.562-75.069 32.273a6888 6888 0 0 1-151.251 64.328c-6.019 20.649-14.762 41.153-21.757 61.563-8.258 24.096-17.211 47.914-25.625 71.948-7.645 21.837-14.637 44.016-22.941 65.594-1.031 2.679-2.413 4.247-4.817 5.817-2.584-.077-2.1-.234-3.807-1.912-1.541-4.417-1.317-7.731-.143-12.259 1.428-5.501 4.107-10.583 6.102-15.889 3.148-8.371 5.955-16.914 8.777-25.399a8752 8752 0 0 1 53.838-152.788c-21.824-21.601-42.154-45.33-62.885-67.998L569.124 450.525c-27.651-30.725-58.495-59.45-84.732-91.335-11.453 4.588-21.135 5.499-33.341 4.755-23.753 60.26-45.086 121.703-67.654 182.439L239.324 930.619c-16.431 43.089-31.815 86.511-49.25 129.221 4.218 2.11 8.628 4.29 12.382 7.16a48.42 48.42 0 0 1 18.861 33.9c1.516 15.48-3.858 28.28-13.585 39.93-3.617 3.4-7.512 6.08-11.607 8.85 17.076 48.83 31.83 98.75 47.66 148.01l87.449 270.69c13.912-1.02 24.341.2 37.532 4.79 6.286-20.6 13.861-40.91 20.735-61.33a9968 9968 0 0 1 56.727-165.32 5784 5784 0 0 0 20.885-61.96c3.139-9.42 5.814-21.38 10.515-30.04 1.352-2.48 2.351-2.91 4.991-3.65 1.511.55 2.781.54 3.577 2.07 1.754 3.35.523 7.71-.442 11.14-1.793 6.37-4.631 12.47-6.722 18.76-7.225 21.72-15.316 43.09-22.567 64.78l-77.9 228.4c6.179 4.33 12.244 8.65 18.023 13.51 11.498-12.15 26.496-22.56 39.802-32.62a2055 2055 0 0 0 41.203-31.98 10784 10784 0 0 1 172.869-135.13 75 75 0 0 1-.957-8.87c-.742-16.64 5.969-29.16 16.864-41.16-10.417-9.75-19.659-21.02-29.213-31.62-12.603-13.97-25.627-27.75-37.794-42.1-3.256-3.84-5.647-6.19-5.207-11.49 1.81-2.19 2.249-2.44 4.919-3.44 6.463 2.04 62.231 70.07 76.064 81.94.336.29.679.57 1.018.85 8.608-3.36 16.742-5.67 26.142-5.06a48.5 48.5 0 0 1 33.411 16.32 49.08 49.08 0 0 1 11.443 36.93c-1.593 15.83-9.841 26.15-21.46 36.01 4.502 15.19 11.066 29.7 16.917 44.4a6421 6421 0 0 0 31.661 78.63l96.011 235.47c45.119-3.49 90.635-10.55 135.539-16.37 17.37-2.25 37.3-6.52 54.67-6.86 2.77-.05 3.74.78 5.77 2.52.86 2.81 1.05 2.94.03 5.66-5.47 4.94-58.7 9.5-69.031 10.76l-82.23 10.37c-15.586 2-33.457 6.17-49.032 4.76-13.845-1.24-28.772-6.82-42.199-10.49l-77.98-21.32a27437 27437 0 0 0-281.506-76.07c-11.038-2.84-43.503-14.21-51.967-13.39-1.33 2.44-2.106 3.03-1.638 5.83 18.819 16.52 41.54 29.84 61.834 44.61a4829 4829 0 0 0 83.02 59.09c15.024 10.49 29.931 21.94 45.827 31.01 3.167-1.78 6.358-3.62 9.67-5.12 12.986-5.87 27.606-7.15 41.052-1.81 12.147 4.82 20.921 14.78 25.614 26.8 4.65 11.92 3.71 24.99-1.56 36.54-5.36 11.75-14.846 21.24-27.117 25.56a48.04 48.04 0 0 1-37.245-2.28 46.3 46.3 0 0 1-24.076-27.74c-4.889-15.57-1.078-29.26 6.375-43.02-10.841-8.44-22.937-15.76-34.233-23.62l-72.001-50.42c-27.877-19.39-54.569-40.81-83.228-59.02-7.988 12.78-20.967 22.92-34.955 28.35a78.24 78.24 0 0 1-59.062-1.6c-17.685-7.84-30.957-21.62-37.876-39.71-7.056-18.46-6.55-40.16 1.702-58.15 9.408-20.51 26.058-32.82 46.798-40.34a30455 30455 0 0 1-135.024-418.51c-3.393.63-6.87 1.35-10.32 1.56-13.008.77-26.725-3.59-36.348-12.46-9.57-8.83-14.874-21.18-15.278-34.14a50.3 50.3 0 0 1 14.391-36.68c11.492-11.61 25.405-13.85 40.908-13.96 17.416-41.11 32.081-83.373 47.922-125.097l92.136-245.001 84.598-227.428c11.959-32.689 24.964-65.165 35.765-98.251-7.221-3.208-13.43-6.325-19.287-11.804-10.547-9.866-16.141-23.441-16.427-37.786-.291-14.628 4.904-29.026 15.251-39.523a58.2 58.2 0 0 1 40.496-16.998 53.68 53.68 0 0 1 39.281 16.288c11.855 12.292 15.734 27.538 15.446 44.068 26.442 2.087 52.902 5.43 79.264 8.419 12.52 1.42 33.539 5.995 45.141 4.045 15.832-2.66 45.2-16.848 61.673-23.286l171.403-67.876a12822 12822 0 0 0 169.693-66.145c16.35-6.529 38.77-12.32 53.28-21.846-14.32-.663-29.06.954-43.37 1.869a5798 5798 0 0 1-68.018 4.087l-236.847 12.419c.074 7.401-.492 14.264-2.793 21.364a56.23 56.23 0 0 1-28.702 33.076c-13.953 6.983-29.891 8.402-44.766 3.425a57.63 57.63 0 0 1-33.161-29.265c-6.507-13.577-6.674-28.92-1.593-42.977 4.634-12.823 15.338-26.606 27.946-32.156 15.43-6.792 32.304-8.335 48.134-1.778 17.488 7.243 26.644 20.452 33.582 37.302 42.471-1.028 85.174-4.521 127.627-6.772a10647 10647 0 0 0 216.951-12.47c3.17-15.128 7.98-28.938 17.86-41.051 13.9-17.042 31.8-24.345 53.28-26.437"/>
    <path fill="#FEFEFE" d="M1370.14 275.33c.82.154 1.69.279 2.46.63 2.43 1.103 3.1 1.829 4.2 4.076-1.06 3.314-2.07 3.623-4.77 5.686-1.59.178-2.43.227-3.98-.326-1.58-.564-1.39-.97-2.09-2.37.59-3.498 1.88-5.053 4.18-7.696M1512.04 708.667c4.72 1.882 8.94 4.669 13.96 5.802 3.11.702 6.24.238 9.34.965l-.69 1.635c-.97.554-1.95 1.103-2.96 1.585-3.32 1.58-7.33 1.806-10.77.406-4.71-1.915-6.96-5.967-8.88-10.393M1379.23 290.095c.82.256 1.86.497 2.61.989 4.14 2.727 16.95 21.563 17.54 26.364l-3.48 3.242c-.49-.122-1.82-.42-2.31-.672-4.48-2.316-15.89-21.092-18.27-26.44zM1753.35 786.025l1.79.385.2 1.344c-2.25 1.44-4.63 2.837-6.61 4.629-1.71 1.55-2.05 1.535-2.19 3.929 5.3 2.735 11.12-2.188 16.34-2.26.34-.005.68.056 1.02.084-9.8 6.319-18.36 8.832-29.64 11.612l-4.59 1.189c-3.15-4.222-6.28-3.357-11.01-4.337.39-.65.81-1.288 1.16-1.963.47-.913.84-1.876 1.37-2.757 3.68-6.168 25.03-9.926 32.16-11.855M1412.41 322.937c2.12-.051 3.77.064 5.83.588 4 5.547 1.83 20.133 1.86 27.048-4.42.568-8.62 1.515-12.62-.957-.37-3.05.9-4.082 2.47-6.654l-.92-.578-4.7 1.779-1.11.382c-1.75-1.935-1.84-1.801-1.83-4.387 3.15-3.928 8.16-5.416 12.01-8.564.44-.36.87-.733 1.31-1.099-2.73 1.026-5.3 2.483-8.08 3.409-2.22.743-4.6 1.087-6.74-.001l.2-2.017c3.17-4.487 7.6-6.432 12.32-8.949M1515.82 663.798c10.27 10.254 27.02 11.729 31.82 18.865-.08 3.508-1.5 4.53-3.56 7.293-10.18 4.929-16.16 5.049-26.98 2.676-1-9.671-1.23-19.125-1.28-28.834M1474.28 82.266c10.19-.573 19 1.62 28.7 4.394-26.29 1.222-45.69 13.535-64.93 30.673-5.61 4.659-11.31 8.772-17.44 12.729 3.59-6.657 7.77-13.089 12.1-19.285 10.51-15.055 23.02-25.3 41.57-28.511M1465.98 717.441c10.65-1.584 23.89-1.134 34.43 1.285 18.26 4.19 23.66 11.372 42.56 3.272-2.06 3.489-4.38 6.763-6.71 10.07-2.9 3.895-6.26 7.388-9.55 10.955-15.01-2.965-50.82-13.995-60.73-25.582M1760.66 826.487c.97-.185 2.37.215 3.36.367 2.2 1.797 3.2 3.334 4.61 5.73-.13 2.852-.37 4.227-2.25 6.465-11.39 13.55-48.01 18.255-64.58 18.701-7.06.19-12.82.545-18.22-4.555 1.75-2.8 3.03-4.49 6.2-5.566 2.24.659 4.17 1.141 6.51 1.34 3.5-2.979 6.69-5.059 10.87-6.972 1.07 1.03 2.15 2.136 3.3 3.074 1.88 1.521 2.49 2.111 5.02 1.836 1.34-3.325-2.73-4.595-1.89-8.346 2.92-1.22 5.29-1.969 8.48-2.137 2.01-.107 3.18-.069 4.95-1.158.85-1.758 1.78-4.306 3.03-5.773 2.43-2.857 25.33-2.359 30.61-3.006M1439.57 146.056c6.16 3.072 12.3 6.128 18.83 8.333 4.5 1.518 20.89 6.371 23.88 1.693 1.64-2.578 1.12-5.347 4.1-6.824 2.67 3.734 5.37 8.096 8.64 11.346 5.35 5.332 24 8.216 31.35 7.15 3.11-.452 4.85-2.726 8.04-2.678 2.08 1.805 2.2 2.057 2.94 4.722-5.5 6.383-14.58 10.425-20.89 16.364l-1.01.962c-3.04 3.857-6.58 7.381-9.94 10.973.53-3.29 1.12-6.637 1.11-9.977-.01-4.017-.05-9.044-3.01-11.932-.04.172-.1.34-.13.514-.01.065.01.132.02.197-2.79 1.574-4.93 8.47-6.85 11.584-3.17 5.149-8.32 10.911-14.62 11.998-8.19 1.411-8.49-5.591-13.95-9.368-4.07-2.817-7.93-1.558-12.47-.811-.37-5.157-.38-10.366-.52-15.535-6.7-8.923-13.27-17.518-15.52-28.711M632.355 1806.33c7.561-.17 14.691 1.6 21.09 5.69 8.141 5.22 13.717 13.91 15.652 23.32a37.15 37.15 0 0 1-5.47 28.15c-6.806 10.32-15.847 14.45-27.487 16.82-9.076-.07-16.949-1.28-24.586-6.67a36.24 36.24 0 0 1-14.682-24.13 37.79 37.79 0 0 1 7.951-29.34c7.208-8.88 16.539-12.48 27.532-13.84M1749.06 1325.36c9.23.12 17.96 2.1 25.36 7.93 8.31 6.55 13.39 16.52 14.43 26.99.98 9.89-1.81 19.66-8.16 27.34-7.21 8.71-16.62 12.68-27.62 13.9-7.98.33-16.65-1.68-23.33-6.14-8.76-5.84-14.26-15.65-15.82-25.94a38.5 38.5 0 0 1 7.9-29.49c7.09-9.03 16.13-13.09 27.24-14.59M696.349 1339.26c7.129-.26 14.69 1.35 20.963 4.8a37.2 37.2 0 0 1 18.046 23.84 39.32 39.32 0 0 1-5.109 30.51c-6.229 9.7-15.299 14.81-26.377 17.06-9.738-.17-18.024-1.26-26.415-6.81-8.172-5.4-14.219-13.81-16.135-23.47a39.08 39.08 0 0 1 6.296-29.77c7.12-10.04 17.041-14.18 28.731-16.16M165.595 1068.22c6.867-.65 13.114-.33 19.677 2.03 10.028 3.61 18.336 10.97 22.588 20.8a38.21 38.21 0 0 1-.282 30.52c-5.617 12.59-15.276 17.81-27.581 22.26-7.926.98-15.072.42-22.453-2.87a38.42 38.42 0 0 1-20.761-22.86 38.52 38.52 0 0 1 2.556-30.04c5.786-10.85 14.932-16.27 26.256-19.84M1804.79 1068.06c7.29-.43 14.69.7 21.36 3.75a37.46 37.46 0 0 1 20.22 22.49 40.02 40.02 0 0 1-2.75 31.01c-5.88 10.98-15.11 16.49-26.7 19.76-7.8.35-14.65-.11-21.97-3.24a37.77 37.77 0 0 1-20.89-22.05 38.28 38.28 0 0 1 2.25-30.59c5.97-11.41 16.56-17.53 28.48-21.13M1009.71 471.21c8.97-.832 17.3.411 25.19 4.972a36.8 36.8 0 0 1 17.31 22.47 41.04 41.04 0 0 1-5.11 32.364c-6.36 9.991-15.45 15.442-26.86 17.882-7.43.331-13.74-.037-20.686-2.984a39.16 39.16 0 0 1-21.321-22.649 37.31 37.31 0 0 1 2.069-30.053c6.282-12.216 16.738-18.183 29.408-22.002M453.127 266.195c9.536-1.219 19.231.289 27.746 4.843 10.512 5.622 17.986 15.47 21.128 26.921a44.42 44.42 0 0 1-4.091 34.01c-6.948 12.101-17.042 18.077-30.042 21.849-11.587 1.575-21.91.498-32.009-5.989a45.37 45.37 0 0 1-20.019-28.701 45.34 45.34 0 0 1 6.37-34.004c7.428-11.23 18.231-16.127 30.917-18.929M684.31 125.294c9.771-.297 18.938.952 27.661 5.724a46.3 46.3 0 0 1 22.481 28.757c3.057 11.849 1.142 25.381-5.282 35.826-7.643 12.428-19.354 18.331-33.128 21.373-11.477.317-21.159-.481-31.221-6.781a45.55 45.55 0 0 1-20.357-29.757 46.56 46.56 0 0 1 8.046-36.113c7.996-11.154 18.591-16.67 31.8-19.029M1567.15 449.935c7.17.997 19.19 1.19 24.51 6.312 5.36 5.148 4.59 14.16 4.91 20.987-9.85 2.183-19.67 3.378-29.38 6.327 10.05 4.682 21.48 2.496 31.09 7.003.72 2.613.42 4.636-1.1 6.957-4.27 6.566-11.25 12.48-16.77 18.05-11.04 11.127-19.11 21.74-26.59 35.535-5.35 2.794-10.87 5.326-16.3 7.956-1.74-3.003-3.55-6.809-6.14-9.18-1.96-1.792-3.6-3.411-6.28-3.441 2.36 6.217 5.52 12.322 9.1 17.923 3.9 6.107 15.67 18.564 16.47 24.604l-1.74 1.053c-7.6-1.362-21.56-30.665-27.23-37.644l-2.5-.119c.98 9.055 4.62 18.313 7.16 27.062 4.94 17.008 16.63 56.402 10.99 72.269-1.18 3.304-3.31 6.085-6.55 7.571-5.18 2.378-10.69.066-15.67-1.659-.68-20.423-8.65-106.788-5.28-118.057 5.3-17.678 45.04-71.363 57.3-89.509M1552.6 182.241c4.08-.42 8.31-.611 12.32.401 20.26 5.112 35.78 29.522 47.83 44.994 7.26 9.323 14.93 18.511 21.2 28.542-11.34-11.344-22.55-22.583-35.72-31.842-13-9.148-44.63-28.799-61.7-24.751-2.67.633-5.78 1.631-7.39 3.956 5.34 4.993 13.61 4.984 20.28 7.04 15.25 4.694 25.95 22.655 32.71 36.114-11.6-10.555-26.04-20.43-40.06-27.536 4.2 8.232 10.83 15.006 14.31 23.705 5.61 14.063-5.42 32.482-10.82 45.384-7.05 16.169-13.77 32.66-22.28 48.128-9.9 3.158-76.61 14.678-83.66 12.236-1.8-.626-3.83-5.843-4.47-7.649-1.28-3.594-1.5-6.899.37-10.366 2.19-4.054 7.58-5.904 11.74-6.887 17.17-4.047 37.93-5.635 53.42 4.13 1.98 1.249 3.31 2.11 5.66 2.582 3.47-6.743-10.7-18.612-8.39-25.669 5.55 1.432 10.18 8.477 13.74 12.695-2.13-7.901-5.92-17.811-5.39-25.985.15-2.332-.05-2.85 1.74-4.481 4.88 2.38 10.06 8.121 14.52 11.501-3.03-8.185-8.35-15.149-11.42-23.359 3.02-17.933-1.44-44.536 6.35-59.038 8.24-15.325 17.85-28.731 35.11-33.845M1602.83 453.798c16.31-1.023 31.18-3.031 46.89-7.646 7.47 18.914 19.59 33.454 28.58 51.284 7.66 15.184 9.98 31.174 12.31 47.82 1.07 7.658 3.71 16.123 3 23.75-10.63-18.303-22.77-35.748-34.73-53.19-7.59-11.051-15.01-23.222-24.25-32.939 9.44 26.387 33.77 60.973 51.9 82.433 15.08 19.948 13.52 33.514 25.06 53.779-12.23-9.677-31.48-30.457-45.85-34.58l-1.27.91c4.48 17.483 62.49 71.842 56.49 89.344-4.11-1.857-40.44-51.414-47.97-59.349l.49 1.348c4.28 11.629 12.11 22.619 18.76 33.012 29.47 46.047 48.87 72.667 37.7 130.638-11.71-19.779-20.11-42.737-29.58-63.759-17.49-38.801-33.36-78.063-49.24-117.527-13.01-32.359-27.64-65.457-37.61-98.891-4.56-15.299-7.62-30.791-10.68-46.437M1632.79 1668.38c14.3-.94 27.48 1.73 39.66 9.63 13.7 8.89 24 24.04 27.28 40.02a63.76 63.76 0 0 1-9.14 48.46c-10.78 16.13-27.22 24.71-45.82 28.5-17.03.72-31.4-2.32-45.25-12.6a61.33 61.33 0 0 1-24.5-40.79c-2.53-17.23 2.58-35.03 13.13-48.8 11.46-14.95 26.26-21.95 44.64-24.42M333.512 1579.16c14.986-1.13 28.501.77 41.624 8.53 14.267 8.44 25.455 22.62 29.417 38.8a62.93 62.93 0 0 1-7.768 48.62c-10.706 17-25.33 25.01-44.52 29.5-15.871 1.7-32.23-.99-45.889-9.56a59.9 59.9 0 0 1-26.292-37.97c-3.552-16.58-.945-34.59 8.376-48.88 10.572-16.21 26.525-24.99 45.052-29.04M1160.74 80.406c13.51-.311 25.78 1.836 37.44 9.022a64.13 64.13 0 0 1 28.66 40.905c3.75 16.856 1.06 35.061-8.48 49.578-10.98 16.722-26.52 25.144-45.73 29.03-16.88.944-32.06-2.567-45.64-13.009-13.69-10.525-22.48-27.111-24.46-44.188-1.99-17.09 2.71-35.68 13.61-49.136 11.33-13.99 27.06-20.398 44.6-22.202"/>
    <path fill="#FEFEFE" d="M1541.26 337.609c8.01 12.756 9.04 87.157 8.77 105.463-12.8 16.991-25.37 34.499-36.9 52.367-7.76 12.016-18.09 26.937-20.96 41.037-1.3 6.366 4.6 152.558 6.07 158.438.84 3.382 2.48 6.135 5.58 7.85.56.307 1.15.54 1.72.823.57.281 1.13.582 1.69.869l1.27.634c-5.84 6.479-35.12-3.726-45.72-.628-.35.1-.69.21-1.03.316l-7.52 5.62c-2.16-75.425-8.53-151.129-13.69-226.419-2.36-34.401-6.36-69.681-6.19-104.145.02-4.301.02-8.23 2.5-11.948 1.32-1.99 2.85-3.324 5.16-4.086 6.16-2.034 13.96-1.732 20.45-2.435 18.57-2.009 38.05-3.253 56.38-6.709 12.49-2.357 15.57-7.076 22.42-17.047M1606.81 522.944c4.43 6.919 7.81 23.024 10.87 31.777a2282 2282 0 0 0 25.86 70.452c13.94 36.663 29.37 72.861 44.6 109.011 5.77 13.683 15.95 33.512 19.88 46.895 1.47 4.987-5.86 14.914-4.76 23.65.64 5.127 2.88 9.079 6.86 12.301 1.21.975 2 1.39 2.6 2.895.4.985.21.919-.23 1.898-2.49 5.62-5.7 10.055-11.75 12.098-12.91 4.364-27.18-5.152-38.28-10.909a7309 7309 0 0 0-79.34-40.359c-13.9-7.008-30.01-13.539-42.66-22.522l15.25 3.566c13.61-17.463 3.5-44.486 7.64-64.655 3.37-2.246 7.73-4.629 8.64-8.939 1.69-7.958-3.42-17.762-3.36-26.141.22-30.085 4.06-87.082 11.04-115.468 9.62-7.801 18.29-16.894 27.14-25.55M653.482 1400.71c5.432 3.36 9.463 11.45 15.786 15.85 14.497 10.09 29.716 10.47 46.395 7.48 9.893 30.75 24.219 61 36.374 90.97l67.457 166.12c12.571 30.35 26.865 61.09 36.629 92.41a10863 10863 0 0 1-196.47-52.43 10374 10374 0 0 0-167.835-45.59c-24.967-6.66-49.766-14.35-74.993-19.94.996-23.21-2.218-38.07-13.832-58.36 33.975-28.62 72.502-56.87 107.733-84.38a14668 14668 0 0 1 142.756-112.13M1092.08 162.978c2.89 2.181 8.49 17.931 11.45 22.736a74.8 74.8 0 0 0 14.97 17.558c14.24 12.296 35.14 18.093 53.8 16.513 22.45-1.902 38.68-13.532 52.87-30.309 40.66 32.803 85.49 60.675 126.39 93.208 4.72 14.731 17.81 26.023 26.08 39.013 6.34 9.965 7.89 21.314 13.52 31.73-13.67 7.73-29.72 12.695-44.4 18.336l-68.48 26.473-220.02 85.545c-4.7-6.367-9.61-12.196-16.35-16.532-11.12-7.144-25.62-9.132-38.38-5.914a50.03 50.03 0 0 0-31.373 24.132c-8.448 14.831-7.745 28.448-3.698 44.298-20.377 6.79-40.365 16.883-60.099 25.451a7986 7986 0 0 1-100.037 42.578c-21.689 8.904-43.725 17.817-64.779 28.125-8.699-12.318-20.655-23.313-30.931-34.364l-52.945-57.549a11711 11711 0 0 0-117.082-127.7c-16.313-17.493-32.132-35.615-49.16-52.415 9.558-8.4 13.888-16.472 18.526-28.044a5581 5581 0 0 1 73.714 7.698c14.888 1.692 39.958 6.7 54.304 4.82 12.391-1.624 25.693-8.293 37.394-12.844l76.08-30.37z"/>
</svg>
