<svg xmlns="http://www.w3.org/2000/svg" width="1024" height="1024" style="display:block" viewBox="0 0 2048 2048">
    <defs>
        <linearGradient id="a" x1="536.906" x2="536.096" y1="1279.64" y2="1259.4" gradientUnits="userSpaceOnUse">
            <stop class="stop0" offset="0" stop-color="#141D1F"/>
            <stop class="stop1" offset="1" stop-color="#242532"/>
        </linearGradient>
    </defs>
    <path fill="#FEFEFE" d="M0 0h2048v2048H0z"/>
    <path fill="#222D3E" d="M1269.24 866.444c13.52-.1 31.52.44 42.31 9.66 4.38 3.75 5.78 8.69 6.49 14.242 2.21 17.085.03 36.464-.19 53.798a8400 8400 0 0 0-.69 95.716c-.04 16.31-.83 33.06.16 49.33.22 3.67.32 7.82 3.26 10.4 6.91 2.79 14.73.93 21.91 0 2.33 13.81 5.59 27.43 7.65 41.3-1.03 2.7-2.46 2.88-4.94 4.25-9.65 3.66-19.63 6.17-30 6.38-11.94.25-24.34-2.66-32.99-11.4-5.93-6-11.09-15.74-12.7-23.94-4-20.43-1.14-55.45-1.14-77.25-.01-57.36-.92-115.165.87-172.486"/>
    <path fill="#1B212C" d="M1538.12 94.98c19.59 6.714 113.34 125.995 131.27 149.912 125.74 167.714 220.14 365.472 260.85 571.702 2.32 11.761 14.61 66.728 12.37 75.21-1.07 4.035-4.11 5.841-7.33 8.042-1.03-.174-2.06-.352-3.08-.593-9.99-2.369-9.08-13.108-10.37-21.478a1283.2 1283.2 0 0 0-72.39-270.192 1437.6 1437.6 0 0 0-217.79-379.196 2023 2023 0 0 0-67.73-79.775c-9.12-10.226-26.65-25.559-32.7-36.398-1.74-3.11-3.15-6.808-1.74-10.339 1.55-3.878 5.09-5.368 8.64-6.894"/>
    <path fill="#222D3E" d="m917.423 931.981 1.204.448c4.519 10.905 8.047 22.363 12.162 33.441 7.728 20.805 15.813 41.51 23.199 62.44 4.603 13.04 8.452 26.54 13.939 39.23 7.989-12.68 12.129-28.27 16.979-42.36 10.537-30.624 19.584-61.882 30.594-92.303a529 529 0 0 1 46.83 13.95c-7.93 27.78-19.08 54.823-28.78 82.053l-41.224 122.07c-15.476.3-30.983.04-46.463-.03-4.371-13.84-10.229-27.35-14.969-41.1-7.682-22.28-14.55-44.84-22.317-67.09-10.897-31.21-22.648-62.131-32.926-93.559 13.352-6.793 27.807-11.813 41.772-17.19M1149.05 937.365c7.74-.919 16.11-.775 23.84.169a87.26 87.26 0 0 1 59.38 33.553c14.33 18.376 21.44 42.343 18.49 65.523-13.03 7.89-31.17 12.11-45.67 16.95-29.94 9.99-59.83 20.15-90.25 28.6.49.61.97 1.23 1.49 1.82 10.94 12.67 25.48 19.38 42.02 20.38 21.64 1.32 36.66-8.65 52.2-22.3 7.47 5.5 14.21 11.93 21.06 18.18 5.4 5.35 10.48 10.75 15.33 16.61-15.91 19.63-41.05 30.66-65.57 34.31-28.63 4.26-59.38-.78-82.81-18.55-22.64-17.17-36.86-44.3-40.57-72.2-3.97-29.89 2.74-60.851 21.3-84.919 17.37-22.511 41.99-34.478 69.76-38.126"/>
    <path fill="#FEFEFE" d="M1153.66 983.313c6.86-.421 13.4-.48 20.17 1.127 9.06 2.149 18.31 8.068 22.95 16.35 1.57 2.82 1.56 4.64.62 7.64-9.82 7.21-43.23 14.86-56.73 18.94-7.54 2.04-27.52 11.47-33.84 10.07-1.5-.34-1.77-1.49-2.54-2.68-.96-9.17 6.71-22.93 12.16-30.22 9.86-13.172 21.14-18.843 37.21-21.227"/>
    <path fill="#222D3E" d="M775.954 937.352c18.203-2.518 39.293.187 55.533 9.022 21.779 11.849 37.428 33.53 44.232 57.126 2.406 8.35 6.15 22 1.278 29.9-8.419 13.66-102.693 41.24-120.9 44.99-2.558.52-6.625.9-8.006 3.02.26 2.73 1.583 4.59 3.399 6.56 10.534 11.45 26.791 17.01 42.079 17.3 22.671.44 38.166-9.73 54.003-24.95 6.808 5.96 13.3 12.31 19.879 18.52 4.194 3.87 8.121 7.98 12.076 12.09-1.025 1.8-2.079 3.58-3.258 5.28-13.709 19.73-37.804 31.6-61.082 35.27-30.711 4.85-63.12-2.2-88.199-20.85-23.431-17.42-37.183-42.89-41.197-71.63-4.107-29.41 2.98-60.163 21.119-83.917 16.265-21.299 42.881-34.187 69.044-37.731"/>
    <path fill="#FEFEFE" d="M778.853 983.26c11.787-1.347 24.911-.513 35.127 6.065 7.915 5.097 10.628 10.785 12.649 19.635-16.842 7.73-35.903 12.57-53.606 18.15-12.987 4.1-26.095 8.8-39.401 11.7.329-11.8 3.651-22.95 10.158-32.82 8.551-12.975 20.114-19.715 35.073-22.73"/>
    <path fill="#222D3E" d="M1441.92 938.378a108.48 108.48 0 0 1 73.7 19.77 102.77 102.77 0 0 1 41.3 68.152 110.08 110.08 0 0 1-19.76 81.48c-18.02 24.32-42.49 38.02-72.26 42.34-26.93 2.67-54.58-3.99-76.38-20.38-22.13-16.63-36.46-40.34-40.36-67.77a110.82 110.82 0 0 1 21.3-83.294c18.29-23.782 43.03-36.534 72.46-40.298"/>
    <path fill="#FEFEFE" d="M1442.11 987.17c13.1-1.055 25.59-.637 37.41 5.909a58.57 58.57 0 0 1 27.5 34.881 59.3 59.3 0 0 1-6.11 45.8c-8.41 14.22-21.51 22.87-37.25 27.03-13.39 2.37-26.97.45-38.83-6.37-12.98-7.47-22.06-20.39-25.76-34.79a60.56 60.56 0 0 1 7.18-46.75c8.33-13.605 20.48-21.878 35.86-25.71"/>
    <path fill="#222D3E" d="M535.508 863.407c20.747-3.031 52.104-1.04 72.064 4.584 23 6.48 42.614 20.29 54.361 41.329 11.061 19.81 14.208 45.724 7.945 67.567-7.217 25.173-25.25 40.233-47.426 52.333 5.67 10.46 13.287 20.36 19.615 30.49 15.237 24.41 30.609 49.79 43.724 75.37-9.131 6.53-27.166 18.92-38.864 16.82-12.672-2.27-23.412-24.35-29.848-34.35-14.416-24.64-28.684-49.47-44.154-73.47a480 480 0 0 1-35.042-.19c-.929 35.79-.028 71.84-.006 107.66-16.94.5-33.954.2-50.903.21l.047-282.233a448 448 0 0 1 48.487-6.12"/>
    <path fill="#FEFEFE" d="M540.314 909.505c10.381-.426 20.798-.913 31.172-.112 15.266 1.178 33.115 4.904 43.255 17.401 7.535 9.286 9.433 21.781 8.173 33.404-1.321 12.195-6.195 19.77-15.421 27.415-21.776 12.315-45.033 12.437-69.426 12.397-.129-15.687-2.319-78.247.311-89.45z"/>
    <path fill="#1B212C" d="M1466.4 164.919c6.78-.268 9.35 1.237 14.38 5.586 9.1 7.865 17.49 16.864 26.01 25.355a1025 1025 0 0 1 64.98 70.111 1343.4 1343.4 0 0 1 247.54 426.369c6.54 17.905 29.1 77.759 29.78 95.359.15 3.74-.49 6.184-3.05 8.921-1.92.597-3.55 1.201-5.61.83-11.33-2.042-16.21-32.436-19.11-42.057-20.23-66.947-46.14-134.276-77.61-196.788-28.13-55.863-61.06-109.454-95.19-161.817-.1 1.908-.22 3.818-.48 5.711-4.72 34.402-18.76 21.969-30.99 32.24-2.15 1.802-2.43 3.616-1.84 6.313 1.08 4.931 4.45 8.558 7.61 12.303 14.25 16.939 19.11 31.441 17.51 53.299a307.3 307.3 0 0 0 46.17 33.691c8.26-.486 16.04.628 22.79 5.84 4.24 3.266 7.27 7.855 7.76 13.254.47 5.102-1.25 11.327-4.58 15.265-2.04 2.419-4.91 4.143-8.16 4.154-7.65.027-13.17-9.547-18.53-14.338l-1.02-.899c-21.2-3.262-35.83-13.294-53.29-24.938-6.26 18.273-9.11 36.345-6.45 55.626 1.74 12.557 7.01 24.493 11 36.469 8.35 25.023 19.04 58.699 19.63 84.793.23 9.918-1.36 19.66-2.9 29.425-2.37 18.956-8.92 40.926-6.66 59.993 2.19 18.543 23.21 16.007 34.74 25.783 2.57 2.171 4.25 4.818 4.47 8.263.23 3.453-.82 6.143-3.19 8.65-8.53 9.045-40.83 5.969-53.85 5.898-4.83-.027-11.44-.214-14.72-4.397a7.7 7.7 0 0 1-.97-1.575c-2.79-5.986 3.1-23.995 3.57-31.819.87-14.622-1.47-30.137-1.91-44.852-.52-17.352 1.08-34.757 2.91-51.994l-33.92-.631c-25.82 29.43-60.78 53.687-83.86 84.736l-.41 14.749c4.41 4.095 12.9 11.657 12.72 18.162-.08 2.646-.61 3.185-2.3 4.997-3.89 1.538-7.19 1.442-11.25.427-18.67-4.667-33.65-25.979-43.15-41.613 7.38-14.339 14.57-14.591 24.93-24.079 7.36-6.739 13.76-14.674 20.69-21.86 11.38-11.798 27.72-23.898 35.67-38.135-.89-.571-1.78-1.13-2.65-1.727-.98-.677-1.05-.717-1.95-1.657-1.74-1.803-.53-6.055-.04-8.217 6.31-27.499 9.16-51.845 4.26-79.95-1.5 23.801-8.79 70.107-26.84 87.377-4.36 4.177-10.3 4.551-16.07 4.34-19.37-.709-79.8-18.596-92.45-33.163-2.6-2.993-3.14-6.669-2.62-10.488 1.44-10.425 19.15-59.39 24.11-69.748 1.56-3.251 3.11-5.846 6.01-8.013 9.59-2.632 20.15.127 29.8 1.617 4.89-8.523 9.59-15.348 18.13-20.624 3.93-9.022 6.8-13.358 15.2-18.461 9.94-26.607 20.24-46.495 33.66-71.121-.67-1.806-1.18-3.433-1.49-5.337 8.01-16.405 23.18-34.837 39.62-43.432 6.95-3.628 14.84-6.229 21.01-11.152 2.75-2.186 4.99-4.52 5.43-8.059-2.42-3.756-9.48-4.834-13.36-7.232-6.14-3.789-7.94-18.669-9.67-25.476-3.56-2.68-16.39-1.834-22.42-4.64-6.31-2.934-10.69-7.907-12.79-14.539-2.42-7.638-2.19-16.005 1.6-23.149 3.97-7.497 11.18-12.722 19.26-15.005 10.61-2.997 26.57-1.551 35.84 4.773 4.67 3.187 8.95 7.528 14.04 10.011 2.31 1.126 4.58 1.727 7 .834-3.18-8.665-12.85-17.593-18.7-24.907-29.54-36.908-59.63-72.473-93.31-105.737-7.02-6.941-33.18-29.785-34.92-36.712a7.8 7.8 0 0 1-.25-1.795c-.07-3.899 2.22-6.699 4.7-9.391"/>
    <path fill="#FEFEFE" d="M1498.89 574.656c3.61-.029 6.51-.161 9.4 2.387 2.36 2.09 3.16 4.159 3.44 7.259-1.49 1.496-1.66 1.087-3.67 1.184-.92-.902-3.38-4.005-4.44-4.494-2.42-1.116-5.07.208-6.78-2.25zM1684.04 549.912c4.4.129 11.29-.47 15.35 1.045 2.42.906 2.79 1.923 3.63 4.093-.16.722-.44 1.765-.45 2.483-.02 2.572.24 4.113-.22 6.74.45 1.329.74 2.674 1.06 4.041-5.09-2.302-17.19-13.258-19.37-18.402M1532.55 579.777c1.6 1.769 2.27 34.305 3.08 40.225l.29 1.945-.93-.162.68 2.046-5.23-3.52-7.27-4.688c2.98-12.034 7.04-23.622 9.38-35.846M1471.37 792.647c1.33 1.305.86.615 1.67 2.486 4.39 10.096 19.4 27.57 27.28 35.821l-.67.942c-3.52-1.469-7.11-2.931-10.25-5.133-6.9-4.838-20.86-17.935-21.21-26.829-.14-3.435 1.31-4.689 3.18-7.287M1652.82 834.159c4.37-.86 13.03 1.822 16.67 4.269 1.94 1.303 2.49 1.348 2.98 3.722-5.9 4.172-23.68 1.365-30.71.572-5.14-.861-11.61.292-16.34-1.229-2.19-.705-2.13-.642-3.15-2.814 2.71-2.237 11.69-.448 15.68-.918 5.05-.597 10-2.18 14.87-3.602M1602.19 406.669c5.29 6.109 9.79 12.021 15.89 17.439-4.68 1.588-9.19 3.118-14.09 3.915 1.66 7.434 3.22 14.829 4.41 22.352l-21.59-12.929c4.43-3.987 8.37-8.181 12.32-12.647-.35-6.833-1.32-12.347 3.06-18.13M1638.3 516.471l41.19 31.644c.75 2.842.25 3.25-.89 6.019-16.43-6.511-30.3-15.385-44.34-25.957zM1543.77 508.621l1.62 1.441c1.88 6.72-5.27 18.537-6.95 25.386-2.74 11.147-3.37 22.822-6.65 33.846l-1.21.594-2.37-1.918c-3.1-3.402-5.53-6.883-7.96-10.79 5.05-17.215 14.54-33.135 23.52-48.559M1477.93 584.506c9.09 3.354 18.08 6.196 26.96 10.214 5.33 2.416 8.93 2.316 14.67 2.056-1.48 4.633-2.88 9.043-5.12 13.384l-1.85.546c-14.82-5.556-29.49-9.763-44.88-13.301 3.02-4.592 6.69-8.701 10.22-12.899"/>
    <path fill="#FEFEFE" d="M1530.81 493.631c2.97 2.03 5.44 5.176 7.92 7.782-10.87 17.705-23.16 36.144-26.36 57.066 3.2 4.252 6.14 8.989 8.18 13.911 2.41 5.787 4.07 10.571 1.66 16.61-1.26-.634-2.45-1.099-3.47-2.08.57-4.668 2.08-10.331-.86-14.453-4.02-5.631-14.99-5.204-21.31-5.795 10.15-25.431 20.56-49.32 34.24-73.041M1625.49 371.326c3.24.314 4.27.601 6.46 3.073 3.11 3.506 5.47 8.321 7.81 12.394-3.46 1.97-7.12 3.635-9.61 6.819l.56 4.001c-3.22.204-5.54-2.422-8.24-4.149.55 3.582.51 5.593 3.11 8.186 2.38.483 4.62.218 6.7-1.146 1.59-1.044 3.13-2.201 3.18-4.289.01-.731-.39-2.168-.57-2.904 2.66-.126 2.74-.184 4.91 1.331 1.88 4.765-.62 13.657-2.61 18.357-.94 2.205-2.22 3.508-4.12 4.899-3.34.948-5.48.587-8.49-.988-9.39-4.921-14.33-14.537-24.1-18.864-1.26-2.072-1.97-5.187-1.66-7.641.27-2.062 1.31-2.749 2.99-3.806 7.59-4.764 13.05-5.513 21.59-12.102z"/>
    <path fill="#1B212C" d="M1611.36 385.031c3.53.858 5.71 1.714 7.63 4.863-.14 3.022-1.06 3.988-2.85 6.269-2.98-1.475-6.56-2.536-8.19-5.605.46-2.91 1.43-3.431 3.41-5.527M1623.4 374.497l2.09-3.171c4.04 3.196 7.12 6.535 7.91 11.825.2 1.335-.03 2.421-.4 3.695l-1.7.421c-5.21-3.553-5.23-7.649-7.9-12.77"/>
    <path fill="#FEFEFE" d="M1547.96 715.039c7.45 1.269 15.18 1.727 22.71 2.514-8.4 11.794-21.1 21.789-31.67 31.71a817 817 0 0 0-38.81 38.459l-7.94 8.517c-3.84-3.083-7.04-6.545-10.34-10.173 8.25-6.126 14.84-15.372 21.95-22.852 15.13-15.919 32.04-29.523 44.1-48.175M1420.33 635.425c8.49 5.475 15.29 15.854 22.84 22.761 20.51 18.77 49.65 9.931 75.02 10.801-3.65 12.44-6.77 24.636-14.67 35.143-1.73.955-3.54 2.041-5.53 2.318-16.75 2.337-77.29-19.639-91.59-29.595 3.08-14.001 9.06-27.926 13.93-41.428"/>
    <path fill="#FEFEFE" d="M1431.3 603.119c26.24-2.069 75.17 11.991 96.19 27.347l-.48 2.952c-1.07 6.277-3.04 22.722-8.15 26.35-18.13-1.443-36.12 1.873-54.23.895-14.66-8.084-28.15-23.455-40.41-34.943 2.05-7.522 3.82-15.504 7.08-22.601M1571.54 441.909c10.42.125 34.45 18.294 42.28 25.339 28.96 26.065 13.74 46.387 5.6 76.915-4.27 15.984-5.39 30.053-4.43 46.533-4.33-4.513-8.71-9.144-13.39-13.287-8.6-7.614-17.76-12.969-23.67-23.101-.96-1.647-1.71-2.512-3.39-3.536-2.64-.216-3.23-.502-5.48.802-.1.379-.23.75-.29 1.137-1.7 12.522 22.54 28.948 30.89 36.887 5.22 4.964 10.21 10.364 14.56 16.111 12.63 16.665 16.74 39.823 22.08 59.712 4.46 16.601 9.78 34.733 9.65 51.992-.23 29.911-16.59 70.21-7.16 98.55 1.37 4.101 4.23 8.017 6.55 11.642-5.04.392-14.5 2.288-18.88-.602-1.37-.91-1.04-2.573-1.23-4.078 1.7-21.246-6.08-90.932 3.13-105.583 2.35-1.108 4.11-1.919 6.01-3.746 1.23-10.117-12.62-51.868-16.66-64.07-14.99-45.277-35.78-56.314-76.59-76.842 2.45-18.779 3.97-38.904 14.09-55.418 4.49-7.33 10.12-14.206 14.94-21.376 1.74 3.054 3.35 5.49 6.16 7.667 4.43 3.437 10.34 7.369 16.12 6.7 2.09-1.518 2.24-1.371 2.77-3.869-2.85-6.216-12.68-9.56-18.26-13.417.36-3.189 1.15-6.525-.13-9.57-.75-1.784-1.12-1.556-2.72-2.283-6.86 2.015-15.76 17.099-20.22 22.821-7.62-7.189-14.04-15.567-20.65-23.667 9.44-14.186 22.54-31.001 38.32-38.363"/>
    <path fill="#1B212C" d="M1849.27 822.178c7.07.341 11.19 1.894 17.27 5.516 10.85 17.802 18.83 38.345 28.07 57.106a3052 3052 0 0 1 54.57 117.61c6.77 15.34 14.86 30.75 20.55 46.5 1.6 4.42 3.17 9.8 2.79 14.51-.45 5.55-5.43 12.26-9.51 15.77-15.03 12.92-35.49 9.76-53.54 8.05a781 781 0 0 1-8.35 92.17 910.57 910.57 0 0 1-361.96 603.75 879.6 879.6 0 0 1-542.387 172.1c-36.349-.62-73.733-2.28-109.68-7.79-.707 14.25-.265 29.11-10.317 40.49-5.252 5.95-11.947 9.45-19.914 9.76-5.815.23-11.562-1-16.619-3.89-12.621-7.22-23.666-19.32-34.548-28.95l-60.195-53.41c-17.062-16.08-34.886-31.47-52.416-47.04-9.422-8.37-21.298-17.05-28.62-27.35-2.584-3.64-4.108-7.07-3.152-11.58 1.059-5 4.737-10.19 9.188-12.71 11.553-6.53 25.954-10.24 38.519-14.66l70.11-24.69a6354 6354 0 0 0 66.536-23.63c15.213-5.57 30.782-12.32 46.47-16.28 3.716-.94 6.882-.72 10.52.43 6.579 2.08 12.499 6.25 15.711 12.46 7.567 14.62-1.673 36.46-5.924 51.11 29.401 2.98 58.495 6.23 88.058 7.2 26.93.89 53.62-.53 80.46-2.7 177.04-14.32 338.82-91.6 467.76-212.71a754.03 754.03 0 0 0 219.59-399.37c6.65-33.32 11.7-67.55 12.76-101.55-12.84 3.47-25.01 3.48-37.05-2.99-7.59-4.08-13.76-10.44-16.14-18.88-1.96-6.98-1.21-13.01 1.22-19.71 5.72-15.82 15.02-30.84 22.49-45.93a5384 5384 0 0 1 55.12-109.069c9.84-18.923 17.84-39.498 28.78-57.729 3.79-6.318 6.45-10.048 13.78-11.914"/>
    <path fill="#FEFEFE" d="M1851.01 832.377c1.02.289 2.21.566 3.17 1.06 10.52 5.443 97.19 200.743 107.54 226.173-1.82 4.75-3.95 8.89-7.93 12.2-11.53 9.59-30.39 5.86-44.17 4.92.29-6.47 1.63-15.03.11-21.25-.65-2.67-1.76-3.36-3.95-4.81-2.83.11-3.23.24-5.6 1.79-3.9 16.35-2.98 34.26-4 51.03a922 922 0 0 1-8.56 84.05 919.7 919.7 0 0 1-51.56 189.23c-64.49 165.84-170.46 299.25-313.95 403.79a877.24 877.24 0 0 1-641.794 153.48c-9.863 3.88-2.335 36.28-12.798 47.29-2.636 2.77-6.338 4.12-10.119 4.22-3.333.08-7.662-.48-10.632-2.1-13.508-7.36-26.493-21.55-38.017-31.79l-66.196-58.9c-8.999-8.08-67.238-57.73-69.43-63.31-.258-.66-.126-1.41-.189-2.11 1.059-1.46 2.005-2.64 3.489-3.7 11.539-8.23 80.167-29.62 98.667-36.21 38.237-13.6 76.378-29.25 115.099-41.28 2.633-.82 5.428-1.69 8.204-1.09 4.087.89 8.151 4.27 10.214 7.83 5.105 8.83-5.657 32.55-7.723 42.42-.89 4.24-1.543 7.63.903 11.41 9.288 4.01 42.424 6.3 53.942 7.31 113.71 10.03 225.55-6.86 332.52-46.08a783.94 783.94 0 0 0 436.1-403.18 765 765 0 0 0 69.27-272.99c.66-10.32 4.25-30.36.11-39.56-1.1-2.44-2.1-2.97-4.52-3.81-2.75.47-3.15.63-5.26 2.44-2.8 6.41-1.13 16.95-1.03 24.09-4.33 1.79-8.58 3.54-13.28 3.99-8.38.79-18.42-.7-25.05-6.27-4.1-3.44-6.31-8.41-6.59-13.72-.25-4.68 2.73-10.28 4.66-14.48 23.64-51.383 50.71-101.846 76.44-152.249 7.55-14.796 22.1-48.836 31.91-59.834"/>
    <path fill="#1B212C" d="M1842.22 1112.82c3.03.27 5.3.48 8.04 1.99 3.2 8.06-4.05 46.06-5.58 55.67a859.77 859.77 0 0 1-340.39 557.83 822.8 822.8 0 0 1-617.159 149.51c-2.201-.57-3.54-1.32-5.394-2.62-1.405-2.63-2.027-3.43-1.978-6.47 6.819-6.08 40.642 1.56 50.379 2.79 63.331 8.01 129.982 6.3 193.172-2.18a836.47 836.47 0 0 0 641.55-477.02c18.17-38.9 32.74-80.13 44.99-121.26a757 757 0 0 0 24.46-118.85c.96-7.27 2.6-33.43 6.77-38.2.36-.41.76-.8 1.14-1.19M895.938 36.176l1.018-.133c5.918-.715 10.429.11 16.031 1.987 14.633 4.903 28.713 11.6 42.883 17.692l84.53 37.083c16.86 7.324 71.2 27.1 82.61 36.387 4.24 3.445 6.97 7.585 7.35 13.123.4 5.898-1.84 11.814-5.85 16.129-6.27 6.735-16.36 12.372-23.99 17.784l-54.79 38.636-80.398 56.189c-11.806 8.233-23.392 17.845-35.741 25.195-4.204 2.502-8.813 3.995-13.744 3.935-6.667-.082-13.607-2.702-18.282-7.521-11.68-12.038-8.861-33.949-8.66-49.384A791.8 791.8 0 0 0 606.554 360.06c-149.922 98.47-272.781 256.624-321.889 430.056a1121 1121 0 0 0-26.65 118.381c-3.4 20.576-4.588 42.009-8.898 62.342l-.203.925c.478.247.959.489 1.435.74 14.014 7.408 19.326 16.68 23.813 31.326 21.963-10.147 41.366-18.907 66.098-16.401 20.458 2.073 40.381 10.61 53.447 26.941 16.685 20.86 9.491 35.71 6.903 58.83l-.14 1.33c6.124 5.2 24.805 13 27.149 18.85-.623 4.54-3.919 8.43-7.132 11.51-2.905 2.78-5.588 5.66-8.287 8.64-1.035 10.64.531 25.82-4.405 35.36-5.551 10.72-30.826 8.1-41.606 11.54-.394.13-.782.27-1.173.4.166 9.67.23 18.84 1.896 28.41.96.21 1.922.41 2.873.66 23.581 6.16 34.487 58.09 42.095 78.88 3.131 8.55 7.153 16.31 11.66 24.21 13.299-5.87 26.635-13.24 41.521-12.92 1.955-5.19 4.074-9.89 7.559-14.26 12.485-15.65 30.854-19.49 49.169-23.96 3.901-.95 8.53-3.23 12.498-3.22 3.194 0 5.735 2.83 7.975 4.83 1.587 1.42 1.798 1.14 3.936 1.42 3.111.41 6.26.56 9.001 2.26 2.329 1.44 3.71 3.7 4.063 6.41 1.898 14.57-13.703 31.87-21.946 43.01-4.769 6.44-.104 16.49-7.277 25.91-5.026 6.6-15.988 12.82-24.362 13.59-4.904.45-11.387-11.77-15.283-15.29l-1.079.7c.056 6.94 8.264 12.45 8.039 20.08-8.306 8.59-18.359 17.73-28.274 24.39-5.879-1-8.972-5.44-12.623-9.76-14.111 16.97-28.862 32.55-45.835 46.74 7.635 24.61 15.727 49.16 22.792 73.94-5.714 4.46-11.918 7.38-18.434 10.45 25.607 76.15 46.996 154.1 70.306 231l29.504 95.21c5.794 18.39 12.261 36.75 17.143 55.4l-11.903 6.44c4.7 13.52 11.65 26.13 16.786 39.5 13.353-2.51 62.212-18.88 71.959-15.45 6.445 2.27 11.942 11.4 14.17 17.4 1.25 3.36 1.796 7.72-.046 10.98-9.762 17.27-84.252 49.02-105.028 55.48-4.582 1.2-9.498 2.29-14.147.88-17.263-5.21-11.963-39.74-15.585-53.53-3.158-12.02-10.956-24.49-16.532-35.66-3.022.57-6.918 1.71-9.908.91-1.557-.42-2.714-2.21-3.588-3.49-6.603-9.68-11.274-21.26-16.423-31.8l-24.46-49.17c-34.929-69.89-68.55-140.54-104.708-209.8-1.509 18.74-14.078 116.66-19.776 128.75-11.58 24.57-61.507 77.34-80.699 98.63-8.987 9.97-17.808 20.82-27.436 30.12-3.89 3.76-9.634 3.46-12.998 8.15-5.459 7.61-11.341 14.97-17 22.44 16.654 45.71 40.738 33.9 50.932 54.1 2.641 5.23 2.153 11.03.174 16.4-1.874 5.09-4.424 10.81-9.734 13.06-7.217 3.06-18.227-1.36-25.172-3.94-13.826-5.14-27.362-11.79-40.216-19.03-11.099-6.25-48.566-30.26-52.65-40.94-2.968-7.75 29.398-39.97 34.935-47.22 5.951-7.79 10.933-16.17 15.745-24.7-1.695-2.67-4.6-6.4-4.587-9.73.02-5.03 16.35-34.16 19.938-41.35l26.759-53.71c4.95-9.95 11.621-20.88 14.46-31.6 3.573-13.49 3.141-57.76 4.17-75.23 2.984-50.68 8.891-101.72 9.771-152.44-2.847-2.69-6.259-5.54-8.532-8.74-2.304-3.25-3.223-8.01-3.149-11.93.162-8.66 7.655-32.53 9.551-44.13-7.576-10.64-14.264-22.51-21.348-33.56-26.177-40.83-50.346-82.54-75.256-124.11-7.39-12.33-23.054-30.72-26.015-44.13-1.239-5.61-.364-11.8 3.062-16.51 9.473-13.02 49.476-15.57 65.525-18.06-46.317-222.338 3.587-470.089 125.323-661.056a927.4 927.4 0 0 1 503.105-388.836c34.48-11.064 69.869-19.062 105.196-26.864-3.558-12.293-7.611-25.241-3.002-37.876 3.933-10.778 12.384-16.721 22.342-21.392"/>
    <path fill="#FEFEFE" d="M107.566 1881.6c12.069 2.13 17.417 13.04 38.93 14.59 2.877 8.38 6.887 15.01 11.778 22.32-15.606-6.05-41.82-22.88-50.708-36.91M569.654 1916.13l1.085.32c-8.155 8.66-58.917 26.42-70.476 28.62-1.524-1.47-1.753-3.11-2.362-5.09.265-1.02.27-2.15.795-3.07 1.739-3.04 30.651-4.62 39.917-14.96 10.814-.83 20.658-2.66 31.041-5.82M602.079 1907.68l2.741.75.299 1.58c-2.834 4.7-9.602 7.97-14.225 10.88-27.557 17.29-55.426 29.75-86.667 39.07l-2.463-.42c-1.138-2.24-1.809-3.35-1.388-5.89 4.048-1.86 9.142-2.45 13.53-3.21 27.845-4.83 62.69-29.69 88.173-42.76M101.397 1889.38c1.566.78.988.33 2.219 1.59 19.002 19.39 41.281 30.18 65.802 40.65 7.645 3.27 16.717 6.25 23.583 10.88 2.293 1.54 3.257 3.33 3.84 6l-1.17 1.75c-18.837-9.23-38.454-15.12-56.803-25.8-7.554-4.4-38.438-23.24-40.411-30.81zM241.091 1106.52c5.822 3.89 17.408 25.25 23.05 32.59 3.84 5 8.716 8.99 12.359 14.13l-.832 1.24a1448 1448 0 0 1-28.762 3.88c-3.632-16.84-3.564-34.73-5.815-51.84M610.79 1916.8c2.168 1.29 2.105 1.59 3.058 3.97-.362 2.03-.248 2.62-1.596 4.31-11.06 13.81-88.466 48.84-107.115 50.48-.191-.19-.407-.36-.572-.58-1.703-2.24-2.065-2.73-1.889-5.41 1.114-.92 1.129-1.03 2.662-1.75 4.376-2.07 11.021-2.62 15.828-4.09a282 282 0 0 0 32.6-12.6c20.535-9.3 39.023-20.85 57.024-34.33M92.283 1901.43c22.006 18.16 44.537 33.55 70.758 45.17 6.841 3.04 24.807 8.23 28.946 10.84 1.963 1.23 1.987 1.67 2.503 3.79l-2.46 3.7c-28.434-3.54-82.166-35.54-103.284-56.46.38-3 1.864-4.61 3.537-7.04M136.878 1841.54c9.667 5.17 19.207 12.95 28.405 19.09-6.775 8.82-14.434 16.93-21.449 25.56-.1.04-.194.09-.298.11-7.593 1.18-20.846-7.58-27.185-11.48 7.191-10.91 13.902-22.03 20.527-33.28M510.846 1880.06c4.854 6.39 14.061 31.18 17.985 40.13-10.486 3.29-19.791 4.67-30.778 4.88-3.176-2.31-14.166-27.31-17.487-33.15a493 493 0 0 0 30.28-11.86M458.642 1294.71c4.53 1.69 24.844 37.44 28.339 43.81-4.789 3.79-15.278 15.23-20.82 15.22-10.76-13.81-20.294-28.82-30.51-43.07a590 590 0 0 0 22.991-15.96M383.868 1409.71c6.089.26 12.226.05 18.14-1.6 7.239 21.39 14.887 42.93 20.622 64.77l-21.241 10.86c-1.797-16.09-18.965-65.45-17.521-74.03M292.04 1209.54c4.995 1.12 9.128 2.37 13.316 5.41 10.868 7.88 19.42 19.65 27.864 29.98a6705 6705 0 0 0 48.595 59.22c7.311 8.83 14.209 19.19 22.72 26.86 7.722-4.79 15.525-9.49 23.111-14.5a284 284 0 0 1 18.291 27.05c-15.869-2.14-31.225-10.48-47.287-10.77-11.202-9.71-21.436-20.63-31.173-31.8-19.615-22.5-36.842-47.05-56.254-69.74-4.023-4.7-18.187-17.28-19.183-21.71M522.963 1250.16c-5.288 4.45-10.455 7.92-12.81 14.66l.724 1.41c9.658-.95 14.923-12.24 20.495-18.26 1.861-.25 1.625-.6 3.253.61 2.09 7.98-15.044 14.98-15.3 25.75l1.73.76-1.795-1.51.065.7c.775.18 1.542.68 2.324.54 3.795-.71 17.552-17.33 23.273-20.17 1.534-.76 2.476.07 3.994.59 1.014 2.7 1.626 4.35 1.097 7.3l-1.379.83c-6.714 16.56-18.769 30.41-35.554 37.22-9.58 3.88-19.398 6.57-28.477 11.65l-1.532.86-14.22-22.09c3.777-4.18 4.714-9.65 7.538-14.36 10.396-17.3 28.084-22.12 46.574-26.49"/>
    <path fill="url(#a)" d="M548.916 1255.24c1.014 2.7 1.626 4.35 1.097 7.3l-1.379.83c-7.191 6.04-14.097 16.97-22.249 21.11l-1.798-1.06-.196-2.37c3.451-8.47 16.453-21.29 24.525-25.81"/>
    <path fill="#FEFEFE" d="M165.018 1846.85a8661 8661 0 0 0 68.208-83.61c11.522-14.29 25.195-28.84 34.442-44.68l1.021-1.77c5.442-9.22 5.951-25.89 7.806-36.65a5498 5498 0 0 1 12.859-69.49c2.162-11.58 3.281-24.4 7.031-35.5l1.68-.8 7.419 14.35a4014 4014 0 0 0-12.652 89.22c-1.884 13.8-2.471 29.65-6.627 42.86-7.596 24.13-88.066 109.41-109.963 132.98-3.824-2.17-7.747-4.2-11.224-6.91M288.705 1179.96c16.031 5.41 31.979 10.94 48.462 14.83 11.745 2.77 23.749 4.22 35.476 7.01 3.226 2.8 6.413 5.51 8.637 9.22 5.76 9.61 9.075 22.34 12.678 32.96 6.256 18.44 12.314 36.53 21.277 53.91-2.073 3.01-4.14 5.52-4.636 9.21l.892 1.61c5.162.26 26.223-13.09 35.152-15.85-13.124 8.44-26.321 18.58-40.18 25.68-5.214-5.22-10.942-11.15-14.802-17.45-18.237-18.17-34.782-40.93-50.809-61.27-7.506-9.52-16.185-23.05-25.829-30.31-8.629-6.49-18.959-8.65-29.24-10.99-1.026-2.31-.046-3.94.566-6.32z"/>
    <path fill="#B8BEBF" d="M391.661 1301.09c-18.237-18.17-34.782-40.93-50.809-61.27-7.506-9.52-16.185-23.05-25.829-30.31-8.629-6.49-18.959-8.65-29.24-10.99-1.026-2.31-.046-3.94.566-6.32 28.36 9.05 56.233 17.2 84.998 24.82 2.438 8.47 20.522 80.53 20.314 84.07"/>
    <path fill="#FEFEFE" d="M391.717 1498.81a363 363 0 0 0 15.532-7.51 13208 13208 0 0 0 48.533 161.38c21.102 70.42 41.673 141.39 65.028 211.09-4.559 2.49-9.101 4.97-13.786 7.22-5.159-9.2-7.917-21.52-11.014-31.64a4331 4331 0 0 0-16.183-52.69 12174 12174 0 0 1-53.07-171.24c-11.984-38.58-25.669-77.32-35.04-116.61"/>
    <path fill="#222D3E" d="M202.736 981.396c14.858-5.09 30.4-8.729 45.327-1.242 7.976 4.001 13.586 10.687 16.355 19.148 1.155 3.528 2.101 7.688 2.152 11.418 2.173 5.72 1.01 11.55-.993 17.16-4.97 13.91-13.462 28.33-27.379 34.69-10.772 4.93-23.678 4.91-34.679.73-11.71-4.46-21.93-13.83-26.734-25.49-4.149-10.07-3.2-21.4 1.24-31.22 4.62-10.219 14.077-21.169 24.711-25.194"/>
    <path fill="#FEFEFE" d="M202.736 981.396c14.858-5.09 30.4-8.729 45.327-1.242 7.976 4.001 13.586 10.687 16.355 19.148 1.155 3.528 2.101 7.688 2.152 11.418-2.377 3.02-4.897 5.95-7.357 8.91-2.287-7.22-5.209-13.98-9.875-19.988-12.903-16.617-28.094-16.028-46.602-18.246M285.725 1006.48c24.916-10.657 49.555-16.045 75.638-5.73 13.259 5.25 26.053 14.94 31.962 28.2 8.8 19.77-4.971 42.78 2.022 51.91 4.321 5.64 16.359 10.56 22.791 14.04-8.987 10.64-13.06 12.09-14.929 26.55-6.49-2.85-10.983-5.5-18.24-4.17l-.688 1.5c3.917 6.99 11.747 8.5 18.856 10.74-.107 5.24.51 10.93-3.475 14.97-4.364 4.43-10.528 5.56-16.511 5.29-19.486-.9-19.035-9.83-28.261-12.54-1.836 1.87-2.122 2.46-2.16 5.26-.034 2.58 1.472 4.84 3.092 6.67l6.377 2.41.346.91-.779.85c-5.477 6.11-7.086 11.69-6.538 19.87.34 5.09.832 10.27 1.537 15.32-10.175-2.34-59.229-12.76-64.662-20.03l-.074-2.32c.188-1.75.289-5.43 1.31-6.9 6.045-8.71 25.197-5.35 32.882-14.79 9.922-12.19-12.862-26.44-17.895-35.83-3.376-6.3-3.43-13.36-3.592-20.3 32.72-10.44 54.346-28.93 70.551-59.17-1.281-1.85-2.601-3.57-4.197-5.17-15.751-15.7-40.41-21.15-61.915-19.69-7.107.48-14.637 2.45-21.682 2.23-.589-.02-1.177-.06-1.766-.08"/>
    <path fill="#222D3E" d="M285.725 1006.48c.589.02 1.177.06 1.766.08 7.045.22 14.575-1.75 21.682-2.23 21.505-1.46 46.164 3.99 61.915 19.69 1.596 1.6 2.916 3.32 4.197 5.17-16.205 30.24-37.831 48.73-70.551 59.17.162 6.94.216 14 3.592 20.3 5.033 9.39 27.817 23.64 17.895 35.83-7.685 9.44-26.837 6.08-32.882 14.79-1.021 1.47-1.122 5.15-1.31 6.9-.157-1.78-.012-7.1-.724-8.48-1.998-3.84-19.246-20.13-23.893-26.24-14.273-18.75-21.273-38.76-31.033-59.79 17.683-7.95 29.46-21.29 35.071-39.94 1.855-6.17 2.994-13.51 5.808-19.27 1.666-3.42 5.062-4.89 8.467-5.98"/>
    <path fill="#B8BEBF" d="M195.881 1456.76c9.809-42.37 19.583-84.57 28.483-127.18 6-28.73 12.052-70.48 23.095-97.16 2.962-7.16 7.529-12.85 13.941-17.22 9.042-6.18 20.032-7.65 30.64-5.66.996 4.43 15.16 17.01 19.183 21.71 19.412 22.69 36.639 47.24 56.254 69.74 9.737 11.17 19.971 22.09 31.173 31.8 16.062.29 31.418 8.63 47.287 10.77 1.949 2.95 2.788 3.48 2.587 7.11-8.352 13.44-38.616 45.33-53.701 48.71-8.006 1.8-15.765-.74-22.378-5.28-13.597-9.35-24.936-26.12-35.654-38.65-14.202-16.6-28.662-32.94-42.637-49.74-5.276-6.35-10.469-14.87-16.466-20.33-2.501-2.28-6.417-4.35-9.843-4.44l-1.343 1.08c-.003 3.6 1.95 6.81 3.965 9.69 6.285 8.95 14.509 16.82 21.42 25.34a1779 1779 0 0 0 47.158 55.8c6.258 7.23 12.117 15.34 18.839 22.08 6.787 6.8 14.419 11.27 23.615 14.06l1.478.45.891.27c-1.444 8.58 15.724 57.94 17.521 74.03-31.071 16.05-62.458 30.72-98.389 28.2-39.216-2.76-81.481-25.71-107.119-55.18"/>
    <path fill="#222D3E" d="M132.671 1828.1c13.345-27.33 27.475-54.53 41.327-81.63 6.659-13.02 16.065-27.6 20.141-41.56 4.057-13.91 2.684-42.65 3.327-58.29a4915 4915 0 0 1 4.215-84.49c1.308-26.58 2.062-54.65 6.546-80.89l.226-1.26c16.859 12.59 33.688 24.24 53.725 31.24 45.429 15.88 87.198 7.79 129.539-12.41 9.371 39.29 23.056 78.03 35.04 116.61a12174 12174 0 0 0 53.07 171.24 4331 4331 0 0 1 16.183 52.69c3.097 10.12 5.855 22.44 11.014 31.64-2.794.08-7.623 3.93-10.42 5.23-9.809 4.54-19.883 8.31-30.047 11.97-23.413-40.05-152.091-310.42-162.442-317.33l-6.05 3.49-1.68.8c-3.75 11.1-4.869 23.92-7.031 35.5a5498 5498 0 0 0-12.859 69.49c-1.855 10.76-2.364 27.43-7.806 36.65l-1.021 1.77c-9.247 15.84-22.92 30.39-34.442 44.68a8661 8661 0 0 1-68.208 83.61c-10.416.7-24.226-12.65-32.347-18.75"/>
    <path fill="#FEFEFE" d="M900.333 46.94c5.019.326 9.396 1.835 14.026 3.679 34.325 13.667 67.797 30.042 101.791 44.591 19.87 8.504 88.12 34.587 101.58 44.729.98 1.912 1.2 2.555.96 4.783-.46 4.325-3.93 6.726-7.14 9.208-28.95 22.42-60.4 42.391-90.24 63.689a3115 3115 0 0 1-67.514 47.151c-10.038 6.911-19.812 14.873-30.395 20.885-3.376 1.919-8.272 4.214-12.305 3.245-18.434-4.428-5.066-46.34-12.904-57.144-.903-1.245-1.907-1.191-3.327-1.308-12.159-1.005-38.158 7.604-50.48 10.832a796.75 796.75 0 0 0-296.433 146.144c-124.778 99.498-222.791 232.34-270.943 385.366-20.069 63.78-31.462 129.887-38.995 196.175a77 77 0 0 0-2.317-.626c-15.882-3.977-29.5 2.251-42.851 10.069.375-23.338 3.912-47.666 6.973-70.777a839.95 839.95 0 0 1 116.904-333.847c95.47-156.627 233.923-281.252 404.145-351.673 30.726-12.712 62.723-24.968 95.034-32.984 4.002-.993 6.745-1.919 8.957-5.572.114-2.584.22-2.871-1.146-5.029-1.762-.898-3.201-1.332-5.169-1.348-13.04-.105-47.229 13.349-60.836 18.262-114.702 41.414-212.374 102.158-301.695 185.102l-3.896 3.802C316.267 517.87 226.203 680.769 193.253 868.859c-6.803 38.836-12.46 79.406-12.795 118.877-3.533 3.866-7.108 8.148-9.742 12.694-9.801 16.91-1.264 30.62-.566 47.69.6 14.67-.242 29.39.475 44.11 1.432 29.38 5.735 58.24 10.7 87.21 2.027 11.82 3.402 24.88 6.946 36.33 1.101 3.55 2.335 6.42 5.748 8.22 1.759-.35 1.584-.01 2.66-1.16 2.933-3.13 3.18-8.35 2.747-12.4-.679-6.34-2.607-12.62-3.753-18.9-2.198-12.06-4.015-24.22-5.867-36.33-5.053-33.06-6.978-64.84-7.531-98.22a84 84 0 0 0 8.913 7.67c12.551 9.49 25.031 11.21 40.146 9.06-2.804 17.21-2.145 80.36 6.272 93.31 7.819 4.82 36.869-1.94 46.703-3.51-4.293 11.55-7.639 23.89-10.529 35.86-5.259 1.93-10.326 3.93-15.188 6.76-9.283 5.41-15.222 12.77-19.69 22.38-8.393 18.06-11.218 40.11-15.352 59.53-7.472 35.09-14.069 70.46-22.625 105.31-6.76-9.65-12.69-20.1-19.044-30.04-18.378-28.75-36.063-57.71-53.534-87.02-13.128-22.02-28.203-44.08-39.754-66.9-1.603-3.17-3.767-7.47-3.193-10.95 9.815-13.23 49.413-10.09 64.913-17.77 2.761-1.37 4.018-2.93 4.283-6.05.854-10.04-7.027-46.32-8.803-58.87-3.35-23.69-5.368-47.92-6.464-71.82-5.425-118.271 14.085-234.783 52.24-346.499 82.3-240.976 275.009-439.635 509.571-536.385 30.898-12.745 62.74-24.329 94.964-33.25a2354 2354 0 0 1 51.932-13.495c10.151-2.444 32.079-5.385 40.629-10.125 5.825-3.23-7.97-28.789-3.704-41.771 2.544-7.742 8.368-11.972 15.372-15.465"/>
</svg>
