<svg version="1.1" xmlns="http://www.w3.org/2000/svg" style="display: block;" viewBox="0 0 2048 2048" width="1024" height="1024">
<defs>
	<linearGradient id="Gradient1" gradientUnits="userSpaceOnUse" x1="536.906" y1="1279.64" x2="536.096" y2="1259.4">
		<stop class="stop0" offset="0" stop-opacity="1" stop-color="rgb(20,29,31)"/>
		<stop class="stop1" offset="1" stop-opacity="1" stop-color="rgb(36,37,50)"/>
	</linearGradient>
</defs>
<path transform="translate(0,0)" fill="rgb(254,254,254)" d="M 0 0 L 2048 0 L 2048 2048 L 0 2048 L 0 0 z"/>
<path transform="translate(0,0)" fill="rgb(34,45,62)" d="M 1269.24 866.444 C 1282.76 866.344 1300.76 866.884 1311.55 876.104 C 1315.93 879.854 1317.33 884.794 1318.04 890.346 C 1320.25 907.431 1318.07 926.81 1317.85 944.144 A 8400.22 8400.22 0 0 0 1317.16 1039.86 C 1317.12 1056.17 1316.33 1072.92 1317.32 1089.19 C 1317.54 1092.86 1317.64 1097.01 1320.58 1099.59 C 1327.49 1102.38 1335.31 1100.52 1342.49 1099.59 C 1344.82 1113.4 1348.08 1127.02 1350.14 1140.89 C 1349.11 1143.59 1347.68 1143.77 1345.2 1145.14 C 1335.55 1148.8 1325.57 1151.31 1315.2 1151.52 C 1303.26 1151.77 1290.86 1148.86 1282.21 1140.12 C 1276.28 1134.12 1271.12 1124.38 1269.51 1116.18 C 1265.51 1095.75 1268.37 1060.73 1268.37 1038.93 C 1268.36 981.57 1267.45 923.765 1269.24 866.444 z"/>
<path transform="translate(0,0)" fill="rgb(27,33,44)" d="M 1538.12 94.9809 C 1557.71 101.694 1651.46 220.975 1669.39 244.892 C 1795.13 412.606 1889.53 610.364 1930.24 816.594 C 1932.56 828.355 1944.85 883.322 1942.61 891.804 C 1941.54 895.839 1938.5 897.645 1935.28 899.846 C 1934.25 899.672 1933.22 899.494 1932.2 899.253 C 1922.21 896.884 1923.12 886.145 1921.83 877.775 A 1283.18 1283.18 0 0 0 1849.44 607.583 A 1437.64 1437.64 0 0 0 1631.65 228.387 A 2022.48 2022.48 0 0 0 1563.92 148.612 C 1554.8 138.386 1537.27 123.053 1531.22 112.214 C 1529.48 109.104 1528.07 105.406 1529.48 101.875 C 1531.03 97.9969 1534.57 96.5075 1538.12 94.9809 z"/>
<path transform="translate(0,0)" fill="rgb(34,45,62)" d="M 917.423 931.981 L 918.627 932.429 C 923.146 943.334 926.674 954.792 930.789 965.87 C 938.517 986.675 946.602 1007.38 953.988 1028.31 C 958.591 1041.35 962.44 1054.85 967.927 1067.54 C 975.916 1054.86 980.056 1039.27 984.906 1025.18 C 995.443 994.556 1004.49 963.298 1015.5 932.877 A 529.312 529.312 0 0 1 1062.33 946.827 C 1054.4 974.607 1043.25 1001.65 1033.55 1028.88 L 992.326 1150.95 C 976.85 1151.25 961.343 1150.99 945.863 1150.92 C 941.492 1137.08 935.634 1123.57 930.894 1109.82 C 923.212 1087.54 916.344 1064.98 908.577 1042.73 C 897.68 1011.52 885.929 980.599 875.651 949.171 C 889.003 942.378 903.458 937.358 917.423 931.981 z"/>
<path transform="translate(0,0)" fill="rgb(34,45,62)" d="M 1149.05 937.365 C 1156.79 936.446 1165.16 936.59 1172.89 937.534 A 87.2599 87.2599 0 0 1 1232.27 971.087 C 1246.6 989.463 1253.71 1013.43 1250.76 1036.61 C 1237.73 1044.5 1219.59 1048.72 1205.09 1053.56 C 1175.15 1063.55 1145.26 1073.71 1114.84 1082.16 C 1115.33 1082.77 1115.81 1083.39 1116.33 1083.98 C 1127.27 1096.65 1141.81 1103.36 1158.35 1104.36 C 1179.99 1105.68 1195.01 1095.71 1210.55 1082.06 C 1218.02 1087.56 1224.76 1093.99 1231.61 1100.24 C 1237.01 1105.59 1242.09 1110.99 1246.94 1116.85 C 1231.03 1136.48 1205.89 1147.51 1181.37 1151.16 C 1152.74 1155.42 1121.99 1150.38 1098.56 1132.61 C 1075.92 1115.44 1061.7 1088.31 1057.99 1060.41 C 1054.02 1030.52 1060.73 999.559 1079.29 975.491 C 1096.66 952.98 1121.28 941.013 1149.05 937.365 z"/>
<path transform="translate(0,0)" fill="rgb(254,254,254)" d="M 1153.66 983.313 C 1160.52 982.892 1167.06 982.833 1173.83 984.44 C 1182.89 986.589 1192.14 992.508 1196.78 1000.79 C 1198.35 1003.61 1198.34 1005.43 1197.4 1008.43 C 1187.58 1015.64 1154.17 1023.29 1140.67 1027.37 C 1133.13 1029.41 1113.15 1038.84 1106.83 1037.44 C 1105.33 1037.1 1105.06 1035.95 1104.29 1034.76 C 1103.33 1025.59 1111 1011.83 1116.45 1004.54 C 1126.31 991.368 1137.59 985.697 1153.66 983.313 z"/>
<path transform="translate(0,0)" fill="rgb(34,45,62)" d="M 775.954 937.352 C 794.157 934.834 815.247 937.539 831.487 946.374 C 853.266 958.223 868.915 979.904 875.719 1003.5 C 878.125 1011.85 881.869 1025.5 876.997 1033.4 C 868.578 1047.06 774.304 1074.64 756.097 1078.39 C 753.539 1078.91 749.472 1079.29 748.091 1081.41 C 748.351 1084.14 749.674 1086 751.49 1087.97 C 762.024 1099.42 778.281 1104.98 793.569 1105.27 C 816.24 1105.71 831.735 1095.54 847.572 1080.32 C 854.38 1086.28 860.872 1092.63 867.451 1098.84 C 871.645 1102.71 875.572 1106.82 879.527 1110.93 C 878.502 1112.73 877.448 1114.51 876.269 1116.21 C 862.56 1135.94 838.465 1147.81 815.187 1151.48 C 784.476 1156.33 752.067 1149.28 726.988 1130.63 C 703.557 1113.21 689.805 1087.74 685.791 1059 C 681.684 1029.59 688.771 998.837 706.91 975.083 C 723.175 953.784 749.791 940.896 775.954 937.352 z"/>
<path transform="translate(0,0)" fill="rgb(254,254,254)" d="M 778.853 983.26 C 790.64 981.913 803.764 982.747 813.98 989.325 C 821.895 994.422 824.608 1000.11 826.629 1008.96 C 809.787 1016.69 790.726 1021.53 773.023 1027.11 C 760.036 1031.21 746.928 1035.91 733.622 1038.81 C 733.951 1027.01 737.273 1015.86 743.78 1005.99 C 752.331 993.015 763.894 986.275 778.853 983.26 z"/>
<path transform="translate(0,0)" fill="rgb(34,45,62)" d="M 1441.92 938.378 A 108.476 108.476 0 0 1 1515.62 958.148 A 102.767 102.767 0 0 1 1556.92 1026.3 A 110.079 110.079 0 0 1 1537.16 1107.78 C 1519.14 1132.1 1494.67 1145.8 1464.9 1150.12 C 1437.97 1152.79 1410.32 1146.13 1388.52 1129.74 C 1366.39 1113.11 1352.06 1089.4 1348.16 1061.97 A 110.819 110.819 0 0 1 1369.46 978.676 C 1387.75 954.894 1412.49 942.142 1441.92 938.378 z"/>
<path transform="translate(0,0)" fill="rgb(254,254,254)" d="M 1442.11 987.17 C 1455.21 986.115 1467.7 986.533 1479.52 993.079 A 58.5648 58.5648 0 0 1 1507.02 1027.96 A 59.2975 59.2975 0 0 1 1500.91 1073.76 C 1492.5 1087.98 1479.4 1096.63 1463.66 1100.79 C 1450.27 1103.16 1436.69 1101.24 1424.83 1094.42 C 1411.85 1086.95 1402.77 1074.03 1399.07 1059.63 A 60.5633 60.5633 0 0 1 1406.25 1012.88 C 1414.58 999.275 1426.73 991.002 1442.11 987.17 z"/>
<path transform="translate(0,0)" fill="rgb(34,45,62)" d="M 535.508 863.407 C 556.255 860.376 587.612 862.367 607.572 867.991 C 630.572 874.471 650.186 888.281 661.933 909.32 C 672.994 929.13 676.141 955.044 669.878 976.887 C 662.661 1002.06 644.628 1017.12 622.452 1029.22 C 628.122 1039.68 635.739 1049.58 642.067 1059.71 C 657.304 1084.12 672.676 1109.5 685.791 1135.08 C 676.66 1141.61 658.625 1154 646.927 1151.9 C 634.255 1149.63 623.515 1127.55 617.079 1117.55 C 602.663 1092.91 588.395 1068.08 572.925 1044.08 A 479.984 479.984 0 0 1 537.883 1043.89 C 536.954 1079.68 537.855 1115.73 537.877 1151.55 C 520.937 1152.05 503.923 1151.75 486.974 1151.76 L 487.021 869.527 A 448.221 448.221 0 0 1 535.508 863.407 z"/>
<path transform="translate(0,0)" fill="rgb(254,254,254)" d="M 540.314 909.505 C 550.695 909.079 561.112 908.592 571.486 909.393 C 586.752 910.571 604.601 914.297 614.741 926.794 C 622.276 936.08 624.174 948.575 622.914 960.198 C 621.593 972.393 616.719 979.968 607.493 987.613 C 585.717 999.928 562.46 1000.05 538.067 1000.01 C 537.938 984.323 535.748 921.763 538.378 910.56 L 540.314 909.505 z"/>
<path transform="translate(0,0)" fill="rgb(27,33,44)" d="M 1466.4 164.919 C 1473.18 164.651 1475.75 166.156 1480.78 170.505 C 1489.88 178.37 1498.27 187.369 1506.79 195.86 A 1025.19 1025.19 0 0 1 1571.77 265.971 A 1343.44 1343.44 0 0 1 1819.31 692.34 C 1825.85 710.245 1848.41 770.099 1849.09 787.699 C 1849.24 791.439 1848.6 793.883 1846.04 796.62 C 1844.12 797.217 1842.49 797.821 1840.43 797.45 C 1829.1 795.408 1824.22 765.014 1821.32 755.393 C 1801.09 688.446 1775.18 621.117 1743.71 558.605 C 1715.58 502.742 1682.65 449.151 1648.52 396.788 C 1648.42 398.696 1648.3 400.606 1648.04 402.499 C 1643.32 436.901 1629.28 424.468 1617.05 434.739 C 1614.9 436.541 1614.62 438.355 1615.21 441.052 C 1616.29 445.983 1619.66 449.61 1622.82 453.355 C 1637.07 470.294 1641.93 484.796 1640.33 506.654 A 307.321 307.321 0 0 0 1686.5 540.345 C 1694.76 539.859 1702.54 540.973 1709.29 546.185 C 1713.53 549.451 1716.56 554.04 1717.05 559.439 C 1717.52 564.541 1715.8 570.766 1712.47 574.704 C 1710.43 577.123 1707.56 578.847 1704.31 578.858 C 1696.66 578.885 1691.14 569.311 1685.78 564.52 L 1684.76 563.621 C 1663.56 560.359 1648.93 550.327 1631.47 538.683 C 1625.21 556.956 1622.36 575.028 1625.02 594.309 C 1626.76 606.866 1632.03 618.802 1636.02 630.778 C 1644.37 655.801 1655.06 689.477 1655.65 715.571 C 1655.88 725.489 1654.29 735.231 1652.75 744.996 C 1650.38 763.952 1643.83 785.922 1646.09 804.989 C 1648.28 823.532 1669.3 820.996 1680.83 830.772 C 1683.4 832.943 1685.08 835.59 1685.3 839.035 C 1685.53 842.488 1684.48 845.178 1682.11 847.685 C 1673.58 856.73 1641.28 853.654 1628.26 853.583 C 1623.43 853.556 1616.82 853.369 1613.54 849.186 C 1613.15 848.701 1612.83 848.169 1612.57 847.611 C 1609.78 841.625 1615.67 823.616 1616.14 815.792 C 1617.01 801.17 1614.67 785.655 1614.23 770.94 C 1613.71 753.588 1615.31 736.183 1617.14 718.946 L 1583.22 718.315 C 1557.4 747.745 1522.44 772.002 1499.36 803.051 L 1498.95 817.8 C 1503.36 821.895 1511.85 829.457 1511.67 835.962 C 1511.59 838.608 1511.06 839.147 1509.37 840.959 C 1505.48 842.497 1502.18 842.401 1498.12 841.386 C 1479.45 836.719 1464.47 815.407 1454.97 799.773 C 1462.35 785.434 1469.54 785.182 1479.9 775.694 C 1487.26 768.955 1493.66 761.02 1500.59 753.834 C 1511.97 742.036 1528.31 729.936 1536.26 715.699 C 1535.37 715.128 1534.48 714.569 1533.61 713.972 C 1532.63 713.295 1532.56 713.255 1531.66 712.315 C 1529.92 710.512 1531.13 706.26 1531.62 704.098 C 1537.93 676.599 1540.78 652.253 1535.88 624.148 C 1534.38 647.949 1527.09 694.255 1509.04 711.525 C 1504.68 715.702 1498.74 716.076 1492.97 715.865 C 1473.6 715.156 1413.17 697.269 1400.52 682.702 C 1397.92 679.709 1397.38 676.033 1397.9 672.214 C 1399.34 661.789 1417.05 612.824 1422.01 602.466 C 1423.57 599.215 1425.12 596.62 1428.02 594.453 C 1437.61 591.821 1448.17 594.58 1457.82 596.07 C 1462.71 587.547 1467.41 580.722 1475.95 575.446 C 1479.88 566.424 1482.75 562.088 1491.15 556.985 C 1501.09 530.378 1511.39 510.49 1524.81 485.864 C 1524.14 484.058 1523.63 482.431 1523.32 480.527 C 1531.33 464.122 1546.5 445.69 1562.94 437.095 C 1569.89 433.467 1577.78 430.866 1583.95 425.943 C 1586.7 423.757 1588.94 421.423 1589.38 417.884 C 1586.96 414.128 1579.9 413.05 1576.02 410.652 C 1569.88 406.863 1568.08 391.983 1566.35 385.176 C 1562.79 382.496 1549.96 383.342 1543.93 380.536 C 1537.62 377.602 1533.24 372.629 1531.14 365.997 C 1528.72 358.359 1528.95 349.992 1532.74 342.848 C 1536.71 335.351 1543.92 330.126 1552 327.843 C 1562.61 324.846 1578.57 326.292 1587.84 332.616 C 1592.51 335.803 1596.79 340.144 1601.88 342.627 C 1604.19 343.753 1606.46 344.354 1608.88 343.461 C 1605.7 334.796 1596.03 325.868 1590.18 318.554 C 1560.64 281.646 1530.55 246.081 1496.87 212.817 C 1489.85 205.876 1463.69 183.032 1461.95 176.105 C 1461.8 175.519 1461.71 174.914 1461.7 174.31 C 1461.63 170.411 1463.92 167.611 1466.4 164.919 z"/>
<path transform="translate(0,0)" fill="rgb(254,254,254)" d="M 1498.89 574.656 C 1502.5 574.627 1505.4 574.495 1508.29 577.043 C 1510.65 579.133 1511.45 581.202 1511.73 584.302 C 1510.24 585.798 1510.07 585.389 1508.06 585.486 C 1507.14 584.584 1504.68 581.481 1503.62 580.992 C 1501.2 579.876 1498.55 581.2 1496.84 578.742 L 1498.89 574.656 z"/>
<path transform="translate(0,0)" fill="rgb(254,254,254)" d="M 1684.04 549.912 C 1688.44 550.041 1695.33 549.442 1699.39 550.957 C 1701.81 551.863 1702.18 552.88 1703.02 555.05 C 1702.86 555.772 1702.58 556.815 1702.57 557.533 C 1702.55 560.105 1702.81 561.646 1702.35 564.273 C 1702.8 565.602 1703.09 566.947 1703.41 568.314 C 1698.32 566.012 1686.22 555.056 1684.04 549.912 z"/>
<path transform="translate(0,0)" fill="rgb(254,254,254)" d="M 1532.55 579.777 C 1534.15 581.546 1534.82 614.082 1535.63 620.002 L 1535.92 621.947 L 1534.99 621.785 L 1535.67 623.831 L 1530.44 620.311 L 1523.17 615.623 C 1526.15 603.589 1530.21 592.001 1532.55 579.777 z"/>
<path transform="translate(0,0)" fill="rgb(254,254,254)" d="M 1471.37 792.647 C 1472.7 793.952 1472.23 793.262 1473.04 795.133 C 1477.43 805.229 1492.44 822.703 1500.32 830.954 L 1499.65 831.896 C 1496.13 830.427 1492.54 828.965 1489.4 826.763 C 1482.5 821.925 1468.54 808.828 1468.19 799.934 C 1468.05 796.499 1469.5 795.245 1471.37 792.647 z"/>
<path transform="translate(0,0)" fill="rgb(254,254,254)" d="M 1652.82 834.159 C 1657.19 833.299 1665.85 835.981 1669.49 838.428 C 1671.43 839.731 1671.98 839.776 1672.47 842.15 C 1666.57 846.322 1648.79 843.515 1641.76 842.722 C 1636.62 841.861 1630.15 843.014 1625.42 841.493 C 1623.23 840.788 1623.29 840.851 1622.27 838.679 C 1624.98 836.442 1633.96 838.231 1637.95 837.761 C 1643 837.164 1647.95 835.581 1652.82 834.159 z"/>
<path transform="translate(0,0)" fill="rgb(254,254,254)" d="M 1602.19 406.669 C 1607.48 412.778 1611.98 418.69 1618.08 424.108 C 1613.4 425.696 1608.89 427.226 1603.99 428.023 C 1605.65 435.457 1607.21 442.852 1608.4 450.375 L 1586.81 437.446 C 1591.24 433.459 1595.18 429.265 1599.13 424.799 C 1598.78 417.966 1597.81 412.452 1602.19 406.669 z"/>
<path transform="translate(0,0)" fill="rgb(254,254,254)" d="M 1638.3 516.471 L 1679.49 548.115 C 1680.24 550.957 1679.74 551.365 1678.6 554.134 C 1662.17 547.623 1648.3 538.749 1634.26 528.177 L 1638.3 516.471 z"/>
<path transform="translate(0,0)" fill="rgb(254,254,254)" d="M 1543.77 508.621 L 1545.39 510.062 C 1547.27 516.782 1540.12 528.599 1538.44 535.448 C 1535.7 546.595 1535.07 558.27 1531.79 569.294 L 1530.58 569.888 L 1528.21 567.97 C 1525.11 564.568 1522.68 561.087 1520.25 557.18 C 1525.3 539.965 1534.79 524.045 1543.77 508.621 z"/>
<path transform="translate(0,0)" fill="rgb(254,254,254)" d="M 1477.93 584.506 C 1487.02 587.86 1496.01 590.702 1504.89 594.72 C 1510.22 597.136 1513.82 597.036 1519.56 596.776 C 1518.08 601.409 1516.68 605.819 1514.44 610.16 L 1512.59 610.706 C 1497.77 605.15 1483.1 600.943 1467.71 597.405 C 1470.73 592.813 1474.4 588.704 1477.93 584.506 z"/>
<path transform="translate(0,0)" fill="rgb(254,254,254)" d="M 1530.81 493.631 C 1533.78 495.661 1536.25 498.807 1538.73 501.413 C 1527.86 519.118 1515.57 537.557 1512.37 558.479 C 1515.57 562.731 1518.51 567.468 1520.55 572.39 C 1522.96 578.177 1524.62 582.961 1522.21 589 C 1520.95 588.366 1519.76 587.901 1518.74 586.92 C 1519.31 582.252 1520.82 576.589 1517.88 572.467 C 1513.86 566.836 1502.89 567.263 1496.57 566.672 C 1506.72 541.241 1517.13 517.352 1530.81 493.631 z"/>
<path transform="translate(0,0)" fill="rgb(254,254,254)" d="M 1625.49 371.326 C 1628.73 371.64 1629.76 371.927 1631.95 374.399 C 1635.06 377.905 1637.42 382.72 1639.76 386.793 C 1636.3 388.763 1632.64 390.428 1630.15 393.612 L 1630.71 397.613 C 1627.49 397.817 1625.17 395.191 1622.47 393.464 C 1623.02 397.046 1622.98 399.057 1625.58 401.65 C 1627.96 402.133 1630.2 401.868 1632.28 400.504 C 1633.87 399.46 1635.41 398.303 1635.46 396.215 C 1635.47 395.484 1635.07 394.047 1634.89 393.311 C 1637.55 393.185 1637.63 393.127 1639.8 394.642 C 1641.68 399.407 1639.18 408.299 1637.19 412.999 C 1636.25 415.204 1634.97 416.507 1633.07 417.898 C 1629.73 418.846 1627.59 418.485 1624.58 416.91 C 1615.19 411.989 1610.25 402.373 1600.48 398.046 C 1599.22 395.974 1598.51 392.859 1598.82 390.405 C 1599.09 388.343 1600.13 387.656 1601.81 386.599 C 1609.4 381.835 1614.86 381.086 1623.4 374.497 L 1625.49 371.326 z"/>
<path transform="translate(0,0)" fill="rgb(27,33,44)" d="M 1611.36 385.031 C 1614.89 385.889 1617.07 386.745 1618.99 389.894 C 1618.85 392.916 1617.93 393.882 1616.14 396.163 C 1613.16 394.688 1609.58 393.627 1607.95 390.558 C 1608.41 387.648 1609.38 387.127 1611.36 385.031 z"/>
<path transform="translate(0,0)" fill="rgb(27,33,44)" d="M 1623.4 374.497 L 1625.49 371.326 C 1629.53 374.522 1632.61 377.861 1633.4 383.151 C 1633.6 384.486 1633.37 385.572 1633 386.846 L 1631.3 387.267 C 1626.09 383.714 1626.07 379.618 1623.4 374.497 z"/>
<path transform="translate(0,0)" fill="rgb(254,254,254)" d="M 1547.96 715.039 C 1555.41 716.308 1563.14 716.766 1570.67 717.553 C 1562.27 729.347 1549.57 739.342 1539 749.263 A 816.917 816.917 0 0 0 1500.19 787.722 L 1492.25 796.239 C 1488.41 793.156 1485.21 789.694 1481.91 786.066 C 1490.16 779.94 1496.75 770.694 1503.86 763.214 C 1518.99 747.295 1535.9 733.691 1547.96 715.039 z"/>
<path transform="translate(0,0)" fill="rgb(254,254,254)" d="M 1420.33 635.425 C 1428.82 640.9 1435.62 651.279 1443.17 658.186 C 1463.68 676.956 1492.82 668.117 1518.19 668.987 C 1514.54 681.427 1511.42 693.623 1503.52 704.13 C 1501.79 705.085 1499.98 706.171 1497.99 706.448 C 1481.24 708.785 1420.7 686.809 1406.4 676.853 C 1409.48 662.852 1415.46 648.927 1420.33 635.425 z"/>
<path transform="translate(0,0)" fill="rgb(254,254,254)" d="M 1431.3 603.119 C 1457.54 601.05 1506.47 615.11 1527.49 630.466 L 1527.01 633.418 C 1525.94 639.695 1523.97 656.14 1518.86 659.768 C 1500.73 658.325 1482.74 661.641 1464.63 660.663 C 1449.97 652.579 1436.48 637.208 1424.22 625.72 C 1426.27 618.198 1428.04 610.216 1431.3 603.119 z"/>
<path transform="translate(0,0)" fill="rgb(254,254,254)" d="M 1571.54 441.909 C 1581.96 442.034 1605.99 460.203 1613.82 467.248 C 1642.78 493.313 1627.56 513.635 1619.42 544.163 C 1615.15 560.147 1614.03 574.216 1614.99 590.696 C 1610.66 586.183 1606.28 581.552 1601.6 577.409 C 1593 569.795 1583.84 564.44 1577.93 554.308 C 1576.97 552.661 1576.22 551.796 1574.54 550.772 C 1571.9 550.556 1571.31 550.27 1569.06 551.574 C 1568.96 551.953 1568.83 552.324 1568.77 552.711 C 1567.07 565.233 1591.31 581.659 1599.66 589.598 C 1604.88 594.562 1609.87 599.962 1614.22 605.709 C 1626.85 622.374 1630.96 645.532 1636.3 665.421 C 1640.76 682.022 1646.08 700.154 1645.95 717.413 C 1645.72 747.324 1629.36 787.623 1638.79 815.963 C 1640.16 820.064 1643.02 823.98 1645.34 827.605 C 1640.3 827.997 1630.84 829.893 1626.46 827.003 C 1625.09 826.093 1625.42 824.43 1625.23 822.925 C 1626.93 801.679 1619.15 731.993 1628.36 717.342 C 1630.71 716.234 1632.47 715.423 1634.37 713.596 C 1635.6 703.479 1621.75 661.728 1617.71 649.526 C 1602.72 604.249 1581.93 593.212 1541.12 572.684 C 1543.57 553.905 1545.09 533.78 1555.21 517.266 C 1559.7 509.936 1565.33 503.06 1570.15 495.89 C 1571.89 498.944 1573.5 501.38 1576.31 503.557 C 1580.74 506.994 1586.65 510.926 1592.43 510.257 C 1594.52 508.739 1594.67 508.886 1595.2 506.388 C 1592.35 500.172 1582.52 496.828 1576.94 492.971 C 1577.3 489.782 1578.09 486.446 1576.81 483.401 C 1576.06 481.617 1575.69 481.845 1574.09 481.118 C 1567.23 483.133 1558.33 498.217 1553.87 503.939 C 1546.25 496.75 1539.83 488.372 1533.22 480.272 C 1542.66 466.086 1555.76 449.271 1571.54 441.909 z"/>
<path transform="translate(0,0)" fill="rgb(27,33,44)" d="M 1849.27 822.178 C 1856.34 822.519 1860.46 824.072 1866.54 827.694 C 1877.39 845.496 1885.37 866.039 1894.61 884.8 A 3051.68 3051.68 0 0 1 1949.18 1002.41 C 1955.95 1017.75 1964.04 1033.16 1969.73 1048.91 C 1971.33 1053.33 1972.9 1058.71 1972.52 1063.42 C 1972.07 1068.97 1967.09 1075.68 1963.01 1079.19 C 1947.98 1092.11 1927.52 1088.95 1909.47 1087.24 A 781.182 781.182 0 0 1 1901.12 1179.41 A 910.571 910.571 0 0 1 1539.16 1783.16 A 879.598 879.598 0 0 1 996.773 1955.26 C 960.424 1954.64 923.04 1952.98 887.093 1947.47 C 886.386 1961.72 886.828 1976.58 876.776 1987.96 C 871.524 1993.91 864.829 1997.41 856.862 1997.72 C 851.047 1997.95 845.3 1996.72 840.243 1993.83 C 827.622 1986.61 816.577 1974.51 805.695 1964.88 L 745.5 1911.47 C 728.438 1895.39 710.614 1880 693.084 1864.43 C 683.662 1856.06 671.786 1847.38 664.464 1837.08 C 661.88 1833.44 660.356 1830.01 661.312 1825.5 C 662.371 1820.5 666.049 1815.31 670.5 1812.79 C 682.053 1806.26 696.454 1802.55 709.019 1798.13 L 779.129 1773.44 A 6354.27 6354.27 0 0 0 845.665 1749.81 C 860.878 1744.24 876.447 1737.49 892.135 1733.53 C 895.851 1732.59 899.017 1732.81 902.655 1733.96 C 909.234 1736.04 915.154 1740.21 918.366 1746.42 C 925.933 1761.04 916.693 1782.88 912.442 1797.53 C 941.843 1800.51 970.937 1803.76 1000.5 1804.73 C 1027.43 1805.62 1054.12 1804.2 1080.96 1802.03 C 1258 1787.71 1419.78 1710.43 1548.72 1589.32 A 754.026 754.026 0 0 0 1768.31 1189.95 C 1774.96 1156.63 1780.01 1122.4 1781.07 1088.4 C 1768.23 1091.87 1756.06 1091.88 1744.02 1085.41 C 1736.43 1081.33 1730.26 1074.97 1727.88 1066.53 C 1725.92 1059.55 1726.67 1053.52 1729.1 1046.82 C 1734.82 1031 1744.12 1015.98 1751.59 1000.89 A 5383.62 5383.62 0 0 1 1806.71 891.821 C 1816.55 872.898 1824.55 852.323 1835.49 834.092 C 1839.28 827.774 1841.94 824.044 1849.27 822.178 z"/>
<path transform="translate(0,0)" fill="rgb(254,254,254)" d="M 1851.01 832.377 C 1852.03 832.666 1853.22 832.943 1854.18 833.437 C 1864.7 838.88 1951.37 1034.18 1961.72 1059.61 C 1959.9 1064.36 1957.77 1068.5 1953.79 1071.81 C 1942.26 1081.4 1923.4 1077.67 1909.62 1076.73 C 1909.91 1070.26 1911.25 1061.7 1909.73 1055.48 C 1909.08 1052.81 1907.97 1052.12 1905.78 1050.67 C 1902.95 1050.78 1902.55 1050.91 1900.18 1052.46 C 1896.28 1068.81 1897.2 1086.72 1896.18 1103.49 A 921.632 921.632 0 0 1 1887.62 1187.54 A 919.743 919.743 0 0 1 1836.06 1376.77 C 1771.57 1542.61 1665.6 1676.02 1522.11 1780.56 A 877.239 877.239 0 0 1 880.316 1934.04 C 870.453 1937.92 877.981 1970.32 867.518 1981.33 C 864.882 1984.1 861.18 1985.45 857.399 1985.55 C 854.066 1985.63 849.737 1985.07 846.767 1983.45 C 833.259 1976.09 820.274 1961.9 808.75 1951.66 L 742.554 1892.76 C 733.555 1884.68 675.316 1835.03 673.124 1829.45 C 672.866 1828.79 672.998 1828.04 672.935 1827.34 C 673.994 1825.88 674.94 1824.7 676.424 1823.64 C 687.963 1815.41 756.591 1794.02 775.091 1787.43 C 813.328 1773.83 851.469 1758.18 890.19 1746.15 C 892.823 1745.33 895.618 1744.46 898.394 1745.06 C 902.481 1745.95 906.545 1749.33 908.608 1752.89 C 913.713 1761.72 902.951 1785.44 900.885 1795.31 C 899.995 1799.55 899.342 1802.94 901.788 1806.72 C 911.076 1810.73 944.212 1813.02 955.73 1814.03 C 1069.44 1824.06 1181.28 1807.17 1288.25 1767.95 A 783.937 783.937 0 0 0 1724.35 1364.77 A 764.972 764.972 0 0 0 1793.62 1091.78 C 1794.28 1081.46 1797.87 1061.42 1793.73 1052.22 C 1792.63 1049.78 1791.63 1049.25 1789.21 1048.41 C 1786.46 1048.88 1786.06 1049.04 1783.95 1050.85 C 1781.15 1057.26 1782.82 1067.8 1782.92 1074.94 C 1778.59 1076.73 1774.34 1078.48 1769.64 1078.93 C 1761.26 1079.72 1751.22 1078.23 1744.59 1072.66 C 1740.49 1069.22 1738.28 1064.25 1738 1058.94 C 1737.75 1054.26 1740.73 1048.66 1742.66 1044.46 C 1766.3 993.077 1793.37 942.614 1819.1 892.211 C 1826.65 877.415 1841.2 843.375 1851.01 832.377 z"/>
<path transform="translate(0,0)" fill="rgb(27,33,44)" d="M 1842.22 1112.82 C 1845.25 1113.09 1847.52 1113.3 1850.26 1114.81 C 1853.46 1122.87 1846.21 1160.87 1844.68 1170.48 A 859.774 859.774 0 0 1 1504.29 1728.31 A 822.802 822.802 0 0 1 887.131 1877.82 C 884.93 1877.25 883.591 1876.5 881.737 1875.2 C 880.332 1872.57 879.71 1871.77 879.759 1868.73 C 886.578 1862.65 920.401 1870.29 930.138 1871.52 C 993.469 1879.53 1060.12 1877.82 1123.31 1869.34 A 836.474 836.474 0 0 0 1764.86 1392.32 C 1783.03 1353.42 1797.6 1312.19 1809.85 1271.06 A 756.779 756.779 0 0 0 1834.31 1152.21 C 1835.27 1144.94 1836.91 1118.78 1841.08 1114.01 C 1841.44 1113.6 1841.84 1113.21 1842.22 1112.82 z"/>
<path transform="translate(0,0)" fill="rgb(27,33,44)" d="M 895.938 36.1759 L 896.956 36.0431 C 902.874 35.3285 907.385 36.1536 912.987 38.0304 C 927.62 42.9326 941.7 49.6299 955.87 55.7219 L 1040.4 92.8047 C 1057.26 100.129 1111.6 119.905 1123.01 129.192 C 1127.25 132.637 1129.98 136.777 1130.36 142.315 C 1130.76 148.213 1128.52 154.129 1124.51 158.444 C 1118.24 165.179 1108.15 170.816 1100.52 176.228 L 1045.73 214.864 L 965.332 271.053 C 953.526 279.286 941.94 288.898 929.591 296.248 C 925.387 298.75 920.778 300.243 915.847 300.183 C 909.18 300.101 902.24 297.481 897.565 292.662 C 885.885 280.624 888.704 258.713 888.905 243.278 A 791.821 791.821 0 0 0 606.554 360.06 C 456.632 458.53 333.773 616.684 284.665 790.116 A 1120.52 1120.52 0 0 0 258.015 908.497 C 254.615 929.073 253.427 950.506 249.117 970.839 L 248.914 971.764 C 249.392 972.011 249.873 972.253 250.349 972.504 C 264.363 979.912 269.675 989.184 274.162 1003.83 C 296.125 993.683 315.528 984.923 340.26 987.429 C 360.718 989.502 380.641 998.039 393.707 1014.37 C 410.392 1035.23 403.198 1050.08 400.61 1073.2 L 400.47 1074.53 C 406.594 1079.73 425.275 1087.53 427.619 1093.38 C 426.996 1097.92 423.7 1101.81 420.487 1104.89 C 417.582 1107.67 414.899 1110.55 412.2 1113.53 C 411.165 1124.17 412.731 1139.35 407.795 1148.89 C 402.244 1159.61 376.969 1156.99 366.189 1160.43 C 365.795 1160.56 365.407 1160.7 365.016 1160.83 C 365.182 1170.5 365.246 1179.67 366.912 1189.24 C 367.872 1189.45 368.834 1189.65 369.785 1189.9 C 393.366 1196.06 404.272 1247.99 411.88 1268.78 C 415.011 1277.33 419.033 1285.09 423.54 1292.99 C 436.839 1287.12 450.175 1279.75 465.061 1280.07 C 467.016 1274.88 469.135 1270.18 472.62 1265.81 C 485.105 1250.16 503.474 1246.32 521.789 1241.85 C 525.69 1240.9 530.319 1238.62 534.287 1238.63 C 537.481 1238.63 540.022 1241.46 542.262 1243.46 C 543.849 1244.88 544.06 1244.6 546.198 1244.88 C 549.309 1245.29 552.458 1245.44 555.199 1247.14 C 557.528 1248.58 558.909 1250.84 559.262 1253.55 C 561.16 1268.12 545.559 1285.42 537.316 1296.56 C 532.547 1303 537.212 1313.05 530.039 1322.47 C 525.013 1329.07 514.051 1335.29 505.677 1336.06 C 500.773 1336.51 494.29 1324.29 490.394 1320.77 L 489.315 1321.47 C 489.371 1328.41 497.579 1333.92 497.354 1341.55 C 489.048 1350.14 478.995 1359.28 469.08 1365.94 C 463.201 1364.94 460.108 1360.5 456.457 1356.18 C 442.346 1373.15 427.595 1388.73 410.622 1402.92 C 418.257 1427.53 426.349 1452.08 433.414 1476.86 C 427.7 1481.32 421.496 1484.24 414.98 1487.31 C 440.587 1563.46 461.976 1641.41 485.286 1718.31 L 514.79 1813.52 C 520.584 1831.91 527.051 1850.27 531.933 1868.92 L 520.03 1875.36 C 524.73 1888.88 531.68 1901.49 536.816 1914.86 C 550.169 1912.35 599.028 1895.98 608.775 1899.41 C 615.22 1901.68 620.717 1910.81 622.945 1916.81 C 624.195 1920.17 624.741 1924.53 622.899 1927.79 C 613.137 1945.06 538.647 1976.81 517.871 1983.27 C 513.289 1984.47 508.373 1985.56 503.724 1984.15 C 486.461 1978.94 491.761 1944.41 488.139 1930.62 C 484.981 1918.6 477.183 1906.13 471.607 1894.96 C 468.585 1895.53 464.689 1896.67 461.699 1895.87 C 460.142 1895.45 458.985 1893.66 458.111 1892.38 C 451.508 1882.7 446.837 1871.12 441.688 1860.58 L 417.228 1811.41 C 382.299 1741.52 348.678 1670.87 312.52 1601.61 C 311.011 1620.35 298.442 1718.27 292.744 1730.36 C 281.164 1754.93 231.237 1807.7 212.045 1828.99 C 203.058 1838.96 194.237 1849.81 184.609 1859.11 C 180.719 1862.87 174.975 1862.57 171.611 1867.26 C 166.152 1874.87 160.27 1882.23 154.611 1889.7 C 171.265 1935.41 195.349 1923.6 205.543 1943.8 C 208.184 1949.03 207.696 1954.83 205.717 1960.2 C 203.843 1965.29 201.293 1971.01 195.983 1973.26 C 188.766 1976.32 177.756 1971.9 170.811 1969.32 C 156.985 1964.18 143.449 1957.53 130.595 1950.29 C 119.496 1944.04 82.0291 1920.03 77.9441 1909.35 C 74.9773 1901.6 107.343 1869.38 112.88 1862.13 C 118.831 1854.34 123.813 1845.96 128.625 1837.43 C 126.93 1834.76 124.025 1831.03 124.038 1827.7 C 124.058 1822.67 140.388 1793.54 143.976 1786.35 L 170.735 1732.64 C 175.685 1722.69 182.356 1711.76 185.195 1701.04 C 188.768 1687.55 188.336 1643.28 189.365 1625.81 C 192.349 1575.13 198.256 1524.09 199.136 1473.37 C 196.289 1470.68 192.877 1467.83 190.604 1464.63 C 188.3 1461.38 187.381 1456.62 187.455 1452.7 C 187.617 1444.04 195.11 1420.17 197.006 1408.57 C 189.43 1397.93 182.742 1386.06 175.658 1375.01 C 149.481 1334.18 125.312 1292.47 100.402 1250.9 C 93.012 1238.57 77.3476 1220.18 74.3871 1206.77 C 73.1481 1201.16 74.0232 1194.97 77.4487 1190.26 C 86.9218 1177.24 126.925 1174.69 142.974 1172.2 C 96.657 949.862 146.561 702.111 268.297 511.144 A 927.403 927.403 0 0 1 771.402 122.308 C 805.882 111.244 841.271 103.246 876.598 95.4442 C 873.04 83.1511 868.987 70.2027 873.596 57.5683 C 877.529 46.79 885.98 40.8468 895.938 36.1759 z"/>
<path transform="translate(0,0)" fill="rgb(254,254,254)" d="M 107.566 1881.6 C 119.635 1883.73 124.983 1894.64 146.496 1896.19 C 149.373 1904.57 153.383 1911.2 158.274 1918.51 C 142.668 1912.46 116.454 1895.63 107.566 1881.6 z"/>
<path transform="translate(0,0)" fill="rgb(254,254,254)" d="M 569.654 1916.13 L 570.739 1916.45 C 562.584 1925.11 511.822 1942.87 500.263 1945.07 C 498.739 1943.6 498.51 1941.96 497.901 1939.98 C 498.166 1938.96 498.171 1937.83 498.696 1936.91 C 500.435 1933.87 529.347 1932.29 538.613 1921.95 C 549.427 1921.12 559.271 1919.29 569.654 1916.13 z"/>
<path transform="translate(0,0)" fill="rgb(254,254,254)" d="M 602.079 1907.68 L 604.82 1908.43 L 605.119 1910.01 C 602.285 1914.71 595.517 1917.98 590.894 1920.89 C 563.337 1938.18 535.468 1950.64 504.227 1959.96 L 501.764 1959.54 C 500.626 1957.3 499.955 1956.19 500.376 1953.65 C 504.424 1951.79 509.518 1951.2 513.906 1950.44 C 541.751 1945.61 576.596 1920.75 602.079 1907.68 z"/>
<path transform="translate(0,0)" fill="rgb(254,254,254)" d="M 101.397 1889.38 C 102.963 1890.16 102.385 1889.71 103.616 1890.97 C 122.618 1910.36 144.897 1921.15 169.418 1931.62 C 177.063 1934.89 186.135 1937.87 193.001 1942.5 C 195.294 1944.04 196.258 1945.83 196.841 1948.5 L 195.671 1950.25 C 176.834 1941.02 157.217 1935.13 138.868 1924.45 C 131.314 1920.05 100.43 1901.21 98.4568 1893.64 L 101.397 1889.38 z"/>
<path transform="translate(0,0)" fill="rgb(254,254,254)" d="M 241.091 1106.52 C 246.913 1110.41 258.499 1131.77 264.141 1139.11 C 267.981 1144.11 272.857 1148.1 276.5 1153.24 L 275.668 1154.48 A 1448.06 1448.06 0 0 1 246.906 1158.36 C 243.274 1141.52 243.342 1123.63 241.091 1106.52 z"/>
<path transform="translate(0,0)" fill="rgb(254,254,254)" d="M 610.79 1916.8 C 612.958 1918.09 612.895 1918.39 613.848 1920.77 C 613.486 1922.8 613.6 1923.39 612.252 1925.08 C 601.192 1938.89 523.786 1973.92 505.137 1975.56 C 504.946 1975.37 504.73 1975.2 504.565 1974.98 C 502.862 1972.74 502.5 1972.25 502.676 1969.57 C 503.79 1968.65 503.805 1968.54 505.338 1967.82 C 509.714 1965.75 516.359 1965.2 521.166 1963.73 A 281.848 281.848 0 0 0 553.766 1951.13 C 574.301 1941.83 592.789 1930.28 610.79 1916.8 z"/>
<path transform="translate(0,0)" fill="rgb(254,254,254)" d="M 92.283 1901.43 C 114.289 1919.59 136.82 1934.98 163.041 1946.6 C 169.882 1949.64 187.848 1954.83 191.987 1957.44 C 193.95 1958.67 193.974 1959.11 194.49 1961.23 L 192.03 1964.93 C 163.596 1961.39 109.864 1929.39 88.7456 1908.47 C 89.1252 1905.47 90.6096 1903.86 92.283 1901.43 z"/>
<path transform="translate(0,0)" fill="rgb(254,254,254)" d="M 136.878 1841.54 C 146.545 1846.71 156.085 1854.49 165.283 1860.63 C 158.508 1869.45 150.849 1877.56 143.834 1886.19 C 143.734 1886.23 143.64 1886.28 143.536 1886.3 C 135.943 1887.48 122.69 1878.72 116.351 1874.82 C 123.542 1863.91 130.253 1852.79 136.878 1841.54 z"/>
<path transform="translate(0,0)" fill="rgb(254,254,254)" d="M 510.846 1880.06 C 515.7 1886.45 524.907 1911.24 528.831 1920.19 C 518.345 1923.48 509.04 1924.86 498.053 1925.07 C 494.877 1922.76 483.887 1897.76 480.566 1891.92 A 493.176 493.176 0 0 0 510.846 1880.06 z"/>
<path transform="translate(0,0)" fill="rgb(254,254,254)" d="M 458.642 1294.71 C 463.172 1296.4 483.486 1332.15 486.981 1338.52 C 482.192 1342.31 471.703 1353.75 466.161 1353.74 C 455.401 1339.93 445.867 1324.92 435.651 1310.67 A 590.208 590.208 0 0 0 458.642 1294.71 z"/>
<path transform="translate(0,0)" fill="rgb(254,254,254)" d="M 383.868 1409.71 C 389.957 1409.97 396.094 1409.76 402.008 1408.11 C 409.247 1429.5 416.895 1451.04 422.63 1472.88 L 401.389 1483.74 C 399.592 1467.65 382.424 1418.29 383.868 1409.71 z"/>
<path transform="translate(0,0)" fill="rgb(254,254,254)" d="M 292.04 1209.54 C 297.035 1210.66 301.168 1211.91 305.356 1214.95 C 316.224 1222.83 324.776 1234.6 333.22 1244.93 A 6705.25 6705.25 0 0 0 381.815 1304.15 C 389.126 1312.98 396.024 1323.34 404.535 1331.01 C 412.257 1326.22 420.06 1321.52 427.646 1316.51 A 283.578 283.578 0 0 1 445.937 1343.56 C 430.068 1341.42 414.712 1333.08 398.65 1332.79 C 387.448 1323.08 377.214 1312.16 367.477 1300.99 C 347.862 1278.49 330.635 1253.94 311.223 1231.25 C 307.2 1226.55 293.036 1213.97 292.04 1209.54 z"/>
<path transform="translate(0,0)" fill="rgb(254,254,254)" d="M 522.963 1250.16 C 517.675 1254.61 512.508 1258.08 510.153 1264.82 L 510.877 1266.23 C 520.535 1265.28 525.8 1253.99 531.372 1247.97 C 533.233 1247.72 532.997 1247.37 534.625 1248.58 C 536.715 1256.56 519.581 1263.56 519.325 1274.33 L 521.055 1275.09 L 519.26 1273.58 L 519.325 1274.28 C 520.1 1274.46 520.867 1274.96 521.649 1274.82 C 525.444 1274.11 539.201 1257.49 544.922 1254.65 C 546.456 1253.89 547.398 1254.72 548.916 1255.24 C 549.93 1257.94 550.542 1259.59 550.013 1262.54 L 548.634 1263.37 C 541.92 1279.93 529.865 1293.78 513.08 1300.59 C 503.5 1304.47 493.682 1307.16 484.603 1312.24 L 483.071 1313.1 L 468.851 1291.01 C 472.628 1286.83 473.565 1281.36 476.389 1276.65 C 486.785 1259.35 504.473 1254.53 522.963 1250.16 z"/>
<path transform="translate(0,0)" fill="url(#Gradient1)" d="M 548.916 1255.24 C 549.93 1257.94 550.542 1259.59 550.013 1262.54 L 548.634 1263.37 C 541.443 1269.41 534.537 1280.34 526.385 1284.48 L 524.587 1283.42 L 524.391 1281.05 C 527.842 1272.58 540.844 1259.76 548.916 1255.24 z"/>
<path transform="translate(0,0)" fill="rgb(254,254,254)" d="M 165.018 1846.85 A 8661.23 8661.23 0 0 0 233.226 1763.24 C 244.748 1748.95 258.421 1734.4 267.668 1718.56 L 268.689 1716.79 C 274.131 1707.57 274.64 1690.9 276.495 1680.14 A 5497.5 5497.5 0 0 1 289.354 1610.65 C 291.516 1599.07 292.635 1586.25 296.385 1575.15 L 298.065 1574.35 L 305.484 1588.7 A 4013.57 4013.57 0 0 0 292.832 1677.92 C 290.948 1691.72 290.361 1707.57 286.205 1720.78 C 278.609 1744.91 198.139 1830.19 176.242 1853.76 C 172.418 1851.59 168.495 1849.56 165.018 1846.85 z"/>
<path transform="translate(0,0)" fill="rgb(254,254,254)" d="M 288.705 1179.96 C 304.736 1185.37 320.684 1190.9 337.167 1194.79 C 348.912 1197.56 360.916 1199.01 372.643 1201.8 C 375.869 1204.6 379.056 1207.31 381.28 1211.02 C 387.04 1220.63 390.355 1233.36 393.958 1243.98 C 400.214 1262.42 406.272 1280.51 415.235 1297.89 C 413.162 1300.9 411.095 1303.41 410.599 1307.1 L 411.491 1308.71 C 416.653 1308.97 437.714 1295.62 446.643 1292.86 C 433.519 1301.3 420.322 1311.44 406.463 1318.54 C 401.249 1313.32 395.521 1307.39 391.661 1301.09 C 373.424 1282.92 356.879 1260.16 340.852 1239.82 C 333.346 1230.3 324.667 1216.77 315.023 1209.51 C 306.394 1203.02 296.064 1200.86 285.783 1198.52 C 284.757 1196.21 285.737 1194.58 286.349 1192.2 L 288.705 1179.96 z"/>
<path transform="translate(0,0)" fill="rgb(184,190,191)" d="M 391.661 1301.09 C 373.424 1282.92 356.879 1260.16 340.852 1239.82 C 333.346 1230.3 324.667 1216.77 315.023 1209.51 C 306.394 1203.02 296.064 1200.86 285.783 1198.52 C 284.757 1196.21 285.737 1194.58 286.349 1192.2 C 314.709 1201.25 342.582 1209.4 371.347 1217.02 C 373.785 1225.49 391.869 1297.55 391.661 1301.09 z"/>
<path transform="translate(0,0)" fill="rgb(254,254,254)" d="M 391.717 1498.81 A 362.503 362.503 0 0 0 407.249 1491.3 A 13208.2 13208.2 0 0 0 455.782 1652.68 C 476.884 1723.1 497.455 1794.07 520.81 1863.77 C 516.251 1866.26 511.709 1868.74 507.024 1870.99 C 501.865 1861.79 499.107 1849.47 496.01 1839.35 A 4331.32 4331.32 0 0 0 479.827 1786.66 A 12174.3 12174.3 0 0 1 426.757 1615.42 C 414.773 1576.84 401.088 1538.1 391.717 1498.81 z"/>
<path transform="translate(0,0)" fill="rgb(34,45,62)" d="M 202.736 981.396 C 217.594 976.306 233.136 972.667 248.063 980.154 C 256.039 984.155 261.649 990.841 264.418 999.302 C 265.573 1002.83 266.519 1006.99 266.57 1010.72 C 268.743 1016.44 267.58 1022.27 265.577 1027.88 C 260.607 1041.79 252.115 1056.21 238.198 1062.57 C 227.426 1067.5 214.52 1067.48 203.519 1063.3 C 191.809 1058.84 181.589 1049.47 176.785 1037.81 C 172.636 1027.74 173.585 1016.41 178.025 1006.59 C 182.645 996.371 192.102 985.421 202.736 981.396 z"/>
<path transform="translate(0,0)" fill="rgb(254,254,254)" d="M 202.736 981.396 C 217.594 976.306 233.136 972.667 248.063 980.154 C 256.039 984.155 261.649 990.841 264.418 999.302 C 265.573 1002.83 266.519 1006.99 266.57 1010.72 C 264.193 1013.74 261.673 1016.67 259.213 1019.63 C 256.926 1012.41 254.004 1005.65 249.338 999.642 C 236.435 983.025 221.244 983.614 202.736 981.396 z"/>
<path transform="translate(0,0)" fill="rgb(254,254,254)" d="M 285.725 1006.48 C 310.641 995.823 335.28 990.435 361.363 1000.75 C 374.622 1006 387.416 1015.69 393.325 1028.95 C 402.125 1048.72 388.354 1071.73 395.347 1080.86 C 399.668 1086.5 411.706 1091.42 418.138 1094.9 C 409.151 1105.54 405.078 1106.99 403.209 1121.45 C 396.719 1118.6 392.226 1115.95 384.969 1117.28 L 384.281 1118.78 C 388.198 1125.77 396.028 1127.28 403.137 1129.52 C 403.03 1134.76 403.647 1140.45 399.662 1144.49 C 395.298 1148.92 389.134 1150.05 383.151 1149.78 C 363.665 1148.88 364.116 1139.95 354.89 1137.24 C 353.054 1139.11 352.768 1139.7 352.73 1142.5 C 352.696 1145.08 354.202 1147.34 355.822 1149.17 L 362.199 1151.58 L 362.545 1152.49 L 361.766 1153.34 C 356.289 1159.45 354.68 1165.03 355.228 1173.21 C 355.568 1178.3 356.06 1183.48 356.765 1188.53 C 346.59 1186.19 297.536 1175.77 292.103 1168.5 L 292.029 1166.18 C 292.217 1164.43 292.318 1160.75 293.339 1159.28 C 299.384 1150.57 318.536 1153.93 326.221 1144.49 C 336.143 1132.3 313.359 1118.05 308.326 1108.66 C 304.95 1102.36 304.896 1095.3 304.734 1088.36 C 337.454 1077.92 359.08 1059.43 375.285 1029.19 C 374.004 1027.34 372.684 1025.62 371.088 1024.02 C 355.337 1008.32 330.678 1002.87 309.173 1004.33 C 302.066 1004.81 294.536 1006.78 287.491 1006.56 C 286.902 1006.54 286.314 1006.5 285.725 1006.48 z"/>
<path transform="translate(0,0)" fill="rgb(34,45,62)" d="M 285.725 1006.48 C 286.314 1006.5 286.902 1006.54 287.491 1006.56 C 294.536 1006.78 302.066 1004.81 309.173 1004.33 C 330.678 1002.87 355.337 1008.32 371.088 1024.02 C 372.684 1025.62 374.004 1027.34 375.285 1029.19 C 359.08 1059.43 337.454 1077.92 304.734 1088.36 C 304.896 1095.3 304.95 1102.36 308.326 1108.66 C 313.359 1118.05 336.143 1132.3 326.221 1144.49 C 318.536 1153.93 299.384 1150.57 293.339 1159.28 C 292.318 1160.75 292.217 1164.43 292.029 1166.18 C 291.872 1164.4 292.017 1159.08 291.305 1157.7 C 289.307 1153.86 272.059 1137.57 267.412 1131.46 C 253.139 1112.71 246.139 1092.7 236.379 1071.67 C 254.062 1063.72 265.839 1050.38 271.45 1031.73 C 273.305 1025.56 274.444 1018.22 277.258 1012.46 C 278.924 1009.04 282.32 1007.57 285.725 1006.48 z"/>
<path transform="translate(0,0)" fill="rgb(184,190,191)" d="M 195.881 1456.76 C 205.69 1414.39 215.464 1372.19 224.364 1329.58 C 230.364 1300.85 236.416 1259.1 247.459 1232.42 C 250.421 1225.26 254.988 1219.57 261.4 1215.2 C 270.442 1209.02 281.432 1207.55 292.04 1209.54 C 293.036 1213.97 307.2 1226.55 311.223 1231.25 C 330.635 1253.94 347.862 1278.49 367.477 1300.99 C 377.214 1312.16 387.448 1323.08 398.65 1332.79 C 414.712 1333.08 430.068 1341.42 445.937 1343.56 C 447.886 1346.51 448.725 1347.04 448.524 1350.67 C 440.172 1364.11 409.908 1396 394.823 1399.38 C 386.817 1401.18 379.058 1398.64 372.445 1394.1 C 358.848 1384.75 347.509 1367.98 336.791 1355.45 C 322.589 1338.85 308.129 1322.51 294.154 1305.71 C 288.878 1299.36 283.685 1290.84 277.688 1285.38 C 275.187 1283.1 271.271 1281.03 267.845 1280.94 L 266.502 1282.02 C 266.499 1285.62 268.452 1288.83 270.467 1291.71 C 276.752 1300.66 284.976 1308.53 291.887 1317.05 A 1779.19 1779.19 0 0 0 339.045 1372.85 C 345.303 1380.08 351.162 1388.19 357.884 1394.93 C 364.671 1401.73 372.303 1406.2 381.499 1408.99 L 382.977 1409.44 L 383.868 1409.71 C 382.424 1418.29 399.592 1467.65 401.389 1483.74 C 370.318 1499.79 338.931 1514.46 303 1511.94 C 263.784 1509.18 221.519 1486.23 195.881 1456.76 z"/>
<path transform="translate(0,0)" fill="rgb(34,45,62)" d="M 132.671 1828.1 C 146.016 1800.77 160.146 1773.57 173.998 1746.47 C 180.657 1733.45 190.063 1718.87 194.139 1704.91 C 198.196 1691 196.823 1662.26 197.466 1646.62 A 4915.1 4915.1 0 0 1 201.681 1562.13 C 202.989 1535.55 203.743 1507.48 208.227 1481.24 L 208.453 1479.98 C 225.312 1492.57 242.141 1504.22 262.178 1511.22 C 307.607 1527.1 349.376 1519.01 391.717 1498.81 C 401.088 1538.1 414.773 1576.84 426.757 1615.42 A 12174.3 12174.3 0 0 0 479.827 1786.66 A 4331.32 4331.32 0 0 1 496.01 1839.35 C 499.107 1849.47 501.865 1861.79 507.024 1870.99 C 504.23 1871.07 499.401 1874.92 496.604 1876.22 C 486.795 1880.76 476.721 1884.53 466.557 1888.19 C 443.144 1848.14 314.466 1577.77 304.115 1570.86 L 298.065 1574.35 L 296.385 1575.15 C 292.635 1586.25 291.516 1599.07 289.354 1610.65 A 5497.5 5497.5 0 0 0 276.495 1680.14 C 274.64 1690.9 274.131 1707.57 268.689 1716.79 L 267.668 1718.56 C 258.421 1734.4 244.748 1748.95 233.226 1763.24 A 8661.23 8661.23 0 0 1 165.018 1846.85 C 154.602 1847.55 140.792 1834.2 132.671 1828.1 z"/>
<path transform="translate(0,0)" fill="rgb(254,254,254)" d="M 900.333 46.9399 C 905.352 47.2659 909.729 48.7754 914.359 50.619 C 948.684 64.286 982.156 80.6612 1016.15 95.2103 C 1036.02 103.714 1104.27 129.797 1117.73 139.939 C 1118.71 141.851 1118.93 142.494 1118.69 144.722 C 1118.23 149.047 1114.76 151.448 1111.55 153.93 C 1082.6 176.35 1051.15 196.321 1021.31 217.619 A 3114.79 3114.79 0 0 1 953.796 264.77 C 943.758 271.681 933.984 279.643 923.401 285.655 C 920.025 287.574 915.129 289.869 911.096 288.9 C 892.662 284.472 906.03 242.56 898.192 231.756 C 897.289 230.511 896.285 230.565 894.865 230.448 C 882.706 229.443 856.707 238.052 844.385 241.28 A 796.748 796.748 0 0 0 547.952 387.424 C 423.174 486.922 325.161 619.764 277.009 772.79 C 256.94 836.57 245.547 902.677 238.014 968.965 A 76.4881 76.4881 0 0 0 235.697 968.339 C 219.815 964.362 206.197 970.59 192.846 978.408 C 193.221 955.07 196.758 930.742 199.819 907.631 A 839.953 839.953 0 0 1 316.723 573.784 C 412.193 417.157 550.646 292.532 720.868 222.111 C 751.594 209.399 783.591 197.143 815.902 189.127 C 819.904 188.134 822.647 187.208 824.859 183.555 C 824.973 180.971 825.079 180.684 823.713 178.526 C 821.951 177.628 820.512 177.194 818.544 177.178 C 805.504 177.073 771.315 190.527 757.708 195.44 C 643.006 236.854 545.334 297.598 456.013 380.542 L 452.117 384.344 C 316.267 517.87 226.203 680.769 193.253 868.859 C 186.45 907.695 180.793 948.265 180.458 987.736 C 176.925 991.602 173.35 995.884 170.716 1000.43 C 160.915 1017.34 169.452 1031.05 170.15 1048.12 C 170.75 1062.79 169.908 1077.51 170.625 1092.23 C 172.057 1121.61 176.36 1150.47 181.325 1179.44 C 183.352 1191.26 184.727 1204.32 188.271 1215.77 C 189.372 1219.32 190.606 1222.19 194.019 1223.99 C 195.778 1223.64 195.603 1223.98 196.679 1222.83 C 199.612 1219.7 199.859 1214.48 199.426 1210.43 C 198.747 1204.09 196.819 1197.81 195.673 1191.53 C 193.475 1179.47 191.658 1167.31 189.806 1155.2 C 184.753 1122.14 182.828 1090.36 182.275 1056.98 A 84.1759 84.1759 0 0 0 191.188 1064.65 C 203.739 1074.14 216.219 1075.86 231.334 1073.71 C 228.53 1090.92 229.189 1154.07 237.606 1167.02 C 245.425 1171.84 274.475 1165.08 284.309 1163.51 C 280.016 1175.06 276.67 1187.4 273.78 1199.37 C 268.521 1201.3 263.454 1203.3 258.592 1206.13 C 249.309 1211.54 243.37 1218.9 238.902 1228.51 C 230.509 1246.57 227.684 1268.62 223.55 1288.04 C 216.078 1323.13 209.481 1358.5 200.925 1393.35 C 194.165 1383.7 188.235 1373.25 181.881 1363.31 C 163.503 1334.56 145.818 1305.6 128.347 1276.29 C 115.219 1254.27 100.144 1232.21 88.5933 1209.39 C 86.9901 1206.22 84.8264 1201.92 85.3999 1198.44 C 95.2152 1185.21 134.813 1188.35 150.313 1180.67 C 153.074 1179.3 154.331 1177.74 154.596 1174.62 C 155.45 1164.58 147.569 1128.3 145.793 1115.75 C 142.443 1092.06 140.425 1067.83 139.329 1043.93 C 133.904 925.659 153.414 809.147 191.569 697.431 C 273.869 456.455 466.578 257.796 701.14 161.046 C 732.038 148.301 763.88 136.717 796.104 127.796 A 2353.49 2353.49 0 0 1 848.036 114.301 C 858.187 111.857 880.115 108.916 888.665 104.176 C 894.49 100.946 880.695 75.3871 884.961 62.4048 C 887.505 54.6635 893.329 50.4333 900.333 46.9399 z"/>
</svg>